Weiss.ufo
<glyph name="exclam" format="2">
  <advance width="178"/>
  <unicode hex="0021"/>
  <outline>
    <contour>
      <point x="90.0" y="-4.0" type="curve" smooth="yes"/>
      <point x="124.0" y="-4.0"/>
      <point x="148.0" y="20.0"/>
      <point x="148.0" y="54.0" type="curve" smooth="yes"/>
      <point x="148.0" y="88.0"/>
      <point x="124.0" y="112.0"/>
      <point x="90.0" y="112.0" type="curve" smooth="yes"/>
      <point x="56.0" y="112.0"/>
      <point x="32.0" y="88.0"/>
      <point x="32.0" y="54.0" type="curve" smooth="yes"/>
      <point x="32.0" y="20.0"/>
      <point x="56.0" y="-4.0"/>
    </contour>
    <contour>
      <point x="79.0" y="201.0" type="line"/>
      <point x="117.0" y="279.0" type="line"/>
      <point x="118.0" y="413.0"/>
      <point x="126.0" y="546.0"/>
      <point x="143.0" y="670.0" type="curve"/>
      <point x="131.0" y="684.0" type="line"/>
      <point x="34.0" y="647.0" type="line"/>
      <point x="57.0" y="431.0"/>
      <point x="72.0" y="288.0"/>
      <point x="56.0" y="215.0" type="curve"/>
    </contour>
  </outline>
</glyph>
<glyph name="quotedbl" format="2">
  <advance width="310"/>
  <unicode hex="0022"/>
  <outline>
    <contour>
      <point x="65" y="484" type="curve"/>
      <point x="104" y="483" type="line"/>
      <point x="108" y="561"/>
      <point x="118" y="639"/>
      <point x="129" y="717" type="curve"/>
      <point x="121" y="730" type="line"/>
      <point x="40" y="730" type="line"/>
      <point x="51" y="648"/>
      <point x="61" y="566"/>
    </contour>
    <contour>
      <point x="206" y="484" type="curve"/>
      <point x="245" y="483" type="line"/>
      <point x="249" y="561"/>
      <point x="259" y="639"/>
      <point x="270" y="717" type="curve"/>
      <point x="262" y="730" type="line"/>
      <point x="181" y="730" type="line"/>
      <point x="192" y="648"/>
      <point x="202" y="566"/>
    </contour>
  </outline>
</glyph>
<glyph name="quotesingle" format="2">
  <advance width="169"/>
  <unicode hex="0027"/>
  <outline>
    <contour>
      <point x="65" y="484" type="curve"/>
      <point x="104" y="483" type="line"/>
      <point x="108" y="561"/>
      <point x="118" y="639"/>
      <point x="129" y="717" type="curve"/>
      <point x="121" y="730" type="line"/>
      <point x="40" y="730" type="line"/>
      <point x="51" y="648"/>
      <point x="61" y="566"/>
    </contour>
  </outline>
</glyph>
<glyph name="parenleft" format="2">
  <advance width="322"/>
  <unicode hex="0028"/>
  <outline>
    <contour>
      <point x="275" y="692" type="line"/>
      <point x="263" y="686" type="line"/>
      <point x="256" y="686" type="line"/>
      <point x="250" y="672" type="line"/>
      <point x="206" y="650" type="line"/>
      <point x="199" y="635" type="line"/>
      <point x="165" y="614" type="line"/>
      <point x="151" y="585" type="line"/>
      <point x="102" y="523" type="line"/>
      <point x="96" y="508" type="line"/>
      <point x="88" y="489" type="line"/>
      <point x="84" y="470" type="line"/>
      <point x="71" y="433" type="line"/>
      <point x="74" y="391" type="line"/>
      <point x="60" y="377" type="line"/>
      <point x="57" y="346" type="line"/>
      <point x="51" y="306" type="line"/>
      <point x="50" y="283" type="line"/>
      <point x="50" y="260" type="line"/>
      <point x="50" y="244" type="line"/>
      <point x="57" y="198" type="line"/>
      <point x="59" y="171" type="line"/>
      <point x="75" y="138" type="line"/>
      <point x="75" y="109" type="line"/>
      <point x="81" y="109" type="line"/>
      <point x="81" y="93" type="line"/>
      <point x="97" y="79" type="line"/>
      <point x="97" y="72" type="line"/>
      <point x="97" y="64" type="line"/>
      <point x="112" y="31" type="line"/>
      <point x="125" y="15" type="line"/>
      <point x="125" y="-5" type="line"/>
      <point x="143" y="-16" type="line"/>
      <point x="143" y="-24" type="line"/>
      <point x="161" y="-33" type="line"/>
      <point x="177" y="-55" type="line"/>
      <point x="177" y="-66" type="line"/>
      <point x="197" y="-85" type="line"/>
      <point x="216" y="-112" type="line"/>
      <point x="245" y="-129" type="line"/>
      <point x="260" y="-133" type="line"/>
      <point x="273" y="-146" type="line"/>
      <point x="300" y="-140" type="line"/>
      <point x="299" y="-133" type="line"/>
      <point x="298" y="-125" type="line"/>
      <point x="297" y="-100" type="line"/>
      <point x="292" y="-92" type="line"/>
      <point x="271" y="-83" type="line"/>
      <point x="249" y="-62" type="line"/>
      <point x="249" y="-54" type="line"/>
      <point x="232" y="-40" type="line"/>
      <point x="225" y="-40" type="line"/>
      <point x="214" y="-19" type="line"/>
      <point x="204" y="0" type="line"/>
      <point x="184" y="25" type="line"/>
      <point x="184" y="39" type="line"/>
      <point x="168" y="59" type="line"/>
      <point x="168" y="69" type="line"/>
      <point x="146" y="123" type="line"/>
      <point x="139" y="132" type="line"/>
      <point x="124" y="185" type="line"/>
      <point x="125" y="193" type="line"/>
      <point x="125" y="200" type="line"/>
      <point x="116" y="213" type="line"/>
      <point x="122" y="246" type="line"/>
      <point x="113" y="259" type="line"/>
      <point x="122" y="287" type="line"/>
      <point x="122" y="336" type="line"/>
      <point x="128" y="362" type="line"/>
      <point x="135" y="382" type="line"/>
      <point x="127" y="417" type="line"/>
      <point x="137" y="425" type="line"/>
      <point x="137" y="450" type="line"/>
      <point x="153" y="468" type="line"/>
      <point x="158" y="496" type="line"/>
      <point x="181" y="523" type="line"/>
      <point x="181" y="531" type="line"/>
      <point x="193" y="555" type="line"/>
      <point x="212" y="562" type="line"/>
      <point x="221" y="573" type="line"/>
      <point x="239" y="604" type="line"/>
      <point x="269" y="615" type="line"/>
      <point x="291" y="635" type="line"/>
      <point x="301" y="639" type="line"/>
      <point x="312" y="655" type="line"/>
      <point x="311" y="665" type="line"/>
      <point x="311" y="674" type="line"/>
      <point x="301" y="689" type="line"/>
      <point x="301" y="698" type="line"/>
      <point x="287" y="698" type="line"/>
    </contour>
  </outline>
</glyph>
<glyph name="parenright" format="2">
  <advance width="326"/>
  <unicode hex="0029"/>
  <outline>
    <contour>
      <point x="40" y="-149" type="line"/>
      <point x="161" y="-73"/>
      <point x="273" y="59"/>
      <point x="273" y="275" type="curve" smooth="yes"/>
      <point x="273.0" y="491.0"/>
      <point x="161" y="627"/>
      <point x="40" y="703" type="curve"/>
      <point x="17" y="666" type="line"/>
      <point x="120" y="589"/>
      <point x="202" y="458"/>
      <point x="202" y="275" type="curve" smooth="yes"/>
      <point x="202.0" y="92.0"/>
      <point x="120" y="-35"/>
      <point x="17" y="-112" type="curve"/>
    </contour>
  </outline>
</glyph>
<glyph name="comma" format="2">
  <advance width="220"/>
  <unicode hex="002C"/>
  <outline>
    <contour>
      <point x="119" y="101" type="line"/>
      <point x="110" y="96" type="line"/>
      <point x="102" y="80" type="line"/>
      <point x="74" y="-46" type="line"/>
      <point x="40" y="-185" type="line"/>
      <point x="43" y="-206" type="line"/>
      <point x="50" y="-215" type="line"/>
      <point x="64" y="-215" type="line"/>
      <point x="81" y="-198" type="line"/>
      <point x="95" y="-167" type="line"/>
      <point x="137" y="-55" type="line"/>
      <point x="161" y="1" type="line"/>
      <point x="186" y="64" type="line"/>
      <point x="190" y="88" type="line"/>
      <point x="177" y="103" type="line"/>
      <point x="129" y="105" type="line"/>
    </contour>
  </outline>
</glyph>
<glyph name="hyphen" format="2">
  <advance width="279"/>
  <unicode hex="002D"/>
  <outline>
    <contour>
      <point x="35" y="188" type="line"/>
      <point x="206" y="188" type="line"/>
      <point x="253" y="248" type="line"/>
      <point x="244" y="260" type="line"/>
      <point x="73" y="260" type="line"/>
      <point x="26" y="200" type="line"/>
    </contour>
  </outline>
</glyph>
<glyph name="period" format="2">
  <advance width="182"/>
  <unicode hex="002E"/>
  <outline>
    <contour>
      <point x="91" y="-7" type="curve" smooth="yes"/>
      <point x="122" y="-7"/>
      <point x="146" y="18"/>
      <point x="146" y="53" type="curve" smooth="yes"/>
      <point x="146" y="88"/>
      <point x="122" y="113"/>
      <point x="91" y="113" type="curve" smooth="yes"/>
      <point x="60" y="113"/>
      <point x="36" y="88"/>
      <point x="36" y="53" type="curve" smooth="yes"/>
      <point x="36" y="18"/>
      <point x="60" y="-7"/>
    </contour>
  </outline>
</glyph>
<glyph name="zero" format="2">
  <advance width="544"/>
  <unicode hex="0030"/>
  <outline>
    <contour>
      <point x="272.0" y="436.0" type="curve"/>
      <point x="146.0" y="436.0"/>
      <point x="43.0" y="341.0"/>
      <point x="43.0" y="214.0" type="curve" smooth="yes"/>
      <point x="43.0" y="87.0"/>
      <point x="136.0" y="-8.0"/>
      <point x="272.0" y="-8.0" type="curve"/>
      <point x="398.0" y="-8.0"/>
      <point x="501.0" y="87.0"/>
      <point x="501.0" y="214.0" type="curve" smooth="yes"/>
      <point x="501.0" y="341.0"/>
      <point x="408.0" y="436.0"/>
    </contour>
    <contour>
      <point x="275.0" y="45.5" type="curve"/>
      <point x="185.0" y="44.5"/>
      <point x="123.0" y="125.5"/>
      <point x="122.0" y="214.5" type="curve" smooth="yes"/>
      <point x="121.0" y="270.5"/>
      <point x="152.0" y="382.5"/>
      <point x="269.0" y="382.5" type="curve"/>
      <point x="359.0" y="383.5"/>
      <point x="421.0" y="302.5"/>
      <point x="422.0" y="213.5" type="curve" smooth="yes"/>
      <point x="423.0" y="157.5"/>
      <point x="392.0" y="45.5"/>
    </contour>
  </outline>
</glyph>
<glyph name="one" format="2">
  <advance width="236"/>
  <unicode hex="0031"/>
  <outline>
    <contour>
      <point x="35" y="0" type="line"/>
      <point x="67" y="3"/>
      <point x="95" y="4"/>
      <point x="122" y="4" type="curve" smooth="yes"/>
      <point x="148" y="4"/>
      <point x="175" y="3"/>
      <point x="207" y="0" type="curve"/>
      <point x="207" y="31" type="line"/>
      <point x="173" y="39"/>
      <point x="160" y="46"/>
      <point x="160" y="68" type="curve" smooth="yes"/>
      <point x="163" y="362" type="line" smooth="yes"/>
      <point x="163" y="384"/>
      <point x="176" y="391"/>
      <point x="210" y="399" type="curve"/>
      <point x="210" y="430" type="line"/>
      <point x="177" y="427"/>
      <point x="149.0" y="426.0"/>
      <point x="122" y="426" type="curve" smooth="yes"/>
      <point x="94.0" y="426.0"/>
      <point x="65" y="427"/>
      <point x="32" y="430" type="curve"/>
      <point x="32" y="399" type="line"/>
      <point x="66" y="391"/>
      <point x="79" y="384"/>
      <point x="79" y="362" type="curve" smooth="yes"/>
      <point x="82" y="68" type="line" smooth="yes"/>
      <point x="82" y="46"/>
      <point x="69" y="39"/>
      <point x="35" y="31" type="curve"/>
    </contour>
  </outline>
</glyph>
<glyph name="two" format="2">
  <advance width="456"/>
  <unicode hex="0032"/>
  <outline>
    <contour>
      <point x="37" y="0" type="line"/>
      <point x="146" y="5.0"/>
      <point x="255" y="5.0"/>
      <point x="364" y="0" type="curve"/>
      <point x="383" y="33"/>
      <point x="405" y="65"/>
      <point x="431" y="98" type="curve"/>
      <point x="408" y="117" type="line"/>
      <point x="384" y="89"/>
      <point x="362" y="78"/>
      <point x="329" y="76" type="curve" smooth="yes"/>
      <point x="302" y="74"/>
      <point x="276" y="74"/>
      <point x="249" y="75" type="curve"/>
      <point x="241" y="88" type="line"/>
      <point x="291" y="128"/>
      <point x="372" y="212"/>
      <point x="372" y="303" type="curve" smooth="yes"/>
      <point x="372.0" y="398.0"/>
      <point x="305" y="445"/>
      <point x="215" y="445.0" type="curve"/>
      <point x="110.0" y="445.0"/>
      <point x="47" y="360"/>
      <point x="36" y="268" type="curve"/>
      <point x="69" y="264" type="line"/>
      <point x="85" y="303"/>
      <point x="116" y="369"/>
      <point x="193" y="369" type="curve"/>
      <point x="240" y="369"/>
      <point x="290" y="341"/>
      <point x="290" y="275" type="curve" smooth="yes"/>
      <point x="290" y="198"/>
      <point x="219" y="79"/>
      <point x="84" y="74" type="curve" smooth="yes"/>
      <point x="59" y="73" type="line"/>
    </contour>
  </outline>
</glyph>
<glyph name="three" format="2">
  <advance width="415"/>
  <unicode hex="0033"/>
  <outline>
    <contour>
      <point x="203" y="438" type="curve" smooth="yes"/>
      <point x="132" y="438"/>
      <point x="72" y="392"/>
      <point x="43" y="319" type="curve"/>
      <point x="67" y="302" type="line"/>
      <point x="99" y="347"/>
      <point x="138" y="362"/>
      <point x="183" y="362" type="curve" smooth="yes"/>
      <point x="234" y="362"/>
      <point x="272" y="324"/>
      <point x="272" y="279" type="curve" smooth="yes"/>
      <point x="272" y="219"/>
      <point x="234" y="164"/>
      <point x="155" y="155" type="curve" smooth="yes"/>
      <point x="87" y="147" type="line"/>
      <point x="73" y="70" type="line"/>
      <point x="84" y="60" type="line"/>
      <point x="145" y="72" type="line" smooth="yes"/>
      <point x="226" y="88"/>
      <point x="287" y="22"/>
      <point x="287" y="-43" type="curve" smooth="yes"/>
      <point x="287.0" y="-129.0"/>
      <point x="235" y="-172"/>
      <point x="186" y="-172" type="curve" smooth="yes"/>
      <point x="162.0" y="-172.0"/>
      <point x="152" y="-166"/>
      <point x="148" y="-155" type="curve" smooth="yes"/>
      <point x="142" y="-139"/>
      <point x="158" y="-130"/>
      <point x="158" y="-103" type="curve" smooth="yes"/>
      <point x="158" y="-73"/>
      <point x="140" y="-51"/>
      <point x="97" y="-51" type="curve" smooth="yes"/>
      <point x="52" y="-51"/>
      <point x="38" y="-86"/>
      <point x="38" y="-112" type="curve" smooth="yes"/>
      <point x="38" y="-166"/>
      <point x="98" y="-205"/>
      <point x="175" y="-205" type="curve" smooth="yes"/>
      <point x="290" y="-205"/>
      <point x="375" y="-131"/>
      <point x="375" y="-18" type="curve" smooth="yes"/>
      <point x="375" y="57"/>
      <point x="343" y="110"/>
      <point x="266" y="139" type="curve"/>
      <point x="264" y="153" type="line"/>
      <point x="319" y="194"/>
      <point x="352" y="245"/>
      <point x="352.0" y="308" type="curve" smooth="yes"/>
      <point x="352.0" y="385"/>
      <point x="291" y="438"/>
    </contour>
  </outline>
</glyph>
<glyph name="four" format="2">
  <advance width="488"/>
  <unicode hex="0034"/>
  <outline>
    <contour>
      <point x="36" y="0.0" type="line"/>
      <point x="18" y="22" type="line"/>
      <point x="336" y="430" type="line"/>
      <point x="359.0" y="430" type="line"/>
      <point x="359.0" y="64" type="line"/>
      <point x="456" y="64" type="line"/>
      <point x="456" y="0.0" type="line"/>
      <point x="356.0" y="0.0" type="line"/>
      <point x="356.0" y="-193" type="line"/>
      <point x="274.0" y="-195" type="line"/>
      <point x="274.0" y="0.0" type="line"/>
    </contour>
    <contour>
      <point x="262" y="248" type="line"/>
      <point x="131" y="78" type="line"/>
      <point x="139" y="65" type="line"/>
      <point x="275" y="65" type="line"/>
      <point x="275" y="240" type="line"/>
    </contour>
  </outline>
</glyph>
<glyph name="five" format="2">
  <advance width="412"/>
  <unicode hex="0035"/>
  <outline>
    <contour>
      <point x="98" y="-204" type="curve" smooth="yes"/>
      <point x="213" y="-204"/>
      <point x="344" y="-88"/>
      <point x="344" y="53" type="curve" smooth="yes"/>
      <point x="344" y="133"/>
      <point x="311" y="242"/>
      <point x="130" y="272" type="curve"/>
      <point x="171" y="356" type="line"/>
      <point x="245" y="350" type="line" smooth="yes"/>
      <point x="349" y="342"/>
      <point x="381" y="355"/>
      <point x="401" y="442" type="curve"/>
      <point x="386" y="447" type="line"/>
      <point x="367" y="428"/>
      <point x="336" y="428"/>
      <point x="305" y="428" type="curve" smooth="yes"/>
      <point x="261" y="428"/>
      <point x="206" y="435"/>
      <point x="169" y="442" type="curve"/>
      <point x="50" y="200" type="line"/>
      <point x="58" y="187" type="line"/>
      <point x="80" y="189"/>
      <point x="116" y="188"/>
      <point x="149" y="179" type="curve" smooth="yes"/>
      <point x="207" y="163"/>
      <point x="273" y="108"/>
      <point x="273" y="14" type="curve" smooth="yes"/>
      <point x="273" y="-75"/>
      <point x="225" y="-148"/>
      <point x="137" y="-148" type="curve" smooth="yes"/>
      <point x="101" y="-148"/>
      <point x="80" y="-141"/>
      <point x="51" y="-128" type="curve"/>
      <point x="34" y="-144"/>
      <point x="23" y="-166"/>
      <point x="20" y="-192" type="curve"/>
      <point x="52" y="-202"/>
      <point x="69" y="-204"/>
    </contour>
  </outline>
</glyph>
<glyph name="six" format="2">
  <advance width="517"/>
  <unicode hex="0036"/>
  <outline>
    <contour>
      <point x="268" y="-3" type="curve" smooth="yes"/>
      <point x="388.0" y="-3.0"/>
      <point x="471" y="114"/>
      <point x="471" y="219" type="curve" smooth="yes"/>
      <point x="471" y="325"/>
      <point x="404" y="399"/>
      <point x="291" y="399.0" type="curve" smooth="yes"/>
      <point x="245.0" y="399.0"/>
      <point x="199" y="386"/>
      <point x="154" y="347" type="curve"/>
      <point x="144" y="352" type="line"/>
      <point x="177" y="490"/>
      <point x="278" y="575"/>
      <point x="431" y="610" type="curve"/>
      <point x="422" y="647" type="line"/>
      <point x="184" y="605"/>
      <point x="40" y="434"/>
      <point x="40.0" y="251" type="curve" smooth="yes"/>
      <point x="40" y="109"/>
      <point x="142" y="-3"/>
    </contour>
    <contour>
      <point x="264" y="41.0" type="curve" smooth="yes"/>
      <point x="209" y="41"/>
      <point x="135" y="82"/>
      <point x="135.0" y="216" type="curve" smooth="yes"/>
      <point x="135.0" y="290.0"/>
      <point x="176" y="349"/>
      <point x="247" y="349" type="curve" smooth="yes"/>
      <point x="328.0" y="349.0"/>
      <point x="382" y="259"/>
      <point x="382.0" y="184" type="curve" smooth="yes"/>
      <point x="382.0" y="94.0"/>
      <point x="335.0" y="41.0"/>
    </contour>
  </outline>
</glyph>
<glyph name="seven" format="2">
  <advance width="528"/>
  <unicode hex="0037"/>
  <outline>
    <contour>
      <point x="99" y="-200" type="line"/>
      <point x="182" y="-191" type="line"/>
      <point x="235" y="29"/>
      <point x="377" y="240"/>
      <point x="526" y="413" type="curve"/>
      <point x="517" y="430" type="line"/>
      <point x="120" y="430" type="line"/>
      <point x="92" y="430"/>
      <point x="79" y="433"/>
      <point x="68" y="444" type="curve"/>
      <point x="38" y="444" type="line"/>
      <point x="33" y="284" type="line"/>
      <point x="68" y="284" type="line"/>
      <point x="88" y="339"/>
      <point x="106" y="356"/>
      <point x="156" y="357" type="curve" smooth="yes"/>
      <point x="237" y="359"/>
      <point x="319" y="356"/>
      <point x="400" y="350" type="curve"/>
      <point x="409" y="338" type="line"/>
      <point x="272" y="181"/>
      <point x="158" y="16"/>
      <point x="84" y="-190" type="curve"/>
    </contour>
  </outline>
</glyph>
<glyph name="eight" format="2">
  <advance width="466"/>
  <unicode hex="0038"/>
  <outline>
    <contour>
      <point x="192" y="632" type="line"/>
      <point x="181" y="628" type="line"/>
      <point x="141" y="615" type="line"/>
      <point x="107" y="594" type="line"/>
      <point x="96" y="577" type="line"/>
      <point x="85" y="566" type="line"/>
      <point x="75" y="545" type="line"/>
      <point x="68" y="526" type="line"/>
      <point x="60" y="456" type="line"/>
      <point x="63" y="434" type="line"/>
      <point x="68" y="428" type="line"/>
      <point x="73" y="408" type="line"/>
      <point x="100" y="379" type="line"/>
      <point x="108" y="349" type="line"/>
      <point x="116" y="339" type="line"/>
      <point x="142" y="330" type="line"/>
      <point x="145" y="320" type="line"/>
      <point x="151" y="310" type="line"/>
      <point x="131" y="287" type="line"/>
      <point x="121" y="287" type="line"/>
      <point x="98" y="271" type="line"/>
      <point x="91" y="271" type="line"/>
      <point x="53" y="233" type="line"/>
      <point x="44" y="207" type="line"/>
      <point x="44" y="196" type="line"/>
      <point x="44" y="185" type="line"/>
      <point x="42" y="151" type="line"/>
      <point x="40" y="117" type="line"/>
      <point x="47" y="108" type="line"/>
      <point x="58" y="79" type="line"/>
      <point x="98" y="35" type="line"/>
      <point x="124" y="23" type="line"/>
      <point x="133" y="12" type="line"/>
      <point x="154" y="12" type="line"/>
      <point x="165" y="7" type="line"/>
      <point x="218" y="0" type="line"/>
      <point x="231" y="7" type="line"/>
      <point x="245" y="-1" type="line"/>
      <point x="273" y="2" type="line"/>
      <point x="311" y="14" type="line"/>
      <point x="364" y="45" type="line"/>
      <point x="393" y="85" type="line"/>
      <point x="416" y="131" type="line"/>
      <point x="424" y="153" type="line"/>
      <point x="426" y="185" type="line"/>
      <point x="422" y="218" type="line"/>
      <point x="408" y="235" type="line"/>
      <point x="409" y="244" type="line"/>
      <point x="411" y="252" type="line"/>
      <point x="401" y="270" type="line"/>
      <point x="379" y="298" type="line"/>
      <point x="374" y="303" type="line"/>
      <point x="341" y="330" type="line"/>
      <point x="315" y="348" type="line"/>
      <point x="315" y="359" type="line"/>
      <point x="336" y="375" type="line"/>
      <point x="350" y="379" type="line"/>
      <point x="363" y="405" type="line"/>
      <point x="389" y="418" type="line"/>
      <point x="394" y="428" type="line"/>
      <point x="411" y="463" type="line"/>
      <point x="416" y="484" type="line"/>
      <point x="407" y="534" type="line"/>
      <point x="397" y="556" type="line"/>
      <point x="386" y="562" type="line"/>
      <point x="378" y="581" type="line"/>
      <point x="349" y="605" type="line"/>
      <point x="328" y="619" type="line"/>
      <point x="283" y="632" type="line"/>
      <point x="203" y="635" type="line"/>
    </contour>
    <contour>
      <point x="270" y="576" type="line"/>
      <point x="283" y="574" type="line"/>
      <point x="319" y="537" type="line"/>
      <point x="319" y="528" type="line"/>
      <point x="330" y="513" type="line"/>
      <point x="338" y="491" type="line"/>
      <point x="336" y="473" type="line"/>
      <point x="335" y="455" type="line"/>
      <point x="329" y="428" type="line"/>
      <point x="313" y="415" type="line"/>
      <point x="303" y="395" type="line"/>
      <point x="283" y="379" type="line"/>
      <point x="253" y="379" type="line"/>
      <point x="219" y="393" type="line"/>
      <point x="194" y="407" type="line"/>
      <point x="169" y="431" type="line"/>
      <point x="155" y="453" type="line"/>
      <point x="144" y="495" type="line"/>
      <point x="158" y="523" type="line"/>
      <point x="163" y="532" type="line"/>
      <point x="171" y="553" type="line"/>
      <point x="191" y="565" type="line"/>
      <point x="204" y="565" type="line"/>
      <point x="231" y="581" type="line"/>
      <point x="257" y="578" type="line"/>
    </contour>
    <contour>
      <point x="236" y="277" type="line"/>
      <point x="246" y="269" type="line"/>
      <point x="283" y="256" type="line"/>
      <point x="304" y="240" type="line"/>
      <point x="319" y="233" type="line"/>
      <point x="319" y="221" type="line"/>
      <point x="344" y="196" type="line"/>
      <point x="348" y="181" type="line"/>
      <point x="341" y="155" type="line"/>
      <point x="352" y="136" type="line"/>
      <point x="345" y="125" type="line"/>
      <point x="328" y="116" type="line"/>
      <point x="331" y="96" type="line"/>
      <point x="312" y="69" type="line"/>
      <point x="306" y="69" type="line"/>
      <point x="292" y="53" type="line"/>
      <point x="273" y="45" type="line"/>
      <point x="249" y="41" type="line"/>
      <point x="219" y="49" type="line"/>
      <point x="206" y="44" type="line"/>
      <point x="188" y="44" type="line"/>
      <point x="139" y="92" type="line"/>
      <point x="135" y="113" type="line"/>
      <point x="119" y="133" type="line"/>
      <point x="122" y="142" type="line"/>
      <point x="112" y="166" type="line"/>
      <point x="120" y="226" type="line"/>
      <point x="126" y="228" type="line"/>
      <point x="143" y="247" type="line"/>
      <point x="169" y="272" type="line"/>
      <point x="194" y="284" type="line"/>
      <point x="226" y="284" type="line"/>
    </contour>
  </outline>
</glyph>
<glyph name="nine" format="2">
  <advance width="539"/>
  <unicode hex="0039"/>
  <outline>
    <contour>
      <point x="262" y="440" type="curve" smooth="yes"/>
      <point x="130" y="440"/>
      <point x="46" y="321"/>
      <point x="46" y="215" type="curve" smooth="yes"/>
      <point x="46" y="103"/>
      <point x="122" y="24"/>
      <point x="234" y="24" type="curve" smooth="yes"/>
      <point x="289" y="24"/>
      <point x="332" y="40"/>
      <point x="386" y="87" type="curve"/>
      <point x="396" y="82" type="line"/>
      <point x="380" y="-70"/>
      <point x="317" y="-178"/>
      <point x="196" y="-178" type="curve" smooth="yes"/>
      <point x="178" y="-178"/>
      <point x="159" y="-176"/>
      <point x="138" y="-171" type="curve"/>
      <point x="128" y="-187"/>
      <point x="125" y="-210"/>
      <point x="129" y="-231" type="curve"/>
      <point x="140" y="-232"/>
      <point x="151" y="-233"/>
      <point x="162" y="-233" type="curve" smooth="yes"/>
      <point x="353" y="-233"/>
      <point x="498" y="-17"/>
      <point x="498" y="173" type="curve" smooth="yes"/>
      <point x="498" y="337"/>
      <point x="399" y="440"/>
    </contour>
    <contour>
      <point x="256" y="402" type="curve" smooth="yes"/>
      <point x="320" y="402"/>
      <point x="405" y="359"/>
      <point x="405" y="240" type="curve" smooth="yes"/>
      <point x="405" y="153"/>
      <point x="354" y="84"/>
      <point x="266" y="84" type="curve" smooth="yes"/>
      <point x="187" y="84"/>
      <point x="135" y="152"/>
      <point x="135" y="246" type="curve" smooth="yes"/>
      <point x="135" y="342"/>
      <point x="183" y="402"/>
    </contour>
  </outline>
</glyph>
<glyph name="colon" format="2">
  <advance width="181"/>
  <unicode hex="003A"/>
  <outline>
    <contour>
      <point x="73" y="329" type="line"/>
      <point x="61" y="325" type="line"/>
      <point x="46" y="315" type="line"/>
      <point x="30" y="284" type="line"/>
      <point x="30" y="262" type="line"/>
      <point x="40" y="239" type="line"/>
      <point x="53" y="225" type="line"/>
      <point x="84" y="216" type="line"/>
      <point x="117" y="222" type="line"/>
      <point x="136" y="236" type="line"/>
      <point x="148" y="252" type="line"/>
      <point x="151" y="289" type="line"/>
      <point x="134" y="319" type="line"/>
      <point x="115" y="330" type="line"/>
      <point x="84" y="334" type="line"/>
    </contour>
    <contour>
      <point x="70" y="107" type="line"/>
      <point x="53" y="101" type="line"/>
      <point x="33" y="78" type="line"/>
      <point x="30" y="58" type="line"/>
      <point x="40" y="23" type="line"/>
      <point x="64" y="-1" type="line"/>
      <point x="92" y="-8" type="line"/>
      <point x="118" y="-1" type="line"/>
      <point x="139" y="19" type="line"/>
      <point x="148" y="39" type="line"/>
      <point x="148" y="67" type="line"/>
      <point x="140" y="87" type="line"/>
      <point x="114" y="110" type="line"/>
      <point x="105" y="110" type="line"/>
      <point x="87" y="113" type="line"/>
    </contour>
  </outline>
</glyph>
<glyph name="semicolon" format="2">
  <advance width="204"/>
  <unicode hex="003B"/>
  <outline>
    <contour>
      <point x="88" y="329" type="line"/>
      <point x="78" y="325" type="line"/>
      <point x="57" y="298" type="line"/>
      <point x="58" y="277" type="line"/>
      <point x="58" y="256" type="line"/>
      <point x="73" y="234" type="line"/>
      <point x="97" y="222" type="line"/>
      <point x="126" y="215" type="line"/>
      <point x="158" y="231" type="line"/>
      <point x="174" y="256" type="line"/>
      <point x="171" y="290" type="line"/>
      <point x="153" y="323" type="line"/>
      <point x="132" y="333" type="line"/>
      <point x="97" y="333" type="line"/>
    </contour>
    <contour>
      <point x="59" y="99" type="line"/>
      <point x="52" y="91" type="line"/>
      <point x="52" y="73" type="line"/>
      <point x="52" y="56" type="line"/>
      <point x="43" y="19" type="line"/>
      <point x="43" y="9" type="line"/>
      <point x="43" y="0" type="line"/>
      <point x="31" y="-48" type="line"/>
      <point x="28" y="-53" type="line"/>
      <point x="21" y="-101" type="line"/>
      <point x="12" y="-125" type="line"/>
      <point x="5" y="-191" type="line"/>
      <point x="12" y="-198" type="line"/>
      <point x="14" y="-214" type="line"/>
      <point x="28" y="-216" type="line"/>
      <point x="31" y="-204" type="line"/>
      <point x="36" y="-195" type="line"/>
      <point x="54" y="-185" type="line"/>
      <point x="68" y="-150" type="line"/>
      <point x="83" y="-90" type="line"/>
      <point x="90" y="-84" type="line"/>
      <point x="90" y="-70" type="line"/>
      <point x="105" y="-40" type="line"/>
      <point x="130" y="24" type="line"/>
      <point x="130" y="30" type="line"/>
      <point x="152" y="80" type="line"/>
      <point x="151" y="86" type="line"/>
      <point x="150" y="93" type="line"/>
      <point x="135" y="104" type="line"/>
      <point x="66" y="108" type="line"/>
    </contour>
  </outline>
</glyph>
<glyph name="question" format="2">
  <advance width="449"/>
  <unicode hex="003F"/>
  <outline>
    <contour>
      <point x="167" y="644" type="line"/>
      <point x="157" y="641" type="line"/>
      <point x="131" y="634" type="line"/>
      <point x="101" y="614" type="line"/>
      <point x="40" y="524" type="line"/>
      <point x="40" y="506" type="line"/>
      <point x="47" y="493" type="line"/>
      <point x="63" y="493" type="line"/>
      <point x="87" y="516" type="line"/>
      <point x="123" y="537" type="line"/>
      <point x="162" y="545" type="line"/>
      <point x="213" y="547" type="line"/>
      <point x="242" y="538" type="line"/>
      <point x="283" y="518" type="line"/>
      <point x="312" y="488" type="line"/>
      <point x="321" y="469" type="line"/>
      <point x="328" y="425" type="line"/>
      <point x="328" y="409" type="line"/>
      <point x="318" y="373" type="line"/>
      <point x="299" y="332" type="line"/>
      <point x="279" y="310" type="line"/>
      <point x="232" y="272" type="line"/>
      <point x="182" y="247" type="line"/>
      <point x="146" y="240" type="line"/>
      <point x="115" y="227" type="line"/>
      <point x="101" y="214" type="line"/>
      <point x="101" y="196" type="line"/>
      <point x="115" y="182" type="line"/>
      <point x="167" y="185" type="line"/>
      <point x="215" y="208" type="line"/>
      <point x="240" y="216" type="line"/>
      <point x="298" y="250" type="line"/>
      <point x="371" y="324" type="line"/>
      <point x="384" y="348" type="line"/>
      <point x="395" y="364" type="line"/>
      <point x="409" y="415" type="line"/>
      <point x="409" y="439" type="line"/>
      <point x="409" y="463" type="line"/>
      <point x="398" y="524" type="line"/>
      <point x="386" y="549" type="line"/>
      <point x="361" y="585" type="line"/>
      <point x="317" y="619" type="line"/>
      <point x="282" y="635" type="line"/>
      <point x="227" y="647" type="line"/>
      <point x="176" y="646" type="line"/>
    </contour>
    <contour>
      <point x="174" y="113" type="line"/>
      <point x="165" y="110" type="line"/>
      <point x="142" y="92" type="line"/>
      <point x="133" y="70" type="line"/>
      <point x="133" y="38" type="line"/>
      <point x="150" y="13" type="line"/>
      <point x="178" y="-3" type="line"/>
      <point x="211" y="-3" type="line"/>
      <point x="236" y="11" type="line"/>
      <point x="252" y="43" type="line"/>
      <point x="253" y="58" type="line"/>
      <point x="255" y="73" type="line"/>
      <point x="243" y="95" type="line"/>
      <point x="218" y="112" type="line"/>
      <point x="183" y="116" type="line"/>
    </contour>
  </outline>
</glyph>
<glyph name="A" format="2">
  <advance width="666"/>
  <unicode hex="0041"/>
  <outline>
    <contour>
      <point x="198" y="-1" type="curve"/>
      <point x="198" y="37" type="line"/>
      <point x="148" y="42"/>
      <point x="140" y="60"/>
      <point x="151" y="97" type="curve" smooth="yes"/>
      <point x="194" y="238"/>
      <point x="244" y="376"/>
      <point x="307" y="526" type="curve"/>
      <point x="322" y="526" type="line"/>
      <point x="380" y="368"/>
      <point x="425" y="242"/>
      <point x="477" y="90" type="curve" smooth="yes"/>
      <point x="487" y="62"/>
      <point x="480" y="46"/>
      <point x="446" y="35" type="curve"/>
      <point x="446" y="0" type="line"/>
      <point x="477" y="3"/>
      <point x="506" y="4"/>
      <point x="544" y="4" type="curve" smooth="yes"/>
      <point x="582" y="4"/>
      <point x="620" y="2"/>
      <point x="651" y="-1" type="curve"/>
      <point x="651" y="37" type="line"/>
      <point x="618" y="41"/>
      <point x="603" y="49"/>
      <point x="590" y="81" type="curve" smooth="yes"/>
      <point x="508" y="283"/>
      <point x="434" y="489"/>
      <point x="364" y="700" type="curve"/>
      <point x="315" y="700" type="line"/>
      <point x="242" y="494"/>
      <point x="164" y="297"/>
      <point x="81" y="100" type="curve" smooth="yes"/>
      <point x="65" y="63"/>
      <point x="40" y="50"/>
      <point x="5" y="40" type="curve"/>
      <point x="5" y="0" type="line"/>
      <point x="36" y="3"/>
      <point x="63" y="4"/>
      <point x="101" y="4" type="curve" smooth="yes"/>
      <point x="139" y="4"/>
      <point x="167" y="2"/>
    </contour>
    <contour>
      <point x="178" y="208" type="line"/>
      <point x="448" y="208" type="line"/>
      <point x="448" y="254" type="line"/>
      <point x="178" y="254" type="line"/>
    </contour>
  </outline>
</glyph>
<glyph name="B" format="2">
  <advance width="550"/>
  <unicode hex="0042"/>
  <outline>
    <contour>
      <point x="49.0" y="0.0" type="line"/>
      <point x="80.0" y="3.0"/>
      <point x="105.0" y="4.0"/>
      <point x="133.0" y="4.0" type="curve" smooth="yes"/>
      <point x="188.0" y="4.0"/>
      <point x="231.0" y="0.0"/>
      <point x="261.0" y="0.0" type="curve" smooth="yes"/>
      <point x="362.0" y="0.0"/>
      <point x="504.0" y="49.0"/>
      <point x="504.0" y="189.0" type="curve" smooth="yes"/>
      <point x="504.0" y="291.0"/>
      <point x="428.0" y="342.0"/>
      <point x="365.0" y="362.0" type="curve"/>
      <point x="365.0" y="379.0" type="line"/>
      <point x="425.0" y="413.0"/>
      <point x="486.0" y="466.0"/>
      <point x="486.0" y="542.0" type="curve" smooth="yes"/>
      <point x="486.0" y="632.0"/>
      <point x="400.0" y="704.0"/>
      <point x="273.0" y="704.0" type="curve" smooth="yes"/>
      <point x="231.0" y="704.0"/>
      <point x="192.0" y="696.0"/>
      <point x="120.0" y="696.0" type="curve" smooth="yes"/>
      <point x="95.0" y="696.0"/>
      <point x="68.0" y="697.0"/>
      <point x="37.0" y="700.0" type="curve"/>
      <point x="37.0" y="665.0" type="line"/>
      <point x="72.0" y="648.0"/>
      <point x="88.0" y="632.0"/>
      <point x="90.0" y="593.0" type="curve" smooth="yes"/>
      <point x="98.0" y="440.0"/>
      <point x="99.0" y="281.0"/>
      <point x="99.0" y="122.0" type="curve" smooth="yes"/>
      <point x="99.0" y="80.0"/>
      <point x="84.0" y="47.0"/>
      <point x="49.0" y="37.0" type="curve"/>
    </contour>
    <contour>
      <point x="253.0" y="46.0" type="curve" smooth="yes"/>
      <point x="189.0" y="46.0"/>
      <point x="176.0" y="78.0"/>
      <point x="177.0" y="114.0" type="curve" smooth="yes"/>
      <point x="183.0" y="318.0" type="line"/>
      <point x="204.0" y="337.0" type="line"/>
      <point x="243.0" y="337.0" type="line" smooth="yes"/>
      <point x="313.0" y="337.0"/>
      <point x="403.0" y="304.0"/>
      <point x="403.0" y="186.0" type="curve" smooth="yes"/>
      <point x="403.0" y="61.0"/>
      <point x="298.0" y="46.0"/>
    </contour>
    <contour>
      <point x="201.0" y="381.0" type="curve"/>
      <point x="183.0" y="396.0" type="line"/>
      <point x="192.0" y="612.0" type="line" smooth="yes"/>
      <point x="193.0" y="641.0"/>
      <point x="214.0" y="658.0"/>
      <point x="258.0" y="658.0" type="curve" smooth="yes"/>
      <point x="324.0" y="658.0"/>
      <point x="384.0" y="620.0"/>
      <point x="384.0" y="529.0" type="curve" smooth="yes"/>
      <point x="384.0" y="440.0"/>
      <point x="328.0" y="381.0"/>
    </contour>
  </outline>
</glyph>
<glyph name="C" format="2">
  <advance width="709"/>
  <unicode hex="0043"/>
  <outline>
    <contour>
      <point x="421.0" y="40.0" type="curve" smooth="yes"/>
      <point x="279.0" y="40.0"/>
      <point x="162.0" y="152.0"/>
      <point x="162.0" y="348.0" type="curve" smooth="yes"/>
      <point x="162.0" y="535.0"/>
      <point x="271.0" y="656.0"/>
      <point x="428.0" y="656.0" type="curve" smooth="yes"/>
      <point x="545.0" y="656.0"/>
      <point x="593.0" y="587.0"/>
      <point x="632.0" y="519.0" type="curve"/>
      <point x="671.0" y="519.0" type="line"/>
      <point x="649.0" y="679.0" type="line"/>
      <point x="620.0" y="681.0" type="line"/>
      <point x="609.0" y="676.0"/>
      <point x="595.0" y="674.0"/>
      <point x="582.0" y="676.0" type="curve" smooth="yes"/>
      <point x="558.0" y="680.0"/>
      <point x="505.0" y="702.0"/>
      <point x="422.0" y="702.0" type="curve" smooth="yes"/>
      <point x="210.0" y="702.0"/>
      <point x="50.0" y="560.0"/>
      <point x="50.0" y="345.0" type="curve" smooth="yes"/>
      <point x="50.0" y="111.0"/>
      <point x="234.0" y="-8.0"/>
      <point x="428.0" y="-8.0" type="curve" smooth="yes"/>
      <point x="503.0" y="-8.0"/>
      <point x="573.0" y="10.0"/>
      <point x="646.0" y="34.0" type="curve"/>
      <point x="668.0" y="165.0" type="line"/>
      <point x="631.0" y="165.0" type="line"/>
      <point x="595.0" y="86.0"/>
      <point x="513.0" y="40.0"/>
    </contour>
  </outline>
</glyph>
<glyph name="D" format="2">
  <advance width="782"/>
  <unicode hex="0044"/>
  <outline>
    <contour>
      <point x="250" y="706" type="line"/>
      <point x="179" y="699" type="line"/>
      <point x="46" y="699" type="line"/>
      <point x="32" y="689" type="line"/>
      <point x="32" y="677" type="line"/>
      <point x="41" y="659" type="line"/>
      <point x="71" y="647" type="line"/>
      <point x="91" y="633" type="line"/>
      <point x="98" y="612" type="line"/>
      <point x="99" y="346" type="line"/>
      <point x="100" y="80" type="line"/>
      <point x="92" y="56" type="line"/>
      <point x="79" y="45" type="line"/>
      <point x="43" y="35" type="line"/>
      <point x="35" y="28" type="line"/>
      <point x="35" y="17" type="line"/>
      <point x="51" y="0" type="line"/>
      <point x="126" y="5" type="line"/>
      <point x="335" y="-3" type="line"/>
      <point x="416" y="4" type="line"/>
      <point x="480" y="19" type="line"/>
      <point x="527" y="36" type="line"/>
      <point x="577" y="62" type="line"/>
      <point x="611" y="84" type="line"/>
      <point x="660" y="133" type="line"/>
      <point x="685" y="170" type="line"/>
      <point x="711" y="220" type="line"/>
      <point x="724" y="258" type="line"/>
      <point x="733" y="315" type="line"/>
      <point x="737" y="359" type="line"/>
      <point x="730" y="432" type="line"/>
      <point x="721" y="470" type="line"/>
      <point x="699" y="527" type="line"/>
      <point x="668" y="574" type="line"/>
      <point x="628" y="616" type="line"/>
      <point x="584" y="648" type="line"/>
      <point x="520" y="680" type="line"/>
      <point x="463" y="696" type="line"/>
      <point x="374" y="709" type="line"/>
      <point x="261" y="708" type="line"/>
    </contour>
    <contour>
      <point x="362" y="663" type="line"/>
      <point x="403" y="658" type="line"/>
      <point x="452" y="646" type="line"/>
      <point x="500" y="623" type="line"/>
      <point x="539" y="595" type="line"/>
      <point x="562" y="571" type="line"/>
      <point x="597" y="519" type="line"/>
      <point x="616" y="473" type="line"/>
      <point x="631" y="419" type="line"/>
      <point x="631" y="312" type="line"/>
      <point x="616" y="248" type="line"/>
      <point x="604" y="211" type="line"/>
      <point x="578" y="167" type="line"/>
      <point x="553" y="135" type="line"/>
      <point x="503" y="90" type="line"/>
      <point x="450" y="60" type="line"/>
      <point x="375" y="41" type="line"/>
      <point x="253" y="38" type="line"/>
      <point x="224" y="46" type="line"/>
      <point x="203" y="65" type="line"/>
      <point x="193" y="98" type="line"/>
      <point x="195" y="297" type="line"/>
      <point x="196" y="495" type="line"/>
      <point x="202" y="622" type="line"/>
      <point x="211" y="641" type="line"/>
      <point x="223" y="651" type="line"/>
      <point x="243" y="661" type="line"/>
      <point x="267" y="667" type="line"/>
      <point x="321" y="667" type="line"/>
    </contour>
  </outline>
</glyph>
<glyph name="E" format="2">
  <advance width="646"/>
  <unicode hex="0045"/>
  <outline>
    <contour>
      <point x="499" y="285" type="curve"/>
      <point x="533" y="285" type="line"/>
      <point x="530" y="313"/>
      <point x="529" y="340"/>
      <point x="529" y="364" type="curve" smooth="yes"/>
      <point x="529" y="388"/>
      <point x="531" y="416"/>
      <point x="534" y="444" type="curve"/>
      <point x="498" y="444" type="line"/>
      <point x="490" y="399"/>
      <point x="475" y="386"/>
      <point x="450" y="386" type="curve" smooth="yes"/>
      <point x="224" y="386" type="line"/>
      <point x="224" y="340" type="line"/>
      <point x="450" y="338" type="line" smooth="yes"/>
      <point x="474" y="338"/>
      <point x="491" y="332"/>
    </contour>
    <contour>
      <point x="79" y="0" type="line"/>
      <point x="116" y="4"/>
      <point x="148" y="5"/>
      <point x="209" y="5" type="curve"/>
      <point x="421" y="5"/>
      <point x="494" y="2"/>
      <point x="528" y="-9" type="curve"/>
      <point x="546" y="-9" type="line"/>
      <point x="555" y="39"/>
      <point x="569" y="86"/>
      <point x="586" y="134" type="curve"/>
      <point x="541" y="134" type="line"/>
      <point x="517" y="64"/>
      <point x="494" y="51"/>
      <point x="434" y="51" type="curve" smooth="yes"/>
      <point x="355" y="51" type="line" smooth="yes"/>
      <point x="243" y="51"/>
      <point x="228" y="56"/>
      <point x="228" y="89" type="curve" smooth="yes"/>
      <point x="227" y="245"/>
      <point x="228" y="433"/>
      <point x="231" y="617" type="curve" smooth="yes"/>
      <point x="232" y="645"/>
      <point x="244.0" y="651.0"/>
      <point x="348" y="651" type="curve" smooth="yes"/>
      <point x="431" y="651" type="line" smooth="yes"/>
      <point x="491" y="651"/>
      <point x="504" y="628"/>
      <point x="521" y="568" type="curve"/>
      <point x="556" y="568" type="line"/>
      <point x="552" y="616"/>
      <point x="552" y="663"/>
      <point x="556" y="711" type="curve"/>
      <point x="536" y="711" type="line"/>
      <point x="502" y="700"/>
      <point x="423" y="697"/>
      <point x="209" y="697" type="curve"/>
      <point x="145" y="697"/>
      <point x="110" y="699"/>
      <point x="70" y="703" type="curve"/>
      <point x="70" y="663" type="line"/>
      <point x="106" y="657"/>
      <point x="120" y="649"/>
      <point x="121" y="621" type="curve" smooth="yes"/>
      <point x="129" y="442"/>
      <point x="130" y="264"/>
      <point x="130" y="85" type="curve" smooth="yes"/>
      <point x="130" y="53"/>
      <point x="113" y="47"/>
      <point x="79" y="40" type="curve"/>
    </contour>
  </outline>
</glyph>
<glyph name="F" format="2">
  <advance width="533"/>
  <unicode hex="0046"/>
  <outline>
    <contour>
      <point x="444" y="264" type="curve"/>
      <point x="478" y="264" type="line"/>
      <point x="475" y="292"/>
      <point x="474" y="319"/>
      <point x="474" y="343" type="curve" smooth="yes"/>
      <point x="474" y="367"/>
      <point x="476" y="395"/>
      <point x="479" y="423" type="curve"/>
      <point x="443" y="423" type="line"/>
      <point x="435" y="378"/>
      <point x="420" y="365"/>
      <point x="395" y="365" type="curve" smooth="yes"/>
      <point x="169" y="365" type="line"/>
      <point x="169" y="319" type="line"/>
      <point x="395" y="317" type="line" smooth="yes"/>
      <point x="419" y="317"/>
      <point x="436" y="311"/>
    </contour>
    <contour>
      <point x="55" y="0" type="line"/>
      <point x="92" y="5"/>
      <point x="124" y="7"/>
      <point x="155" y="7" type="curve" smooth="yes"/>
      <point x="186" y="7"/>
      <point x="218" y="5"/>
      <point x="255" y="0" type="curve"/>
      <point x="255" y="40" type="line"/>
      <point x="221" y="47"/>
      <point x="199" y="53"/>
      <point x="199" y="85" type="curve" smooth="yes"/>
      <point x="199" y="223"/>
      <point x="203" y="420"/>
      <point x="207" y="617" type="curve" smooth="yes"/>
      <point x="208" y="645"/>
      <point x="220.0" y="651.0"/>
      <point x="324" y="651" type="curve" smooth="yes"/>
      <point x="376" y="651" type="line" smooth="yes"/>
      <point x="436" y="651"/>
      <point x="449" y="628"/>
      <point x="466" y="568" type="curve"/>
      <point x="501" y="568" type="line"/>
      <point x="497" y="616"/>
      <point x="497" y="663"/>
      <point x="501" y="711" type="curve"/>
      <point x="481" y="711" type="line"/>
      <point x="447" y="700"/>
      <point x="399" y="697"/>
      <point x="185" y="697" type="curve" smooth="yes"/>
      <point x="121" y="697"/>
      <point x="86" y="699"/>
      <point x="46" y="703" type="curve"/>
      <point x="46" y="663" type="line"/>
      <point x="82" y="657"/>
      <point x="96" y="649"/>
      <point x="97" y="621" type="curve" smooth="yes"/>
      <point x="105" y="442"/>
      <point x="106" y="264"/>
      <point x="106" y="85" type="curve" smooth="yes"/>
      <point x="106" y="53"/>
      <point x="89" y="47"/>
      <point x="55" y="40" type="curve"/>
    </contour>
  </outline>
</glyph>
<glyph name="G" format="2">
  <advance width="812"/>
  <unicode hex="0047"/>
  <outline>
    <contour>
      <point x="468" y="-8" type="curve" smooth="yes"/>
      <point x="553" y="-8"/>
      <point x="648" y="13"/>
      <point x="738" y="57" type="curve"/>
      <point x="738" y="195" type="line" smooth="yes"/>
      <point x="738.0" y="223.0"/>
      <point x="753" y="231"/>
      <point x="789" y="237" type="curve"/>
      <point x="789" y="277" type="line"/>
      <point x="749" y="273"/>
      <point x="724" y="271"/>
      <point x="693" y="271" type="curve"/>
      <point x="662" y="271"/>
      <point x="637" y="273"/>
      <point x="597" y="277" type="curve"/>
      <point x="597" y="237" type="line"/>
      <point x="633" y="231"/>
      <point x="647.0" y="223.0"/>
      <point x="647" y="195" type="curve" smooth="yes"/>
      <point x="647" y="94" type="line"/>
      <point x="612" y="55"/>
      <point x="562" y="38"/>
      <point x="481" y="38" type="curve" smooth="yes"/>
      <point x="339" y="38"/>
      <point x="178" y="152"/>
      <point x="178" y="348" type="curve" smooth="yes"/>
      <point x="178" y="537"/>
      <point x="291" y="660"/>
      <point x="448" y="660" type="curve" smooth="yes"/>
      <point x="585" y="660"/>
      <point x="631" y="594"/>
      <point x="665" y="526" type="curve"/>
      <point x="704" y="526" type="line"/>
      <point x="696" y="581"/>
      <point x="691" y="637"/>
      <point x="689" y="690" type="curve"/>
      <point x="660" y="692" type="line"/>
      <point x="649" y="683"/>
      <point x="635" y="681"/>
      <point x="622" y="683" type="curve" smooth="yes"/>
      <point x="598" y="687"/>
      <point x="545" y="709"/>
      <point x="442" y="709" type="curve" smooth="yes"/>
      <point x="230" y="709"/>
      <point x="70" y="560"/>
      <point x="70" y="345" type="curve" smooth="yes"/>
      <point x="70" y="111"/>
      <point x="274" y="-8"/>
    </contour>
  </outline>
</glyph>
<glyph name="I" format="2">
  <advance width="358"/>
  <unicode hex="0049"/>
  <outline>
    <contour>
      <point x="79" y="0" type="line"/>
      <point x="116" y="5"/>
      <point x="148" y="7"/>
      <point x="179" y="7" type="curve" smooth="yes"/>
      <point x="210" y="7"/>
      <point x="242" y="5"/>
      <point x="279" y="0" type="curve"/>
      <point x="279" y="40" type="line"/>
      <point x="245" y="47"/>
      <point x="228" y="53"/>
      <point x="228" y="85" type="curve" smooth="yes"/>
      <point x="228" y="264"/>
      <point x="229" y="442"/>
      <point x="237" y="621" type="curve" smooth="yes"/>
      <point x="238" y="649"/>
      <point x="252" y="657"/>
      <point x="288" y="663" type="curve"/>
      <point x="288" y="703" type="line"/>
      <point x="248" y="699"/>
      <point x="213" y="697"/>
      <point x="179" y="697" type="curve" smooth="yes"/>
      <point x="145" y="697"/>
      <point x="110" y="699"/>
      <point x="70" y="703" type="curve"/>
      <point x="70" y="663" type="line"/>
      <point x="106" y="657"/>
      <point x="120" y="649"/>
      <point x="121" y="621" type="curve" smooth="yes"/>
      <point x="129" y="442"/>
      <point x="130" y="264"/>
      <point x="130" y="85" type="curve" smooth="yes"/>
      <point x="130" y="53"/>
      <point x="113" y="47"/>
      <point x="79" y="40" type="curve"/>
    </contour>
  </outline>
</glyph>
<glyph name="J" format="2">
  <advance width="311"/>
  <unicode hex="004A"/>
  <outline>
    <contour>
      <point x="61" y="692" type="line"/>
      <point x="57" y="683" type="line"/>
      <point x="64" y="668" type="line"/>
      <point x="106" y="648" type="line"/>
      <point x="114" y="635" type="line"/>
      <point x="116" y="622" type="line"/>
      <point x="118" y="609" type="line"/>
      <point x="120" y="479" type="line"/>
      <point x="121" y="348" type="line"/>
      <point x="123" y="246" type="line"/>
      <point x="125" y="143" type="line"/>
      <point x="125" y="81" type="line"/>
      <point x="125" y="19" type="line"/>
      <point x="114" y="-28" type="line"/>
      <point x="81" y="-60" type="line"/>
      <point x="57" y="-61" type="line"/>
      <point x="28" y="-59" type="line"/>
      <point x="-5" y="-41" type="line"/>
      <point x="-23" y="-41" type="line"/>
      <point x="-33" y="-45" type="line"/>
      <point x="-47" y="-69" type="line"/>
      <point x="-52" y="-69" type="line"/>
      <point x="-65" y="-94" type="line"/>
      <point x="-65" y="-113" type="line"/>
      <point x="-49" y="-125" type="line"/>
      <point x="-8" y="-133" type="line"/>
      <point x="44" y="-129" type="line"/>
      <point x="82" y="-116" type="line"/>
      <point x="111" y="-101" type="line"/>
      <point x="162" y="-46" type="line"/>
      <point x="197" y="22" type="line"/>
      <point x="197" y="39" type="line"/>
      <point x="209" y="83" type="line"/>
      <point x="216" y="141" type="line"/>
      <point x="220" y="493" type="line"/>
      <point x="220" y="554" type="line"/>
      <point x="220" y="616" type="line"/>
      <point x="235" y="645" type="line"/>
      <point x="266" y="659" type="line"/>
      <point x="275" y="672" type="line"/>
      <point x="279" y="688" type="line"/>
      <point x="269" y="701" type="line"/>
      <point x="65" y="701" type="line"/>
    </contour>
  </outline>
</glyph>
<glyph name="K" format="2">
  <advance width="644"/>
  <unicode hex="004B"/>
  <outline>
    <contour>
      <point x="181.0" y="350.0" type="line"/>
      <point x="176.0" y="258.0" type="line"/>
      <point x="323.0" y="397.0" type="line"/>
      <point x="537.0" y="615.0" type="line" smooth="yes"/>
      <point x="562.0" y="640.0"/>
      <point x="591.0" y="653.0"/>
      <point x="630.0" y="665.0" type="curve"/>
      <point x="630.0" y="700.0" type="line"/>
      <point x="599.0" y="697.0"/>
      <point x="572.0" y="695.0"/>
      <point x="534.0" y="695.0" type="curve" smooth="yes"/>
      <point x="496.0" y="695.0"/>
      <point x="468.0" y="697.0"/>
      <point x="437.0" y="700.0" type="curve"/>
      <point x="437.0" y="677.0" type="line"/>
      <point x="457.0" y="666.0"/>
      <point x="465.0" y="651.0"/>
      <point x="465.0" y="636.0" type="curve" smooth="yes"/>
      <point x="465.0" y="621.0"/>
      <point x="458.0" y="606.0"/>
      <point x="447.0" y="593.0" type="curve" smooth="yes"/>
      <point x="374.0" y="508.0"/>
      <point x="297.0" y="430.0"/>
      <point x="216.0" y="350.0" type="curve"/>
    </contour>
    <contour>
      <point x="53.0" y="0.0" type="line"/>
      <point x="84.0" y="3.0"/>
      <point x="109.0" y="4.0"/>
      <point x="142.0" y="4.0" type="curve" smooth="yes"/>
      <point x="175.0" y="4.0"/>
      <point x="200.0" y="3.0"/>
      <point x="231.0" y="0.0" type="curve"/>
      <point x="231.0" y="37.0" type="line"/>
      <point x="196.0" y="47.0"/>
      <point x="181.0" y="80.0"/>
      <point x="182.0" y="122.0" type="curve" smooth="yes"/>
      <point x="186.0" y="281.0"/>
      <point x="188.0" y="440.0"/>
      <point x="196.0" y="593.0" type="curve" smooth="yes"/>
      <point x="198.0" y="632.0"/>
      <point x="208.0" y="648.0"/>
      <point x="243.0" y="665.0" type="curve"/>
      <point x="243.0" y="700.0" type="line"/>
      <point x="212.0" y="697.0"/>
      <point x="185.0" y="696.0"/>
      <point x="142.0" y="696.0" type="curve" smooth="yes"/>
      <point x="99.0" y="696.0"/>
      <point x="72.0" y="697.0"/>
      <point x="41.0" y="700.0" type="curve"/>
      <point x="41.0" y="665.0" type="line"/>
      <point x="76.0" y="648.0"/>
      <point x="86.0" y="632.0"/>
      <point x="89.0" y="593.0" type="curve" smooth="yes"/>
      <point x="101.0" y="440.0"/>
      <point x="98.0" y="281.0"/>
      <point x="102.0" y="122.0" type="curve" smooth="yes"/>
      <point x="103.0" y="80.0"/>
      <point x="88.0" y="47.0"/>
      <point x="53.0" y="37.0" type="curve"/>
    </contour>
    <contour>
      <point x="446.0" y="0.0" type="line"/>
      <point x="472.0" y="3.0"/>
      <point x="500.0" y="5.0"/>
      <point x="538.0" y="5.0" type="curve" smooth="yes"/>
      <point x="576.0" y="5.0"/>
      <point x="603.0" y="3.0"/>
      <point x="634.0" y="0.0" type="curve"/>
      <point x="634.0" y="30.0" type="line"/>
      <point x="595.0" y="42.0"/>
      <point x="569.0" y="65.0"/>
      <point x="541.0" y="99.0" type="curve" smooth="yes"/>
      <point x="305.0" y="383.0" type="line"/>
      <point x="237.0" y="320.0" type="line"/>
      <point x="312.0" y="243.0"/>
      <point x="392.0" y="150.0"/>
      <point x="459.0" y="63.0" type="curve" smooth="yes"/>
      <point x="473.0" y="44.0"/>
      <point x="465.0" y="28.0"/>
      <point x="446.0" y="23.0" type="curve"/>
    </contour>
  </outline>
</glyph>
<glyph name="L" format="2">
  <advance width="615"/>
  <unicode hex="004C"/>
  <outline>
    <contour>
      <point x="50" y="0" type="line"/>
      <point x="87" y="4"/>
      <point x="119" y="5"/>
      <point x="180" y="5" type="curve"/>
      <point x="392" y="5"/>
      <point x="509" y="2"/>
      <point x="543" y="-9" type="curve"/>
      <point x="561" y="-9" type="line"/>
      <point x="570" y="39"/>
      <point x="584" y="86"/>
      <point x="601" y="134" type="curve"/>
      <point x="566" y="144" type="line"/>
      <point x="532" y="74"/>
      <point x="499" y="57"/>
      <point x="439" y="56" type="curve" smooth="yes"/>
      <point x="333" y="54" type="line" smooth="yes"/>
      <point x="218" y="52"/>
      <point x="204" y="57"/>
      <point x="203" y="90" type="curve" smooth="yes"/>
      <point x="200.0" y="258"/>
      <point x="197" y="455"/>
      <point x="202" y="621" type="curve" smooth="yes"/>
      <point x="203" y="649"/>
      <point x="217" y="657"/>
      <point x="253" y="663" type="curve"/>
      <point x="253" y="703" type="line"/>
      <point x="213" y="699"/>
      <point x="178" y="697"/>
      <point x="147" y="697" type="curve"/>
      <point x="116" y="697"/>
      <point x="81" y="699"/>
      <point x="41" y="703" type="curve"/>
      <point x="41" y="663" type="line"/>
      <point x="77" y="657"/>
      <point x="91" y="649"/>
      <point x="92" y="621" type="curve" smooth="yes"/>
      <point x="100" y="442"/>
      <point x="101" y="264"/>
      <point x="101" y="85" type="curve" smooth="yes"/>
      <point x="101" y="53"/>
      <point x="84" y="47"/>
      <point x="50" y="40" type="curve"/>
    </contour>
  </outline>
</glyph>
<glyph name="M" format="2">
  <advance width="947"/>
  <unicode hex="004D"/>
  <outline>
    <contour>
      <point x="30" y="0" type="curve"/>
      <point x="30" y="33" type="line"/>
      <point x="85" y="42"/>
      <point x="102" y="53"/>
      <point x="105" y="95" type="curve" smooth="yes"/>
      <point x="118" y="313"/>
      <point x="130" y="505"/>
      <point x="140" y="700" type="curve"/>
      <point x="177" y="700" type="line"/>
      <point x="274" y="513"/>
      <point x="375" y="330"/>
      <point x="484" y="153" type="curve"/>
      <point x="499" y="153" type="line"/>
      <point x="589" y="335"/>
      <point x="675" y="517"/>
      <point x="755" y="699" type="curve"/>
      <point x="805" y="699" type="line"/>
      <point x="815" y="507"/>
      <point x="828" y="314"/>
      <point x="841" y="102" type="curve" smooth="yes"/>
      <point x="844" y="59"/>
      <point x="846" y="51"/>
      <point x="892" y="40" type="curve"/>
      <point x="892" y="0" type="line"/>
      <point x="855" y="5"/>
      <point x="824" y="7"/>
      <point x="793" y="7" type="curve" smooth="yes"/>
      <point x="762" y="7"/>
      <point x="729" y="5"/>
      <point x="694" y="0" type="curve"/>
      <point x="694" y="40" type="line"/>
      <point x="739" y="50"/>
      <point x="749" y="56"/>
      <point x="746" y="105" type="curve" smooth="yes"/>
      <point x="739" y="237"/>
      <point x="732" y="361"/>
      <point x="720" y="475" type="curve"/>
      <point x="705" y="475" type="line"/>
      <point x="617" y="295"/>
      <point x="542" y="130"/>
      <point x="486" y="0" type="curve"/>
      <point x="463" y="0" type="line"/>
      <point x="379" y="152"/>
      <point x="287" y="307"/>
      <point x="193" y="459" type="curve"/>
      <point x="178" y="459" type="line"/>
      <point x="167" y="347"/>
      <point x="159" y="232"/>
      <point x="153" y="97" type="curve" smooth="yes"/>
      <point x="151" y="58"/>
      <point x="163" y="41"/>
      <point x="218" y="33" type="curve"/>
      <point x="218" y="0" type="line"/>
      <point x="183" y="5"/>
      <point x="155" y="7"/>
      <point x="124" y="7" type="curve" smooth="yes"/>
      <point x="93" y="7"/>
      <point x="65" y="5"/>
    </contour>
  </outline>
</glyph>
<glyph name="N" format="2">
  <advance width="801"/>
  <unicode hex="004E"/>
  <outline>
    <contour>
      <point x="34" y="0" type="curve"/>
      <point x="34" y="35" type="line"/>
      <point x="68" y="45"/>
      <point x="96" y="54"/>
      <point x="96" y="86" type="curve" smooth="yes"/>
      <point x="99.0" y="700.0" type="line"/>
      <point x="155.0" y="700.0" type="line"/>
      <point x="306" y="521"/>
      <point x="461" y="346"/>
      <point x="620.0" y="177.0" type="curve"/>
      <point x="635.0" y="177.0" type="line"/>
      <point x="639.0" y="323"/>
      <point x="635" y="459"/>
      <point x="632.0" y="605.0" type="curve" smooth="yes"/>
      <point x="631" y="647"/>
      <point x="612.0" y="655.0"/>
      <point x="568.0" y="665.0" type="curve"/>
      <point x="568.0" y="700.0" type="line"/>
      <point x="605.0" y="695.0"/>
      <point x="637.0" y="693.0"/>
      <point x="664.0" y="693.0" type="curve"/>
      <point x="690.0" y="693.0"/>
      <point x="722.0" y="695.0"/>
      <point x="759.0" y="700.0" type="curve"/>
      <point x="759.0" y="665.0" type="line"/>
      <point x="715.0" y="655.0"/>
      <point x="698" y="646"/>
      <point x="697.0" y="604.0" type="curve" smooth="yes"/>
      <point x="693" y="422"/>
      <point x="688" y="204"/>
      <point x="691.0" y="0.0" type="curve"/>
      <point x="635.0" y="0.0" type="line"/>
      <point x="484" y="181"/>
      <point x="329" y="356"/>
      <point x="170.0" y="523.0" type="curve"/>
      <point x="155.0" y="523.0" type="line"/>
      <point x="151.0" y="377"/>
      <point x="151.0" y="231"/>
      <point x="155" y="85" type="curve" smooth="yes"/>
      <point x="156" y="53"/>
      <point x="185" y="45"/>
      <point x="219" y="35" type="curve"/>
      <point x="219" y="0" type="line"/>
      <point x="182" y="5"/>
      <point x="150" y="7"/>
      <point x="126" y="7" type="curve"/>
      <point x="103" y="7"/>
      <point x="71" y="5"/>
    </contour>
  </outline>
</glyph>
<glyph name="O" format="2">
  <advance width="847"/>
  <unicode hex="004F"/>
  <outline>
    <contour>
      <point x="417" y="709" type="curve"/>
      <point x="205" y="709"/>
      <point x="45" y="560"/>
      <point x="45" y="345" type="curve" smooth="yes"/>
      <point x="45" y="111"/>
      <point x="239" y="-8"/>
      <point x="430" y="-8" type="curve"/>
      <point x="642" y="-9"/>
      <point x="802" y="140"/>
      <point x="802" y="355" type="curve" smooth="yes"/>
      <point x="802" y="589"/>
      <point x="608" y="708"/>
    </contour>
    <contour>
      <point x="428" y="48" type="curve"/>
      <point x="287" y="48"/>
      <point x="147" y="152"/>
      <point x="147" y="352" type="curve" smooth="yes"/>
      <point x="147" y="535"/>
      <point x="263" y="652"/>
      <point x="419" y="652" type="curve"/>
      <point x="560" y="652"/>
      <point x="700" y="548"/>
      <point x="700" y="348" type="curve" smooth="yes"/>
      <point x="700" y="165"/>
      <point x="584" y="48"/>
    </contour>
  </outline>
</glyph>
<glyph name="P" format="2">
  <advance width="588"/>
  <unicode hex="0050"/>
  <outline>
    <contour>
      <point x="79" y="0" type="line"/>
      <point x="116" y="5"/>
      <point x="148" y="7"/>
      <point x="179" y="7" type="curve" smooth="yes"/>
      <point x="210" y="7"/>
      <point x="242" y="5"/>
      <point x="279" y="0" type="curve"/>
      <point x="279" y="40" type="line"/>
      <point x="245" y="47"/>
      <point x="228" y="53"/>
      <point x="228" y="85" type="curve" smooth="yes"/>
      <point x="227" y="264"/>
      <point x="227" y="443"/>
      <point x="230" y="595" type="curve" smooth="yes"/>
      <point x="231" y="634"/>
      <point x="252" y="659"/>
      <point x="300" y="659" type="curve" smooth="yes"/>
      <point x="382" y="659"/>
      <point x="443" y="596"/>
      <point x="443" y="496" type="curve" smooth="yes"/>
      <point x="443" y="396"/>
      <point x="382" y="346"/>
      <point x="312" y="346" type="curve" smooth="yes"/>
      <point x="287" y="346"/>
      <point x="252" y="352"/>
      <point x="219" y="365" type="curve"/>
      <point x="219" y="315" type="line"/>
      <point x="261" y="304"/>
      <point x="298" y="299"/>
      <point x="332" y="299" type="curve" smooth="yes"/>
      <point x="432" y="299"/>
      <point x="538" y="368"/>
      <point x="538" y="499" type="curve" smooth="yes"/>
      <point x="538" y="624"/>
      <point x="436" y="705"/>
      <point x="309" y="705" type="curve" smooth="yes"/>
      <point x="267" y="705"/>
      <point x="219" y="697"/>
      <point x="170" y="697" type="curve" smooth="yes"/>
      <point x="142" y="697"/>
      <point x="110" y="699"/>
      <point x="70" y="703" type="curve"/>
      <point x="70" y="663" type="line"/>
      <point x="106" y="657"/>
      <point x="120" y="649"/>
      <point x="121" y="621" type="curve" smooth="yes"/>
      <point x="129" y="442"/>
      <point x="130" y="264"/>
      <point x="130" y="85" type="curve" smooth="yes"/>
      <point x="130" y="53"/>
      <point x="113" y="47"/>
      <point x="79" y="40" type="curve"/>
    </contour>
  </outline>
</glyph>
<glyph name="Q" format="2">
  <advance width="857"/>
  <unicode hex="0051"/>
  <outline>
    <contour>
      <point x="435" y="-8" type="curve" smooth="yes"/>
      <point x="244" y="-8"/>
      <point x="50" y="111"/>
      <point x="50" y="345" type="curve" smooth="yes"/>
      <point x="50" y="560"/>
      <point x="210" y="709"/>
      <point x="422" y="709" type="curve" smooth="yes"/>
      <point x="613" y="709"/>
      <point x="807" y="590"/>
      <point x="807" y="356" type="curve" smooth="yes"/>
      <point x="807" y="141"/>
      <point x="647" y="-8"/>
    </contour>
    <contour>
      <point x="424" y="658" type="curve" smooth="yes"/>
      <point x="271" y="658"/>
      <point x="158" y="535"/>
      <point x="158" y="352" type="curve" smooth="yes"/>
      <point x="158" y="152"/>
      <point x="290" y="38"/>
      <point x="434" y="38" type="curve" smooth="yes"/>
      <point x="587" y="38"/>
      <point x="700" y="166"/>
      <point x="700" y="349" type="curve" smooth="yes"/>
      <point x="700" y="549"/>
      <point x="568" y="658"/>
    </contour>
    <contour>
      <point x="686" y="-153" type="curve" smooth="yes"/>
      <point x="636" y="-153"/>
      <point x="585" y="-144"/>
      <point x="541" y="-111" type="curve" smooth="yes"/>
      <point x="463" y="-53" type="line" smooth="yes"/>
      <point x="439" y="-35"/>
      <point x="400" y="-13"/>
      <point x="327" y="5" type="curve"/>
      <point x="500" y="11" type="line"/>
      <point x="599" y="-68" type="line" smooth="yes"/>
      <point x="652" y="-111"/>
      <point x="712" y="-121"/>
      <point x="778" y="-120" type="curve"/>
      <point x="778" y="-149" type="line"/>
      <point x="744" y="-152"/>
      <point x="720" y="-153"/>
    </contour>
  </outline>
</glyph>
<glyph name="R" format="2">
  <advance width="646"/>
  <unicode hex="0052"/>
  <outline>
    <contour>
      <point x="79" y="0" type="line"/>
      <point x="116" y="5"/>
      <point x="148" y="7"/>
      <point x="179" y="7" type="curve" smooth="yes"/>
      <point x="210" y="7"/>
      <point x="242" y="5"/>
      <point x="279" y="0" type="curve"/>
      <point x="279" y="40" type="line"/>
      <point x="245" y="47"/>
      <point x="228" y="53"/>
      <point x="228" y="85" type="curve" smooth="yes"/>
      <point x="227" y="264"/>
      <point x="227" y="443"/>
      <point x="230" y="595" type="curve" smooth="yes"/>
      <point x="231" y="634"/>
      <point x="252" y="659"/>
      <point x="300" y="659" type="curve" smooth="yes"/>
      <point x="382" y="659"/>
      <point x="453" y="604"/>
      <point x="453" y="506" type="curve" smooth="yes"/>
      <point x="453" y="406"/>
      <point x="371" y="332"/>
      <point x="271" y="332" type="curve" smooth="yes"/>
      <point x="253" y="332"/>
      <point x="232" y="334"/>
      <point x="219" y="335" type="curve"/>
      <point x="222" y="312" type="line"/>
      <point x="322" y="312" type="line"/>
      <point x="422" y="312"/>
      <point x="548" y="378"/>
      <point x="548" y="509" type="curve" smooth="yes"/>
      <point x="548" y="632"/>
      <point x="430" y="704"/>
      <point x="303" y="704" type="curve" smooth="yes"/>
      <point x="261" y="704"/>
      <point x="209" y="697"/>
      <point x="170" y="697" type="curve" smooth="yes"/>
      <point x="142" y="697"/>
      <point x="110" y="699"/>
      <point x="70" y="703" type="curve"/>
      <point x="70" y="663" type="line"/>
      <point x="106" y="657"/>
      <point x="120" y="649"/>
      <point x="121" y="621" type="curve" smooth="yes"/>
      <point x="129" y="442"/>
      <point x="130" y="264"/>
      <point x="130" y="85" type="curve" smooth="yes"/>
      <point x="130" y="53"/>
      <point x="113" y="47"/>
      <point x="79" y="40" type="curve"/>
    </contour>
    <contour>
      <point x="435" y="82"/>
      <point x="450" y="41"/>
      <point x="453" y="0" type="curve"/>
      <point x="471" y="2"/>
      <point x="499" y="5"/>
      <point x="520" y="5" type="curve" smooth="yes"/>
      <point x="558" y="5"/>
      <point x="585" y="3"/>
      <point x="616" y="0" type="curve"/>
      <point x="616" y="36" type="line"/>
      <point x="577" y="43"/>
      <point x="546" y="56"/>
      <point x="515" y="113" type="curve" smooth="yes"/>
      <point x="479" y="177"/>
      <point x="435" y="249"/>
      <point x="375" y="302" type="curve"/>
      <point x="375" y="320" type="line"/>
      <point x="218" y="319" type="line"/>
      <point x="217" y="286" type="line"/>
      <point x="227" y="289"/>
      <point x="239" y="290"/>
      <point x="249" y="290" type="curve" smooth="yes"/>
      <point x="302" y="290"/>
      <point x="352" y="208"/>
      <point x="385" y="158" type="curve" smooth="yes"/>
    </contour>
  </outline>
</glyph>
<glyph name="S" format="2">
  <advance width="573"/>
  <unicode hex="0053"/>
  <outline>
    <contour>
      <point x="319" y="707" type="line"/>
      <point x="282" y="705" type="line"/>
      <point x="231" y="694" type="line"/>
      <point x="188" y="679" type="line"/>
      <point x="143" y="652" type="line"/>
      <point x="113" y="626" type="line"/>
      <point x="91" y="594" type="line"/>
      <point x="73" y="557" type="line"/>
      <point x="65" y="522" type="line"/>
      <point x="67" y="473" type="line"/>
      <point x="76" y="437" type="line"/>
      <point x="97" y="398" type="line"/>
      <point x="120" y="366" type="line"/>
      <point x="154" y="335" type="line"/>
      <point x="206" y="309" type="line"/>
      <point x="254" y="295" type="line"/>
      <point x="298" y="282" type="line"/>
      <point x="336" y="269" type="line"/>
      <point x="363" y="255" type="line"/>
      <point x="384" y="239" type="line"/>
      <point x="402" y="221" type="line"/>
      <point x="417" y="187" type="line"/>
      <point x="420" y="152" type="line"/>
      <point x="413" y="116" type="line"/>
      <point x="392" y="84" type="line"/>
      <point x="368" y="63" type="line"/>
      <point x="340" y="49" type="line"/>
      <point x="307" y="40" type="line"/>
      <point x="244" y="41" type="line"/>
      <point x="207" y="51" type="line"/>
      <point x="177" y="67" type="line"/>
      <point x="155" y="86" type="line"/>
      <point x="137" y="105" type="line"/>
      <point x="125" y="128" type="line"/>
      <point x="114" y="146" type="line"/>
      <point x="102" y="153" type="line"/>
      <point x="90" y="155" type="line"/>
      <point x="75" y="147" type="line"/>
      <point x="68" y="136" type="line"/>
      <point x="69" y="107" type="line"/>
      <point x="72" y="66" type="line"/>
      <point x="75" y="30" type="line"/>
      <point x="80" y="19" type="line"/>
      <point x="91" y="10" type="line"/>
      <point x="114" y="7" type="line"/>
      <point x="143" y="4" type="line"/>
      <point x="167" y="-2" type="line"/>
      <point x="211" y="-8" type="line"/>
      <point x="249" y="-9" type="line"/>
      <point x="298" y="-6" type="line"/>
      <point x="340" y="1" type="line"/>
      <point x="386" y="13" type="line"/>
      <point x="420" y="30" type="line"/>
      <point x="449" y="51" type="line"/>
      <point x="472" y="77" type="line"/>
      <point x="489" y="107" type="line"/>
      <point x="504" y="145" type="line"/>
      <point x="509" y="185" type="line"/>
      <point x="505" y="236" type="line"/>
      <point x="484" y="284" type="line"/>
      <point x="463" y="312" type="line"/>
      <point x="430" y="342" type="line"/>
      <point x="394" y="363" type="line"/>
      <point x="348" y="380" type="line"/>
      <point x="282" y="402" type="line"/>
      <point x="241" y="419" type="line"/>
      <point x="216" y="434" type="line"/>
      <point x="192" y="458" type="line"/>
      <point x="174" y="486" type="line"/>
      <point x="165" y="536" type="line"/>
      <point x="174" y="575" type="line"/>
      <point x="195" y="608" type="line"/>
      <point x="231" y="635" type="line"/>
      <point x="265" y="644" type="line"/>
      <point x="299" y="650" type="line"/>
      <point x="356" y="648" type="line"/>
      <point x="388" y="640" type="line"/>
      <point x="419" y="622" type="line"/>
      <point x="440" y="605" type="line"/>
      <point x="450" y="585" type="line"/>
      <point x="462" y="567" type="line"/>
      <point x="472" y="552" type="line"/>
      <point x="486" y="546" type="line"/>
      <point x="499" y="546" type="line"/>
      <point x="505" y="553" type="line"/>
      <point x="508" y="569" type="line"/>
      <point x="511" y="612" type="line"/>
      <point x="513" y="670" type="line"/>
      <point x="500" y="683" type="line"/>
      <point x="477" y="689" type="line"/>
      <point x="437" y="694" type="line"/>
      <point x="407" y="697" type="line"/>
      <point x="390" y="701" type="line"/>
      <point x="355" y="706" type="line"/>
      <point x="332" y="707" type="line"/>
    </contour>
  </outline>
</glyph>
<glyph name="T" format="2">
  <advance width="683"/>
  <unicode hex="0054"/>
  <outline>
    <contour>
      <point x="223" y="0" type="line"/>
      <point x="270" y="5"/>
      <point x="302" y="6"/>
      <point x="333" y="6" type="curve" smooth="yes"/>
      <point x="364" y="6"/>
      <point x="396" y="5"/>
      <point x="443" y="0" type="curve"/>
      <point x="443" y="40" type="line"/>
      <point x="399" y="49"/>
      <point x="382" y="57"/>
      <point x="382" y="89" type="curve"/>
      <point x="382" y="268"/>
      <point x="381" y="442"/>
      <point x="391" y="611" type="curve" smooth="yes"/>
      <point x="393" y="636"/>
      <point x="406" y="644"/>
      <point x="437" y="644" type="curve" smooth="yes"/>
      <point x="565" y="644" type="line" smooth="yes"/>
      <point x="605" y="644"/>
      <point x="621" y="621"/>
      <point x="628" y="551" type="curve"/>
      <point x="673" y="551" type="line"/>
      <point x="673" y="711" type="line"/>
      <point x="643" y="711" type="line"/>
      <point x="632" y="700"/>
      <point x="619" y="697"/>
      <point x="591" y="697" type="curve" smooth="yes"/>
      <point x="92" y="697" type="line" smooth="yes"/>
      <point x="64" y="697"/>
      <point x="51" y="700"/>
      <point x="40" y="711" type="curve"/>
      <point x="10" y="711" type="line"/>
      <point x="10" y="551" type="line"/>
      <point x="55" y="551" type="line"/>
      <point x="62" y="621"/>
      <point x="78" y="644"/>
      <point x="118" y="644" type="curve" smooth="yes"/>
      <point x="227" y="644" type="line" smooth="yes"/>
      <point x="262" y="644"/>
      <point x="274" y="636"/>
      <point x="275" y="611" type="curve" smooth="yes"/>
      <point x="283" y="442"/>
      <point x="284" y="268"/>
      <point x="284" y="89" type="curve"/>
      <point x="284" y="57"/>
      <point x="267" y="49"/>
      <point x="223" y="40" type="curve"/>
    </contour>
  </outline>
</glyph>
<glyph name="U" format="2">
  <advance width="833"/>
  <unicode hex="0055"/>
  <outline>
    <contour>
      <point x="672" y="3" type="curve" smooth="yes"/>
      <point x="707" y="3"/>
      <point x="729" y="2"/>
      <point x="756" y="0" type="curve"/>
      <point x="756" y="40" type="line"/>
      <point x="722" y="47"/>
      <point x="705" y="53"/>
      <point x="705" y="85" type="curve" smooth="yes"/>
      <point x="705" y="264"/>
      <point x="706" y="442"/>
      <point x="712" y="621" type="curve" smooth="yes"/>
      <point x="713" y="649"/>
      <point x="727" y="657"/>
      <point x="763" y="663" type="curve"/>
      <point x="763" y="703" type="line"/>
      <point x="723" y="699"/>
      <point x="690" y="697"/>
      <point x="656" y="697" type="curve" smooth="yes"/>
      <point x="622" y="697"/>
      <point x="589" y="699"/>
      <point x="549" y="703" type="curve"/>
      <point x="549" y="663" type="line"/>
      <point x="585" y="657"/>
      <point x="599" y="649"/>
      <point x="600" y="621" type="curve" smooth="yes"/>
      <point x="606" y="442"/>
      <point x="607" y="264"/>
      <point x="603" y="0" type="curve"/>
      <point x="621" y="2"/>
      <point x="640" y="3"/>
    </contour>
    <contour>
      <point x="355" y="-5" type="curve" smooth="yes"/>
      <point x="440" y="-5"/>
      <point x="507" y="31"/>
      <point x="591" y="97" type="curve"/>
      <point x="609" y="87" type="line"/>
      <point x="619" y="198" type="line"/>
      <point x="563" y="115"/>
      <point x="480" y="70"/>
      <point x="391" y="70" type="curve" smooth="yes"/>
      <point x="251" y="70"/>
      <point x="220" y="169"/>
      <point x="222" y="305" type="curve" smooth="yes"/>
      <point x="227" y="621" type="line" smooth="yes"/>
      <point x="227" y="649"/>
      <point x="243" y="657"/>
      <point x="279" y="663" type="curve"/>
      <point x="279" y="703" type="line"/>
      <point x="239" y="699"/>
      <point x="206" y="697"/>
      <point x="172" y="697" type="curve" smooth="yes"/>
      <point x="138" y="697"/>
      <point x="105" y="699"/>
      <point x="65" y="703" type="curve"/>
      <point x="65" y="663" type="line"/>
      <point x="101" y="657"/>
      <point x="117" y="649"/>
      <point x="117" y="621" type="curve" smooth="yes"/>
      <point x="117" y="248" type="line" smooth="yes"/>
      <point x="117" y="102"/>
      <point x="181" y="-5"/>
    </contour>
  </outline>
</glyph>
<glyph name="V" format="2">
  <advance width="696"/>
  <unicode hex="0056"/>
  <outline>
    <contour>
      <point x="312" y="-1" type="curve"/>
      <point x="361" y="-1" type="line"/>
      <point x="443" y="205"/>
      <point x="528" y="402"/>
      <point x="615" y="599" type="curve" smooth="yes"/>
      <point x="631" y="636"/>
      <point x="656" y="649"/>
      <point x="691" y="659" type="curve"/>
      <point x="691" y="699" type="line"/>
      <point x="660" y="696"/>
      <point x="633" y="695"/>
      <point x="595" y="695" type="curve" smooth="yes"/>
      <point x="557" y="695"/>
      <point x="529" y="697"/>
      <point x="498" y="700" type="curve"/>
      <point x="498" y="662" type="line"/>
      <point x="548" y="657"/>
      <point x="557" y="639"/>
      <point x="545" y="602" type="curve" smooth="yes"/>
      <point x="500" y="461"/>
      <point x="435" y="308"/>
      <point x="368" y="158" type="curve"/>
      <point x="353" y="158" type="line"/>
      <point x="288" y="316"/>
      <point x="238" y="457"/>
      <point x="189" y="609" type="curve" smooth="yes"/>
      <point x="180" y="637"/>
      <point x="186" y="653"/>
      <point x="220" y="664" type="curve"/>
      <point x="220" y="699" type="line"/>
      <point x="189" y="696"/>
      <point x="160" y="695"/>
      <point x="122" y="695" type="curve" smooth="yes"/>
      <point x="84" y="695"/>
      <point x="46" y="697"/>
      <point x="15" y="700" type="curve"/>
      <point x="15" y="662" type="line"/>
      <point x="48" y="658"/>
      <point x="63" y="650"/>
      <point x="76" y="618" type="curve" smooth="yes"/>
      <point x="157" y="416"/>
      <point x="235" y="210"/>
    </contour>
  </outline>
</glyph>
<glyph name="W" format="2">
  <advance width="1045"/>
  <unicode hex="0057"/>
  <outline>
    <contour>
      <point x="368.0" y="-1.0" type="curve"/>
      <point x="412.0" y="-1.0" type="line"/>
      <point x="498.0" y="203.0"/>
      <point x="592.0" y="404.0"/>
      <point x="691.0" y="599.0" type="curve" smooth="yes"/>
      <point x="710" y="636"/>
      <point x="732.0" y="649.0"/>
      <point x="767.0" y="659.0" type="curve"/>
      <point x="767.0" y="699.0" type="line"/>
      <point x="736.0" y="696.0"/>
      <point x="709.0" y="695.0"/>
      <point x="671.0" y="695.0" type="curve" smooth="yes"/>
      <point x="633.0" y="695.0"/>
      <point x="615.0" y="697.0"/>
      <point x="584.0" y="700.0" type="curve"/>
      <point x="584.0" y="662.0" type="line"/>
      <point x="634.0" y="657.0"/>
      <point x="645" y="639"/>
      <point x="631.0" y="602.0" type="curve" smooth="yes"/>
      <point x="578.0" y="462.0"/>
      <point x="500.0" y="300.0"/>
      <point x="424.0" y="158.0" type="curve"/>
      <point x="409.0" y="158.0" type="line"/>
      <point x="331.0" y="311.0"/>
      <point x="264.0" y="457.0"/>
      <point x="205.0" y="609.0" type="curve" smooth="yes"/>
      <point x="194" y="636"/>
      <point x="202.0" y="653.0"/>
      <point x="236.0" y="664.0" type="curve"/>
      <point x="236.0" y="699.0" type="line"/>
      <point x="205.0" y="696.0"/>
      <point x="176.0" y="695.0"/>
      <point x="138.0" y="695.0" type="curve" smooth="yes"/>
      <point x="100.0" y="695.0"/>
      <point x="52.0" y="697.0"/>
      <point x="21.0" y="700.0" type="curve"/>
      <point x="21.0" y="662.0" type="line"/>
      <point x="54.0" y="658.0"/>
      <point x="66" y="650"/>
      <point x="82.0" y="618.0" type="curve" smooth="yes"/>
      <point x="178.0" y="424.0"/>
      <point x="283.0" y="208.0"/>
    </contour>
    <contour>
      <point x="649.0" y="-1.0" type="curve"/>
      <point x="678.0" y="-1.0" type="line"/>
      <point x="764.0" y="203.0"/>
      <point x="857.0" y="402.0"/>
      <point x="950.0" y="599.0" type="curve" smooth="yes"/>
      <point x="968" y="636"/>
      <point x="991.0" y="649.0"/>
      <point x="1026.0" y="659.0" type="curve"/>
      <point x="1026.0" y="699.0" type="line"/>
      <point x="995.0" y="696.0"/>
      <point x="968.0" y="695.0"/>
      <point x="930.0" y="695.0" type="curve" smooth="yes"/>
      <point x="892.0" y="695.0"/>
      <point x="874.0" y="697.0"/>
      <point x="843.0" y="700.0" type="curve"/>
      <point x="843.0" y="662.0" type="line"/>
      <point x="893.0" y="657.0"/>
      <point x="904" y="639"/>
      <point x="890.0" y="602.0" type="curve" smooth="yes"/>
      <point x="836.0" y="462.0"/>
      <point x="766.0" y="304.0"/>
      <point x="694.0" y="158.0" type="curve"/>
      <point x="679.0" y="158.0" type="line"/>
      <point x="605.0" y="311.0"/>
      <point x="548.0" y="457.0"/>
      <point x="489.0" y="609.0" type="curve" smooth="yes"/>
      <point x="478" y="636"/>
      <point x="486.0" y="653.0"/>
      <point x="520.0" y="664.0" type="curve"/>
      <point x="520.0" y="699.0" type="line"/>
      <point x="489.0" y="696.0"/>
      <point x="460.0" y="695.0"/>
      <point x="422.0" y="695.0" type="curve" smooth="yes"/>
      <point x="384.0" y="695.0"/>
      <point x="336.0" y="697.0"/>
      <point x="305.0" y="700.0" type="curve"/>
      <point x="305.0" y="662.0" type="line"/>
      <point x="338.0" y="658.0"/>
      <point x="350" y="650"/>
      <point x="366.0" y="618.0" type="curve" smooth="yes"/>
      <point x="462.0" y="424.0"/>
      <point x="564.0" y="208.0"/>
    </contour>
    <contour>
      <point x="524" y="254" type="line"/>
      <point x="540" y="254" type="line"/>
      <point x="532" y="294" type="line"/>
    </contour>
    <contour>
      <point x="551" y="448" type="line"/>
      <point x="559" y="408" type="line"/>
      <point x="567" y="448" type="line"/>
    </contour>
  </outline>
</glyph>
<glyph name="X" format="2">
  <advance width="671"/>
  <unicode hex="0058"/>
  <outline>
    <contour>
      <point x="437" y="1" type="line"/>
      <point x="468" y="4"/>
      <point x="512" y="5"/>
      <point x="547" y="5" type="curve" smooth="yes"/>
      <point x="585" y="5"/>
      <point x="625" y="3"/>
      <point x="651" y="0" type="curve"/>
      <point x="651" y="32" type="line"/>
      <point x="613" y="38"/>
      <point x="591" y="49"/>
      <point x="573" y="78" type="curve" smooth="yes"/>
      <point x="248" y="609" type="line" smooth="yes"/>
      <point x="223" y="650"/>
      <point x="245" y="663"/>
      <point x="279" y="674" type="curve"/>
      <point x="279" y="699" type="line"/>
      <point x="248" y="696"/>
      <point x="209" y="695"/>
      <point x="174" y="695" type="curve" smooth="yes"/>
      <point x="136" y="695"/>
      <point x="86" y="697"/>
      <point x="40" y="700" type="curve"/>
      <point x="40" y="662" type="line"/>
      <point x="98" y="658"/>
      <point x="108" y="647"/>
      <point x="126" y="618" type="curve" smooth="yes"/>
      <point x="457" y="91" type="line" smooth="yes"/>
      <point x="483" y="50"/>
      <point x="471" y="37"/>
      <point x="437" y="26" type="curve"/>
    </contour>
    <contour>
      <point x="30" y="0" type="line"/>
      <point x="56" y="3"/>
      <point x="81" y="5"/>
      <point x="119" y="5" type="curve" smooth="yes"/>
      <point x="154" y="5"/>
      <point x="178" y="4"/>
      <point x="209" y="1" type="curve"/>
      <point x="209" y="26" type="line"/>
      <point x="175" y="37"/>
      <point x="163" y="51"/>
      <point x="189" y="91" type="curve" smooth="yes"/>
      <point x="347" y="340" type="line"/>
      <point x="316" y="398" type="line"/>
      <point x="108" y="78" type="line" smooth="yes"/>
      <point x="89" y="49"/>
      <point x="68" y="38"/>
      <point x="30" y="30" type="curve"/>
    </contour>
    <contour>
      <point x="366" y="360" type="line"/>
      <point x="535" y="618" type="line" smooth="yes"/>
      <point x="554" y="647"/>
      <point x="568" y="662"/>
      <point x="621" y="671" type="curve"/>
      <point x="621" y="700" type="line"/>
      <point x="585" y="697"/>
      <point x="555" y="695"/>
      <point x="517" y="695" type="curve" smooth="yes"/>
      <point x="482" y="695"/>
      <point x="453" y="696"/>
      <point x="422" y="699" type="curve"/>
      <point x="422" y="674" type="line"/>
      <point x="456" y="663"/>
      <point x="479" y="650"/>
      <point x="453" y="609" type="curve" smooth="yes"/>
      <point x="335" y="418" type="line"/>
    </contour>
  </outline>
</glyph>
<glyph name="Y" format="2">
  <advance width="651"/>
  <unicode hex="0059"/>
  <outline>
    <contour>
      <point x="300" y="287" type="line"/>
      <point x="361" y="359" type="line"/>
      <point x="208" y="609" type="line" smooth="yes"/>
      <point x="183" y="650"/>
      <point x="205" y="663"/>
      <point x="239" y="674" type="curve"/>
      <point x="239" y="699" type="line"/>
      <point x="208" y="696"/>
      <point x="169" y="695"/>
      <point x="134" y="695" type="curve" smooth="yes"/>
      <point x="96" y="695"/>
      <point x="56" y="697"/>
      <point x="20" y="700" type="curve"/>
      <point x="20" y="662" type="line"/>
      <point x="68" y="658"/>
      <point x="76" y="647"/>
      <point x="94" y="618" type="curve" smooth="yes"/>
    </contour>
    <contour>
      <point x="366" y="320" type="line"/>
      <point x="555" y="618" type="line" smooth="yes"/>
      <point x="573" y="647"/>
      <point x="588" y="662"/>
      <point x="631" y="671" type="curve"/>
      <point x="631" y="700" type="line"/>
      <point x="605" y="697"/>
      <point x="575" y="695"/>
      <point x="537" y="695" type="curve" smooth="yes"/>
      <point x="502" y="695"/>
      <point x="473" y="696"/>
      <point x="442" y="699" type="curve"/>
      <point x="442" y="674" type="line"/>
      <point x="476" y="663"/>
      <point x="496" y="651"/>
      <point x="473" y="609" type="curve" smooth="yes"/>
      <point x="333" y="358" type="line"/>
    </contour>
    <contour>
      <point x="382" y="386" type="curve"/>
      <point x="280" y="368" type="line"/>
      <point x="282" y="274"/>
      <point x="282" y="179"/>
      <point x="282" y="85" type="curve" smooth="yes"/>
      <point x="282" y="53"/>
      <point x="265" y="47"/>
      <point x="231" y="40" type="curve"/>
      <point x="231" y="0" type="line"/>
      <point x="268" y="5"/>
      <point x="300" y="7"/>
      <point x="331" y="7" type="curve" smooth="yes"/>
      <point x="362" y="7"/>
      <point x="394" y="5"/>
      <point x="431" y="0" type="curve"/>
      <point x="431" y="40" type="line"/>
      <point x="397" y="47"/>
      <point x="380" y="53"/>
      <point x="380" y="85" type="curve" smooth="yes"/>
      <point x="380" y="186"/>
      <point x="380" y="286"/>
    </contour>
  </outline>
</glyph>
<glyph name="Z" format="2">
  <advance width="673"/>
  <unicode hex="005A"/>
  <outline>
    <contour>
      <point x="466" y="644" type="line"/>
      <point x="213" y="642" type="line" smooth="yes"/>
      <point x="153" y="642"/>
      <point x="120" y="632"/>
      <point x="74" y="546" type="curve"/>
      <point x="39" y="556" type="line"/>
      <point x="50" y="614"/>
      <point x="56" y="661"/>
      <point x="61" y="709" type="curve"/>
      <point x="79" y="709" type="line"/>
      <point x="113" y="698"/>
      <point x="219" y="695"/>
      <point x="633" y="700" type="curve"/>
      <point x="643" y="685" type="line"/>
      <point x="486" y="483"/>
      <point x="332" y="278"/>
      <point x="181" y="70" type="curve"/>
      <point x="190" y="57" type="line"/>
      <point x="481" y="59" type="line" smooth="yes"/>
      <point x="541" y="59"/>
      <point x="574" y="74"/>
      <point x="618" y="144" type="curve"/>
      <point x="653" y="134" type="line"/>
      <point x="636" y="86"/>
      <point x="622" y="39"/>
      <point x="613" y="-9" type="curve"/>
      <point x="595" y="-9" type="line"/>
      <point x="561" y="2"/>
      <point x="444" y="5"/>
      <point x="30" y="0" type="curve"/>
      <point x="20" y="15" type="line"/>
      <point x="174" y="217"/>
      <point x="325" y="422"/>
      <point x="473" y="630" type="curve"/>
    </contour>
  </outline>
</glyph>
<glyph name="a" format="2">
  <advance width="452"/>
  <unicode hex="0061"/>
  <outline>
    <contour>
      <point x="142" y="-5" type="curve" smooth="yes"/>
      <point x="181" y="-5"/>
      <point x="218" y="13"/>
      <point x="267" y="45" type="curve"/>
      <point x="288" y="45" type="line"/>
      <point x="300" y="22"/>
      <point x="321" y="-1"/>
      <point x="359" y="-8" type="curve"/>
      <point x="435" y="64" type="line"/>
      <point x="417" y="84" type="line"/>
      <point x="408" y="77"/>
      <point x="399" y="74"/>
      <point x="391" y="74" type="curve" smooth="yes"/>
      <point x="369" y="74"/>
      <point x="355" y="95"/>
      <point x="356" y="128" type="curve" smooth="yes"/>
      <point x="359" y="304" type="line" smooth="yes"/>
      <point x="359" y="330"/>
      <point x="359" y="351"/>
      <point x="353" y="369" type="curve" smooth="yes"/>
      <point x="339" y="412"/>
      <point x="292" y="435"/>
      <point x="217" y="435" type="curve" smooth="yes"/>
      <point x="181" y="435"/>
      <point x="141" y="433"/>
      <point x="78" y="421" type="curve"/>
      <point x="78" y="315" type="line"/>
      <point x="111" y="315" type="line"/>
      <point x="136" y="364"/>
      <point x="157" y="379"/>
      <point x="198" y="379" type="curve" smooth="yes"/>
      <point x="254" y="379"/>
      <point x="282" y="352"/>
      <point x="282" y="269" type="curve" smooth="yes"/>
      <point x="282" y="256" type="line"/>
      <point x="198" y="246"/>
      <point x="153" y="226"/>
      <point x="120" y="208" type="curve" smooth="yes"/>
      <point x="77" y="186"/>
      <point x="40" y="145"/>
      <point x="40" y="93" type="curve" smooth="yes"/>
      <point x="40" y="39"/>
      <point x="81" y="-5"/>
    </contour>
    <contour>
      <point x="132" y="121" type="curve" smooth="yes"/>
      <point x="132" y="173"/>
      <point x="191" y="216"/>
      <point x="282" y="219" type="curve"/>
      <point x="283" y="102" type="line"/>
      <point x="259" y="64"/>
      <point x="218" y="51"/>
      <point x="191" y="51" type="curve"/>
      <point x="153" y="51"/>
      <point x="132" y="81"/>
    </contour>
  </outline>
</glyph>
<glyph name="b" format="2">
  <advance width="521"/>
  <unicode hex="0062"/>
  <outline>
    <contour>
      <point x="91" y="-7" type="line"/>
      <point x="147" y="14" type="line"/>
      <point x="175" y="4"/>
      <point x="211.0" y="-8"/>
      <point x="258" y="-8" type="curve" smooth="yes"/>
      <point x="407" y="-8"/>
      <point x="482.0" y="95.0"/>
      <point x="482" y="243" type="curve" smooth="yes"/>
      <point x="482" y="325"/>
      <point x="429.0" y="438.0"/>
      <point x="309" y="438" type="curve" smooth="yes"/>
      <point x="256" y="438"/>
      <point x="220" y="414"/>
      <point x="184" y="384" type="curve"/>
      <point x="151" y="408" type="line"/>
      <point x="163" y="372" type="line"/>
      <point x="166" y="508"/>
      <point x="172" y="639"/>
      <point x="180" y="730" type="curve"/>
      <point x="149" y="730" type="line"/>
      <point x="110" y="666"/>
      <point x="51" y="656"/>
      <point x="6" y="646" type="curve"/>
      <point x="8" y="616" type="line"/>
      <point x="62" y="611"/>
      <point x="75" y="607"/>
      <point x="76" y="559" type="curve" smooth="yes"/>
      <point x="80" y="396"/>
      <point x="82" y="213.0"/>
      <point x="82" y="68" type="curve" smooth="yes"/>
      <point x="82" y="46"/>
      <point x="81" y="24"/>
      <point x="78" y="2" type="curve"/>
    </contour>
    <contour>
      <point x="260" y="34" type="curve" smooth="yes"/>
      <point x="190" y="34"/>
      <point x="158" y="78.0"/>
      <point x="158" y="133" type="curve" smooth="yes"/>
      <point x="158" y="290" type="line" smooth="yes"/>
      <point x="158.0" y="348.0"/>
      <point x="200" y="367"/>
      <point x="250" y="367" type="curve" smooth="yes"/>
      <point x="333.0" y="367.0"/>
      <point x="400" y="298"/>
      <point x="400.0" y="194" type="curve" smooth="yes"/>
      <point x="400" y="102"/>
      <point x="340" y="34"/>
    </contour>
  </outline>
</glyph>
<glyph name="c" format="2">
  <advance width="450"/>
  <unicode hex="0063"/>
  <outline>
    <contour>
      <point x="265" y="-6" type="curve" smooth="yes"/>
      <point x="336" y="-6"/>
      <point x="375" y="24"/>
      <point x="422" y="76" type="curve"/>
      <point x="398" y="99" type="line"/>
      <point x="367" y="74"/>
      <point x="324" y="56"/>
      <point x="288" y="56" type="curve" smooth="yes"/>
      <point x="205" y="56"/>
      <point x="120" y="122"/>
      <point x="120" y="228" type="curve" smooth="yes"/>
      <point x="120" y="304"/>
      <point x="162" y="383"/>
      <point x="258" y="383" type="curve" smooth="yes"/>
      <point x="304" y="383"/>
      <point x="346" y="365"/>
      <point x="375" y="307" type="curve"/>
      <point x="408" y="307" type="line"/>
      <point x="408" y="417" type="line"/>
      <point x="382" y="430" type="line"/>
      <point x="364" y="426"/>
      <point x="350" y="426"/>
      <point x="334" y="429" type="curve" smooth="yes"/>
      <point x="319" y="432"/>
      <point x="289" y="436"/>
      <point x="261" y="436" type="curve" smooth="yes"/>
      <point x="126" y="436"/>
      <point x="39" y="341"/>
      <point x="39" y="214" type="curve" smooth="yes"/>
      <point x="39" y="87"/>
      <point x="121" y="-6"/>
    </contour>
  </outline>
</glyph>
<glyph name="d" format="2">
  <advance width="556"/>
  <unicode hex="0064"/>
  <outline>
    <contour>
      <point x="265.0" y="64.0" type="curve" smooth="yes"/>
      <point x="185.0" y="64.0"/>
      <point x="128.0" y="141.0"/>
      <point x="128.0" y="233.0" type="curve" smooth="yes"/>
      <point x="128.0" y="337.0"/>
      <point x="185" y="394"/>
      <point x="268.0" y="394.0" type="curve" smooth="yes"/>
      <point x="328.0" y="394.0"/>
      <point x="380" y="357"/>
      <point x="380.0" y="289.0" type="curve"/>
      <point x="380.0" y="156.0" type="line" smooth="yes"/>
      <point x="380.0" y="101.0"/>
      <point x="335.0" y="64.0"/>
    </contour>
    <contour>
      <point x="256" y="-6" type="curve"/>
      <point x="292" y="14"/>
      <point x="330" y="39"/>
      <point x="362" y="63" type="curve"/>
      <point x="378" y="59" type="line"/>
      <point x="395" y="21"/>
      <point x="415" y="-1"/>
      <point x="446" y="-8" type="curve"/>
      <point x="534" y="46" type="line"/>
      <point x="523" y="71" type="line"/>
      <point x="514" y="69"/>
      <point x="506" y="67"/>
      <point x="498" y="67" type="curve" smooth="yes"/>
      <point x="471" y="67"/>
      <point x="454" y="88"/>
      <point x="454" y="121" type="curve" smooth="yes"/>
      <point x="454" y="280"/>
      <point x="458" y="569"/>
      <point x="473" y="730" type="curve"/>
      <point x="442" y="730" type="line"/>
      <point x="403" y="676"/>
      <point x="344" y="666"/>
      <point x="299" y="656" type="curve"/>
      <point x="301" y="626" type="line"/>
      <point x="355" y="621"/>
      <point x="368" y="617"/>
      <point x="369" y="569" type="curve" smooth="yes"/>
      <point x="370" y="520"/>
      <point x="371" y="469"/>
      <point x="372" y="423" type="curve"/>
      <point x="357" y="414" type="line"/>
      <point x="321" y="428"/>
      <point x="284" y="436"/>
      <point x="251" y="436" type="curve" smooth="yes"/>
      <point x="122" y="436"/>
      <point x="40" y="337"/>
      <point x="40" y="218" type="curve" smooth="yes"/>
      <point x="40" y="98"/>
      <point x="98" y="-6"/>
    </contour>
  </outline>
</glyph>
<glyph name="e" format="2">
  <advance width="452"/>
  <unicode hex="0065"/>
  <outline>
    <contour>
      <point x="395" y="249" type="line"/>
      <point x="412" y="267" type="line"/>
      <point x="404" y="348"/>
      <point x="343" y="436"/>
      <point x="238" y="436" type="curve" smooth="yes"/>
      <point x="119" y="436"/>
      <point x="41" y="341"/>
      <point x="41" y="214" type="curve" smooth="yes"/>
      <point x="41" y="87"/>
      <point x="127" y="-8"/>
      <point x="246" y="-8" type="curve" smooth="yes"/>
      <point x="313" y="-8"/>
      <point x="373" y="22"/>
      <point x="405" y="60" type="curve"/>
      <point x="381" y="91" type="line"/>
      <point x="348" y="67"/>
      <point x="314" y="62"/>
      <point x="285" y="62" type="curve" smooth="yes"/>
      <point x="166" y="62"/>
      <point x="114" y="138"/>
      <point x="125" y="249" type="curve"/>
    </contour>
    <contour>
      <point x="221" y="387" type="curve" smooth="yes"/>
      <point x="268" y="387"/>
      <point x="305" y="353"/>
      <point x="305" y="309" type="curve"/>
      <point x="294" y="295" type="line"/>
      <point x="133" y="295" type="line"/>
      <point x="137" y="344"/>
      <point x="169" y="387"/>
    </contour>
  </outline>
</glyph>
<glyph name="f" format="2">
  <advance width="325"/>
  <unicode hex="0066"/>
  <outline>
    <contour>
      <point x="293" y="714" type="line"/>
      <point x="265" y="711" type="line"/>
      <point x="230" y="696" type="line"/>
      <point x="196" y="680" type="line"/>
      <point x="170" y="657" type="line"/>
      <point x="147" y="627" type="line"/>
      <point x="129" y="597" type="line"/>
      <point x="117" y="562" type="line"/>
      <point x="108" y="533" type="line"/>
      <point x="103" y="510" type="line"/>
      <point x="94" y="476" type="line"/>
      <point x="86" y="450" type="line"/>
      <point x="76" y="427" type="line"/>
      <point x="64" y="414" type="line"/>
      <point x="50" y="403" type="line"/>
      <point x="37" y="389" type="line"/>
      <point x="32" y="376" type="line"/>
      <point x="37" y="363" type="line"/>
      <point x="50" y="359" type="line"/>
      <point x="69" y="359" type="line"/>
      <point x="83" y="352" type="line"/>
      <point x="89" y="343" type="line"/>
      <point x="90" y="323" type="line"/>
      <point x="94" y="150" type="line"/>
      <point x="94" y="82" type="line"/>
      <point x="91" y="64" type="line"/>
      <point x="82" y="54" type="line"/>
      <point x="65" y="47" type="line"/>
      <point x="54" y="40" type="line"/>
      <point x="47" y="28" type="line"/>
      <point x="46" y="15" type="line"/>
      <point x="50" y="10" type="line"/>
      <point x="63" y="0" type="line"/>
      <point x="86" y="0" type="line"/>
      <point x="109" y="4" type="line"/>
      <point x="128" y="7" type="line"/>
      <point x="155" y="7" type="line"/>
      <point x="173" y="2" type="line"/>
      <point x="191" y="0" type="line"/>
      <point x="213" y="-2" type="line"/>
      <point x="230" y="-4" type="line"/>
      <point x="243" y="2" type="line"/>
      <point x="249" y="18" type="line"/>
      <point x="243" y="33" type="line"/>
      <point x="230" y="44" type="line"/>
      <point x="214" y="50" type="line"/>
      <point x="199" y="61" type="line"/>
      <point x="189" y="77" type="line"/>
      <point x="183" y="100" type="line"/>
      <point x="183" y="125" type="line"/>
      <point x="182" y="309" type="line"/>
      <point x="185" y="342" type="line"/>
      <point x="196" y="355" type="line"/>
      <point x="206" y="359" type="line"/>
      <point x="233" y="359" type="line"/>
      <point x="269" y="358" type="line"/>
      <point x="303" y="355" type="line"/>
      <point x="312" y="362" type="line"/>
      <point x="316" y="374" type="line"/>
      <point x="316" y="405" type="line"/>
      <point x="305" y="413" type="line"/>
      <point x="294" y="418" type="line"/>
      <point x="271" y="420" type="line"/>
      <point x="251" y="418" type="line"/>
      <point x="200" y="418" type="line"/>
      <point x="189" y="425" type="line"/>
      <point x="183" y="438" type="line"/>
      <point x="182" y="487" type="line"/>
      <point x="189" y="557" type="line"/>
      <point x="197" y="591" type="line"/>
      <point x="208" y="617" type="line"/>
      <point x="219" y="631" type="line"/>
      <point x="234" y="641" type="line"/>
      <point x="250" y="641" type="line"/>
      <point x="262" y="636" type="line"/>
      <point x="270" y="626" type="line"/>
      <point x="288" y="608" type="line"/>
      <point x="296" y="600" type="line"/>
      <point x="308" y="601" type="line"/>
      <point x="316" y="609" type="line"/>
      <point x="323" y="622" type="line"/>
      <point x="323" y="648" type="line"/>
      <point x="323" y="693" type="line"/>
      <point x="316" y="706" type="line"/>
      <point x="305" y="711" type="line"/>
    </contour>
  </outline>
</glyph>
<glyph name="g" format="2">
  <advance width="499"/>
  <unicode hex="0067"/>
  <outline>
    <contour>
      <point x="232" y="437" type="line"/>
      <point x="187" y="436" type="line"/>
      <point x="155" y="429" type="line"/>
      <point x="125" y="414" type="line"/>
      <point x="96" y="391" type="line"/>
      <point x="75" y="367" type="line"/>
      <point x="62" y="347" type="line"/>
      <point x="56" y="332" type="line"/>
      <point x="52" y="316" type="line"/>
      <point x="52" y="263" type="line"/>
      <point x="58" y="238" type="line"/>
      <point x="72" y="212" type="line"/>
      <point x="92" y="185" type="line"/>
      <point x="129" y="152" type="line"/>
      <point x="130" y="139" type="line"/>
      <point x="129" y="133" type="line"/>
      <point x="113" y="123" type="line"/>
      <point x="76" y="101" type="line"/>
      <point x="64" y="89" type="line"/>
      <point x="55" y="67" type="line"/>
      <point x="55" y="22" type="line"/>
      <point x="63" y="9" type="line"/>
      <point x="77" y="-1" type="line"/>
      <point x="103" y="-14" type="line"/>
      <point x="108" y="-24" type="line"/>
      <point x="108" y="-34" type="line"/>
      <point x="95" y="-47" type="line"/>
      <point x="66" y="-77" type="line"/>
      <point x="56" y="-94" type="line"/>
      <point x="50" y="-112" type="line"/>
      <point x="50" y="-147" type="line"/>
      <point x="57" y="-165" type="line"/>
      <point x="83" y="-195" type="line"/>
      <point x="103" y="-207" type="line"/>
      <point x="139" y="-222" type="line"/>
      <point x="174" y="-231" type="line"/>
      <point x="241" y="-231" type="line"/>
      <point x="278" y="-223" type="line"/>
      <point x="321" y="-208" type="line"/>
      <point x="357" y="-190" type="line"/>
      <point x="382" y="-174" type="line"/>
      <point x="405" y="-154" type="line"/>
      <point x="427" y="-128" type="line"/>
      <point x="441" y="-103" type="line"/>
      <point x="447" y="-80" type="line"/>
      <point x="447" y="-35" type="line"/>
      <point x="441" y="-11" type="line"/>
      <point x="427" y="12" type="line"/>
      <point x="409" y="35" type="line"/>
      <point x="387" y="49" type="line"/>
      <point x="360" y="56" type="line"/>
      <point x="343" y="57" type="line"/>
      <point x="164" y="53" type="line"/>
      <point x="150" y="54" type="line"/>
      <point x="135" y="62" type="line"/>
      <point x="129" y="70" type="line"/>
      <point x="125" y="76" type="line"/>
      <point x="124" y="94" type="line"/>
      <point x="131" y="103" type="line"/>
      <point x="142" y="116" type="line"/>
      <point x="159" y="125" type="line"/>
      <point x="181" y="130" type="line"/>
      <point x="233" y="127" type="line"/>
      <point x="258" y="127" type="line"/>
      <point x="287" y="132" type="line"/>
      <point x="316" y="139" type="line"/>
      <point x="341" y="150" type="line"/>
      <point x="362" y="164" type="line"/>
      <point x="379" y="180" type="line"/>
      <point x="393" y="197" type="line"/>
      <point x="405" y="219" type="line"/>
      <point x="413" y="241" type="line"/>
      <point x="419" y="264" type="line"/>
      <point x="419" y="291" type="line"/>
      <point x="414" y="308" type="line"/>
      <point x="411" y="321" type="line"/>
      <point x="412" y="331" type="line"/>
      <point x="419" y="340" type="line"/>
      <point x="432" y="345" type="line"/>
      <point x="445" y="348" type="line"/>
      <point x="456" y="350" type="line"/>
      <point x="461" y="356" type="line"/>
      <point x="467" y="365" type="line"/>
      <point x="467" y="390" type="line"/>
      <point x="463" y="395" type="line"/>
      <point x="453" y="402" type="line"/>
      <point x="441" y="404" type="line"/>
      <point x="371" y="403" type="line"/>
      <point x="356" y="407" type="line"/>
      <point x="342" y="413" type="line"/>
      <point x="326" y="421" type="line"/>
      <point x="305" y="430" type="line"/>
      <point x="279" y="434" type="line"/>
      <point x="255" y="437" type="line"/>
    </contour>
    <contour>
      <point x="236" y="397" type="line"/>
      <point x="262" y="394" type="line"/>
      <point x="285" y="383" type="line"/>
      <point x="305" y="369" type="line"/>
      <point x="318" y="349" type="line"/>
      <point x="329" y="327" type="line"/>
      <point x="336" y="297" type="line"/>
      <point x="336" y="269" type="line"/>
      <point x="333" y="238" type="line"/>
      <point x="323" y="212" type="line"/>
      <point x="309" y="193" type="line"/>
      <point x="288" y="175" type="line"/>
      <point x="261" y="165" type="line"/>
      <point x="236" y="162" type="line"/>
      <point x="208" y="167" type="line"/>
      <point x="186" y="177" type="line"/>
      <point x="170" y="192" type="line"/>
      <point x="155" y="212" type="line"/>
      <point x="146" y="238" type="line"/>
      <point x="140" y="265" type="line"/>
      <point x="140" y="290" type="line"/>
      <point x="142" y="317" type="line"/>
      <point x="151" y="344" type="line"/>
      <point x="163" y="363" type="line"/>
      <point x="178" y="378" type="line"/>
      <point x="194" y="388" type="line"/>
      <point x="212" y="395" type="line"/>
    </contour>
    <contour>
      <point x="256" y="-12" type="line"/>
      <point x="299" y="-12" type="line"/>
      <point x="329" y="-18" type="line"/>
      <point x="348" y="-26" type="line"/>
      <point x="361" y="-35" type="line"/>
      <point x="378" y="-50" type="line"/>
      <point x="385" y="-68" type="line"/>
      <point x="388" y="-90" type="line"/>
      <point x="383" y="-115" type="line"/>
      <point x="374" y="-131" type="line"/>
      <point x="358" y="-148" type="line"/>
      <point x="338" y="-162" type="line"/>
      <point x="319" y="-172" type="line"/>
      <point x="297" y="-179" type="line"/>
      <point x="269" y="-184" type="line"/>
      <point x="236" y="-184" type="line"/>
      <point x="205" y="-179" type="line"/>
      <point x="178" y="-170" type="line"/>
      <point x="155" y="-157" type="line"/>
      <point x="140" y="-144" type="line"/>
      <point x="128" y="-134" type="line"/>
      <point x="122" y="-121" type="line"/>
      <point x="116" y="-107" type="line"/>
      <point x="116" y="-82" type="line"/>
      <point x="121" y="-65" type="line"/>
      <point x="131" y="-49" type="line"/>
      <point x="143" y="-36" type="line"/>
      <point x="161" y="-25" type="line"/>
      <point x="181" y="-18" type="line"/>
      <point x="210" y="-15" type="line"/>
      <point x="243" y="-12" type="line"/>
    </contour>
  </outline>
</glyph>
<glyph name="h" format="2">
  <advance width="555"/>
  <unicode hex="0068"/>
  <outline>
    <contour>
      <point x="52" y="0" type="line"/>
      <point x="88" y="3"/>
      <point x="116" y="4"/>
      <point x="143" y="4" type="curve" smooth="yes"/>
      <point x="169" y="4"/>
      <point x="196" y="3"/>
      <point x="232" y="0" type="curve"/>
      <point x="232" y="31" type="line"/>
      <point x="194" y="39"/>
      <point x="181" y="46"/>
      <point x="181" y="68" type="curve" smooth="yes"/>
      <point x="181.0" y="280.0"/>
      <point x="187" y="569"/>
      <point x="202" y="730" type="curve"/>
      <point x="171" y="730" type="line"/>
      <point x="132" y="676"/>
      <point x="73" y="666"/>
      <point x="28" y="656" type="curve"/>
      <point x="30" y="626" type="line"/>
      <point x="84" y="621"/>
      <point x="97" y="617"/>
      <point x="98" y="569" type="curve" smooth="yes"/>
      <point x="102" y="406"/>
      <point x="103" y="213"/>
      <point x="103" y="68" type="curve" smooth="yes"/>
      <point x="103.0" y="46.0"/>
      <point x="90" y="39"/>
      <point x="52" y="31" type="curve"/>
    </contour>
    <contour>
      <point x="466" y="68" type="curve" smooth="yes"/>
      <point x="467" y="254" type="line" smooth="yes"/>
      <point x="467" y="292"/>
      <point x="467" y="328"/>
      <point x="462" y="348" type="curve" smooth="yes"/>
      <point x="453" y="387"/>
      <point x="405" y="440"/>
      <point x="335" y="440" type="curve" smooth="yes"/>
      <point x="282" y="440"/>
      <point x="239" y="407"/>
      <point x="199" y="370" type="curve"/>
      <point x="183" y="375" type="line"/>
      <point x="182" y="259" type="line"/>
      <point x="182" y="283"/>
      <point x="186" y="309"/>
      <point x="193" y="323" type="curve" smooth="yes"/>
      <point x="204" y="345"/>
      <point x="238" y="366"/>
      <point x="280" y="366" type="curve" smooth="yes"/>
      <point x="335" y="366"/>
      <point x="368" y="329"/>
      <point x="377" y="293" type="curve" smooth="yes"/>
      <point x="382" y="273"/>
      <point x="385" y="243"/>
      <point x="385" y="222" type="curve" smooth="yes"/>
      <point x="388" y="68" type="line" smooth="yes"/>
      <point x="388" y="46"/>
      <point x="375" y="39"/>
      <point x="341" y="31" type="curve"/>
      <point x="341" y="0" type="line"/>
      <point x="373" y="3"/>
      <point x="401" y="4"/>
      <point x="428" y="4" type="curve" smooth="yes"/>
      <point x="454" y="4"/>
      <point x="481" y="3"/>
      <point x="513" y="0" type="curve"/>
      <point x="513" y="31" type="line"/>
      <point x="479" y="39"/>
      <point x="466" y="46"/>
    </contour>
  </outline>
</glyph>
<glyph name="i" format="2">
  <advance width="259"/>
  <unicode hex="0069"/>
  <outline>
    <contour>
      <point x="144" y="523" type="curve" smooth="yes"/>
      <point x="182" y="523"/>
      <point x="207" y="550"/>
      <point x="207" y="584" type="curve" smooth="yes"/>
      <point x="207" y="617"/>
      <point x="179" y="641"/>
      <point x="144" y="641" type="curve" smooth="yes"/>
      <point x="109" y="641"/>
      <point x="82" y="617"/>
      <point x="82" y="584" type="curve" smooth="yes"/>
      <point x="82" y="550"/>
      <point x="106" y="523"/>
    </contour>
    <contour>
      <point x="56" y="0" type="line"/>
      <point x="88" y="3"/>
      <point x="116" y="4"/>
      <point x="143" y="4" type="curve" smooth="yes"/>
      <point x="169" y="4"/>
      <point x="196" y="3"/>
      <point x="228" y="0" type="curve"/>
      <point x="228" y="31" type="line"/>
      <point x="194" y="39"/>
      <point x="181" y="46"/>
      <point x="181" y="68" type="curve" smooth="yes"/>
      <point x="182" y="321" type="line" smooth="yes"/>
      <point x="182" y="364"/>
      <point x="183" y="407"/>
      <point x="187" y="436" type="curve"/>
      <point x="156" y="436" type="line"/>
      <point x="130" y="407"/>
      <point x="91" y="395"/>
      <point x="37" y="381" type="curve"/>
      <point x="42" y="350" type="line"/>
      <point x="87" y="346"/>
      <point x="97" y="341"/>
      <point x="98" y="315" type="curve" smooth="yes"/>
      <point x="103" y="68" type="line" smooth="yes"/>
      <point x="103" y="46"/>
      <point x="90" y="39"/>
      <point x="56" y="31" type="curve"/>
    </contour>
  </outline>
</glyph>
<glyph name="j" format="2">
  <advance width="254"/>
  <unicode hex="006A"/>
  <outline>
    <contour>
      <point x="37" y="-204" type="curve" smooth="yes"/>
      <point x="51" y="-204"/>
      <point x="82" y="-191"/>
      <point x="104" y="-176" type="curve" smooth="yes"/>
      <point x="149" y="-145"/>
      <point x="181" y="-88"/>
      <point x="182" y="57" type="curve" smooth="yes"/>
      <point x="184" y="321" type="line" smooth="yes"/>
      <point x="184" y="364"/>
      <point x="185" y="407"/>
      <point x="189" y="436" type="curve"/>
      <point x="158" y="436" type="line"/>
      <point x="132" y="407"/>
      <point x="91" y="392"/>
      <point x="37" y="381" type="curve"/>
      <point x="42" y="350" type="line"/>
      <point x="87" y="346"/>
      <point x="97" y="341"/>
      <point x="98" y="315" type="curve" smooth="yes"/>
      <point x="102" y="181"/>
      <point x="103" y="39"/>
      <point x="101" y="-58" type="curve" smooth="yes"/>
      <point x="99" y="-119"/>
      <point x="78" y="-130"/>
      <point x="47" y="-130" type="curve" smooth="yes"/>
      <point x="38" y="-130"/>
      <point x="27" y="-129"/>
      <point x="16" y="-128" type="curve"/>
      <point x="10" y="-137"/>
      <point x="8" y="-149"/>
      <point x="8" y="-159" type="curve" smooth="yes"/>
      <point x="8" y="-182"/>
      <point x="19" y="-204"/>
    </contour>
    <contour>
      <point x="144" y="523" type="curve" smooth="yes"/>
      <point x="182" y="523"/>
      <point x="207" y="550"/>
      <point x="207" y="584" type="curve" smooth="yes"/>
      <point x="207" y="617"/>
      <point x="179" y="641"/>
      <point x="144" y="641" type="curve" smooth="yes"/>
      <point x="109" y="641"/>
      <point x="82" y="617"/>
      <point x="82" y="584" type="curve" smooth="yes"/>
      <point x="82" y="550"/>
      <point x="106" y="523"/>
    </contour>
  </outline>
</glyph>
<glyph name="k" format="2">
  <advance width="502"/>
  <unicode hex="006B"/>
  <outline>
    <contour>
      <point x="44" y="0" type="line"/>
      <point x="80" y="3"/>
      <point x="108" y="4"/>
      <point x="135" y="4" type="curve" smooth="yes"/>
      <point x="161" y="4"/>
      <point x="188" y="3"/>
      <point x="224" y="0" type="curve"/>
      <point x="224" y="31" type="line"/>
      <point x="186" y="39"/>
      <point x="173" y="46"/>
      <point x="173" y="68" type="curve" smooth="yes"/>
      <point x="173.0" y="280.0"/>
      <point x="179" y="569"/>
      <point x="194" y="730" type="curve"/>
      <point x="163" y="730" type="line"/>
      <point x="124" y="676"/>
      <point x="65" y="666"/>
      <point x="20" y="656" type="curve"/>
      <point x="22" y="626" type="line"/>
      <point x="76" y="621"/>
      <point x="89" y="617"/>
      <point x="90" y="569" type="curve" smooth="yes"/>
      <point x="94" y="406"/>
      <point x="95" y="213"/>
      <point x="95" y="68" type="curve" smooth="yes"/>
      <point x="95.0" y="46.0"/>
      <point x="82" y="39"/>
      <point x="44" y="31" type="curve"/>
    </contour>
    <contour>
      <point x="169" y="168" type="line"/>
      <point x="198" y="203"/>
      <point x="319" y="304"/>
      <point x="357" y="332" type="curve" smooth="yes"/>
      <point x="403" y="366"/>
      <point x="433" y="381"/>
      <point x="469" y="386" type="curve"/>
      <point x="469" y="421" type="line"/>
      <point x="438" y="419"/>
      <point x="415" y="418"/>
      <point x="392" y="418" type="curve" smooth="yes"/>
      <point x="369" y="418"/>
      <point x="347" y="419"/>
      <point x="329" y="421" type="curve"/>
      <point x="312" y="402" type="line"/>
      <point x="323" y="376"/>
      <point x="316" y="354"/>
      <point x="292" y="332" type="curve" smooth="yes"/>
      <point x="187" y="237" type="line"/>
      <point x="168" y="249" type="line"/>
    </contour>
    <contour>
      <point x="208" y="214" type="line"/>
      <point x="240" y="181"/>
      <point x="282" y="125"/>
      <point x="304" y="93" type="curve" smooth="yes"/>
      <point x="335.0" y="48.0"/>
      <point x="328" y="33"/>
      <point x="309" y="25" type="curve"/>
      <point x="312" y="-1" type="line"/>
      <point x="351" y="2"/>
      <point x="373" y="4"/>
      <point x="399" y="4" type="curve" smooth="yes"/>
      <point x="425" y="4"/>
      <point x="454" y="2"/>
      <point x="489" y="-1" type="curve"/>
      <point x="489" y="28" type="line"/>
      <point x="441" y="40"/>
      <point x="430.0" y="49"/>
      <point x="392" y="105" type="curve" smooth="yes"/>
      <point x="359" y="154"/>
      <point x="323" y="202"/>
      <point x="266" y="266" type="curve"/>
    </contour>
  </outline>
</glyph>
<glyph name="l" format="2">
  <advance width="265"/>
  <unicode hex="006C"/>
  <outline>
    <contour>
      <point x="184" y="94" type="curve" smooth="yes"/>
      <point x="184" y="63"/>
      <point x="197" y="36"/>
      <point x="231" y="29" type="curve"/>
      <point x="231" y="-1" type="line"/>
      <point x="203" y="2"/>
      <point x="175" y="4"/>
      <point x="147" y="4" type="curve" smooth="yes"/>
      <point x="109" y="4"/>
      <point x="82" y="3"/>
      <point x="51" y="0" type="curve"/>
      <point x="51" y="30" type="line"/>
      <point x="85" y="41"/>
      <point x="102" y="61"/>
      <point x="102" y="100" type="curve" smooth="yes"/>
      <point x="102" y="245"/>
      <point x="101" y="386"/>
      <point x="98" y="549" type="curve" smooth="yes"/>
      <point x="97" y="597"/>
      <point x="69" y="604"/>
      <point x="30" y="616" type="curve"/>
      <point x="30" y="649" type="line"/>
      <point x="73" y="656"/>
      <point x="132" y="666"/>
      <point x="171" y="730" type="curve"/>
      <point x="202" y="730" type="line"/>
      <point x="187" y="569"/>
      <point x="184" y="306"/>
    </contour>
  </outline>
</glyph>
<glyph name="m" format="2">
  <advance width="794"/>
  <unicode hex="006D"/>
  <outline>
    <contour>
      <point x="446" y="68" type="curve" smooth="yes"/>
      <point x="447" y="284" type="line" smooth="yes"/>
      <point x="447" y="366"/>
      <point x="418" y="435.0"/>
      <point x="332" y="435" type="curve" smooth="yes"/>
      <point x="270" y="435"/>
      <point x="221" y="394"/>
      <point x="175" y="351" type="curve"/>
      <point x="179" y="259" type="line"/>
      <point x="179" y="283"/>
      <point x="183" y="309"/>
      <point x="190" y="323" type="curve" smooth="yes"/>
      <point x="201" y="345"/>
      <point x="235" y="372"/>
      <point x="277" y="372" type="curve" smooth="yes"/>
      <point x="363" y="372.0"/>
      <point x="364" y="311"/>
      <point x="365" y="252" type="curve" smooth="yes"/>
      <point x="368" y="68" type="line" smooth="yes"/>
      <point x="368" y="46"/>
      <point x="355" y="39"/>
      <point x="321" y="31" type="curve"/>
      <point x="321" y="0" type="line"/>
      <point x="353" y="3"/>
      <point x="381" y="4"/>
      <point x="408" y="4" type="curve" smooth="yes"/>
      <point x="434" y="4"/>
      <point x="461" y="3"/>
      <point x="493" y="0" type="curve"/>
      <point x="493" y="31" type="line"/>
      <point x="459" y="39"/>
      <point x="446" y="46"/>
    </contour>
    <contour>
      <point x="56" y="0" type="line"/>
      <point x="88" y="3"/>
      <point x="116" y="4"/>
      <point x="143" y="4" type="curve" smooth="yes"/>
      <point x="169" y="4"/>
      <point x="196" y="3"/>
      <point x="228" y="0" type="curve"/>
      <point x="228" y="31" type="line"/>
      <point x="194" y="39"/>
      <point x="181" y="46"/>
      <point x="181" y="68" type="curve" smooth="yes"/>
      <point x="179" y="259" type="line"/>
      <point x="179" y="327" type="line"/>
      <point x="198" y="370" type="line"/>
      <point x="182" y="375" type="line"/>
      <point x="176" y="440" type="line"/>
      <point x="145" y="440" type="line"/>
      <point x="119" y="407"/>
      <point x="91" y="387"/>
      <point x="37" y="373" type="curve"/>
      <point x="42" y="342" type="line"/>
      <point x="87" y="338"/>
      <point x="97" y="333"/>
      <point x="98" y="307" type="curve" smooth="yes"/>
      <point x="103" y="68" type="line" smooth="yes"/>
      <point x="103" y="46"/>
      <point x="90" y="39"/>
      <point x="56" y="31" type="curve"/>
    </contour>
    <contour>
      <point x="714" y="68" type="curve" smooth="yes"/>
      <point x="718" y="294" type="line" smooth="yes"/>
      <point x="719" y="376"/>
      <point x="686" y="435"/>
      <point x="600" y="435" type="curve" smooth="yes"/>
      <point x="544" y="435"/>
      <point x="496" y="402"/>
      <point x="454" y="364" type="curve"/>
      <point x="432" y="369" type="line"/>
      <point x="447" y="259" type="line"/>
      <point x="447" y="283"/>
      <point x="451" y="309"/>
      <point x="458" y="323" type="curve" smooth="yes"/>
      <point x="469" y="345"/>
      <point x="503" y="372"/>
      <point x="545" y="372" type="curve" smooth="yes"/>
      <point x="631" y="372"/>
      <point x="632" y="311"/>
      <point x="633" y="252" type="curve" smooth="yes"/>
      <point x="636" y="68" type="line" smooth="yes"/>
      <point x="636" y="46"/>
      <point x="623" y="39"/>
      <point x="589" y="31" type="curve"/>
      <point x="589" y="0" type="line"/>
      <point x="621" y="3"/>
      <point x="649" y="4"/>
      <point x="676" y="4" type="curve" smooth="yes"/>
      <point x="702" y="4"/>
      <point x="729" y="3"/>
      <point x="761" y="0" type="curve"/>
      <point x="761" y="31" type="line"/>
      <point x="727" y="39"/>
      <point x="714" y="46"/>
    </contour>
  </outline>
</glyph>
<glyph name="n" format="2">
  <advance width="550"/>
  <unicode hex="006E"/>
  <outline>
    <contour>
      <point x="463" y="68" type="curve" smooth="yes"/>
      <point x="464" y="254" type="line" smooth="yes"/>
      <point x="464" y="292"/>
      <point x="464" y="328"/>
      <point x="459" y="348" type="curve" smooth="yes"/>
      <point x="450" y="387"/>
      <point x="402" y="440"/>
      <point x="332" y="440" type="curve" smooth="yes"/>
      <point x="270" y="440"/>
      <point x="221" y="394"/>
      <point x="175" y="351" type="curve"/>
      <point x="179" y="259" type="line"/>
      <point x="179" y="283"/>
      <point x="183" y="309"/>
      <point x="190" y="323" type="curve" smooth="yes"/>
      <point x="201" y="345"/>
      <point x="235" y="366"/>
      <point x="277" y="366" type="curve" smooth="yes"/>
      <point x="332" y="366"/>
      <point x="365" y="329"/>
      <point x="374" y="293" type="curve" smooth="yes"/>
      <point x="379" y="273"/>
      <point x="382" y="243"/>
      <point x="382" y="222" type="curve" smooth="yes"/>
      <point x="385" y="68" type="line" smooth="yes"/>
      <point x="385" y="46"/>
      <point x="372" y="39"/>
      <point x="338" y="31" type="curve"/>
      <point x="338" y="0" type="line"/>
      <point x="370" y="3"/>
      <point x="398" y="4"/>
      <point x="425" y="4" type="curve" smooth="yes"/>
      <point x="451" y="4"/>
      <point x="478" y="3"/>
      <point x="510" y="0" type="curve"/>
      <point x="510" y="31" type="line"/>
      <point x="476" y="39"/>
      <point x="463" y="46"/>
    </contour>
    <contour>
      <point x="55" y="0" type="line"/>
      <point x="87" y="3"/>
      <point x="115" y="4"/>
      <point x="142" y="4" type="curve" smooth="yes"/>
      <point x="168" y="4"/>
      <point x="195" y="3"/>
      <point x="227" y="0" type="curve"/>
      <point x="227" y="31" type="line"/>
      <point x="193" y="39"/>
      <point x="180" y="46"/>
      <point x="180" y="68" type="curve" smooth="yes"/>
      <point x="179" y="259" type="line"/>
      <point x="179" y="327" type="line"/>
      <point x="198" y="370" type="line"/>
      <point x="182" y="375" type="line"/>
      <point x="176" y="440" type="line"/>
      <point x="145" y="440" type="line"/>
      <point x="119" y="407"/>
      <point x="91" y="387"/>
      <point x="37" y="373" type="curve"/>
      <point x="42" y="342" type="line"/>
      <point x="87" y="338"/>
      <point x="98" y="333"/>
      <point x="98" y="307" type="curve" smooth="yes"/>
      <point x="102" y="68" type="line" smooth="yes"/>
      <point x="102" y="46"/>
      <point x="89" y="39"/>
      <point x="55" y="31" type="curve"/>
    </contour>
  </outline>
</glyph>
<glyph name="o" format="2">
  <advance width="515"/>
  <unicode hex="006F"/>
  <outline>
    <contour>
      <point x="258.0" y="436.0" type="curve" smooth="yes"/>
      <point x="131.0" y="436.0"/>
      <point x="36.0" y="340.0"/>
      <point x="36.0" y="213.0" type="curve" smooth="yes"/>
      <point x="36.0" y="86.0"/>
      <point x="131.0" y="-9.0"/>
      <point x="258.0" y="-9.0" type="curve" smooth="yes"/>
      <point x="384.0" y="-9.0"/>
      <point x="479.0" y="86.0"/>
      <point x="479.0" y="213.0" type="curve" smooth="yes"/>
      <point x="479.0" y="340.0"/>
      <point x="384.0" y="436.0"/>
    </contour>
    <contour>
      <point x="264.0" y="41.0" type="curve" smooth="yes"/>
      <point x="212.0" y="41.0"/>
      <point x="132.0" y="76.0"/>
      <point x="132.0" y="213.0" type="curve" smooth="yes"/>
      <point x="132.0" y="346.0"/>
      <point x="188.0" y="388.0"/>
      <point x="250.0" y="388.0" type="curve" smooth="yes"/>
      <point x="304.0" y="388.0"/>
      <point x="382.0" y="353.0"/>
      <point x="382.0" y="216.0" type="curve" smooth="yes"/>
      <point x="382.0" y="83.0"/>
      <point x="328.0" y="41.0"/>
    </contour>
  </outline>
</glyph>
<glyph name="p" format="2">
  <advance width="536"/>
  <unicode hex="0070"/>
  <outline>
    <contour>
      <point x="178.0" y="-3.0" type="line"/>
      <point x="211.0" y="22.0" type="line"/>
      <point x="232.0" y="10.0"/>
      <point x="259.0" y="1.0"/>
      <point x="296.0" y="1.0" type="curve" smooth="yes"/>
      <point x="421.0" y="1.0"/>
      <point x="501.0" y="109.0"/>
      <point x="501.0" y="231.0" type="curve" smooth="yes"/>
      <point x="501.0" y="345.0"/>
      <point x="430.0" y="432.0"/>
      <point x="331.0" y="432.0" type="curve" smooth="yes"/>
      <point x="281.0" y="432.0"/>
      <point x="249.0" y="410.0"/>
      <point x="212.0" y="370.0" type="curve"/>
      <point x="183.0" y="378.0" type="line"/>
    </contour>
    <contour>
      <point x="236.0" y="-231.0" type="curve"/>
      <point x="236.0" y="-201.0" type="line"/>
      <point x="202.0" y="-194.0"/>
      <point x="189.0" y="-167.0"/>
      <point x="189.0" y="-136.0" type="curve" smooth="yes"/>
      <point x="189.0" y="76.0"/>
      <point x="187.0" y="288.0"/>
      <point x="187.0" y="439.0" type="curve"/>
      <point x="156.0" y="439.0" type="line"/>
      <point x="122.0" y="395.0"/>
      <point x="78.0" y="376.0"/>
      <point x="35.0" y="369.0" type="curve"/>
      <point x="35.0" y="336.0" type="line"/>
      <point x="84.0" y="334.0"/>
      <point x="102.0" y="317.0"/>
      <point x="103.0" y="269.0" type="curve" smooth="yes"/>
      <point x="106.0" y="106.0"/>
      <point x="107.0" y="15.0"/>
      <point x="107.0" y="-130.0" type="curve" smooth="yes"/>
      <point x="107.0" y="-169.0"/>
      <point x="90.0" y="-189.0"/>
      <point x="56.0" y="-200.0" type="curve"/>
      <point x="56.0" y="-230.0" type="line"/>
      <point x="87.0" y="-227.0"/>
      <point x="114.0" y="-226.0"/>
      <point x="152.0" y="-226.0" type="curve" smooth="yes"/>
      <point x="180.0" y="-226.0"/>
      <point x="208.0" y="-228.0"/>
    </contour>
    <contour>
      <point x="297.0" y="43.0" type="curve" smooth="yes"/>
      <point x="237.0" y="43.0"/>
      <point x="190.0" y="88.0"/>
      <point x="190.0" y="133.0" type="curve" smooth="yes"/>
      <point x="190.0" y="283.0" type="line" smooth="yes"/>
      <point x="190.0" y="341.0"/>
      <point x="236.0" y="361.0"/>
      <point x="280.0" y="361.0" type="curve" smooth="yes"/>
      <point x="363.0" y="361.0"/>
      <point x="420.0" y="288.0"/>
      <point x="420.0" y="199.0" type="curve" smooth="yes"/>
      <point x="420.0" y="122.0"/>
      <point x="377.0" y="43.0"/>
    </contour>
  </outline>
</glyph>
<glyph name="q" format="2">
  <advance width="536"/>
  <unicode hex="0071"/>
  <outline>
    <contour>
      <point x="249" y="33" type="curve" smooth="yes"/>
      <point x="169" y="33"/>
      <point x="123" y="119"/>
      <point x="123" y="201" type="curve" smooth="yes"/>
      <point x="123.0" y="304"/>
      <point x="171.7785714285714" y="378.0"/>
      <point x="253" y="378" type="curve" smooth="yes"/>
      <point x="303.6333333333333" y="378.0"/>
      <point x="346" y="347.2394366197183"/>
      <point x="346" y="300" type="curve" smooth="yes"/>
      <point x="346" y="118" type="line" smooth="yes"/>
      <point x="346" y="63"/>
      <point x="309" y="33"/>
    </contour>
    <contour>
      <point x="479" y="-230" type="curve"/>
      <point x="479" y="-199" type="line"/>
      <point x="441" y="-191"/>
      <point x="428" y="-184"/>
      <point x="428" y="-162" type="curve" smooth="yes"/>
      <point x="433" y="317" type="line" smooth="yes"/>
      <point x="433" y="343"/>
      <point x="444" y="348"/>
      <point x="489" y="352" type="curve"/>
      <point x="494" y="383" type="line"/>
      <point x="440.4717953845047" y="396.8776826780914"/>
      <point x="409.6809391249296" y="409.94342341835863"/>
      <point x="386" y="440" type="curve"/>
      <point x="355" y="440" type="line"/>
      <point x="349" y="394" type="line"/>
      <point x="333" y="389" type="line"/>
      <point x="291" y="422"/>
      <point x="259.875" y="432.0"/>
      <point x="213" y="432" type="curve" smooth="yes"/>
      <point x="109.34117647058822" y="432.0"/>
      <point x="35.0" y="335.0"/>
      <point x="35" y="221" type="curve" smooth="yes"/>
      <point x="35" y="94"/>
      <point x="105" y="-9"/>
      <point x="240" y="-9" type="curve"/>
      <point x="277" y="-9"/>
      <point x="304" y="-3"/>
      <point x="338" y="9" type="curve"/>
      <point x="351" y="0" type="line"/>
      <point x="350" y="-162" type="line" smooth="yes"/>
      <point x="350" y="-184"/>
      <point x="337" y="-191"/>
      <point x="299" y="-199" type="curve"/>
      <point x="299" y="-230" type="line"/>
      <point x="335" y="-227"/>
      <point x="362" y="-226"/>
      <point x="388" y="-226" type="curve" smooth="yes"/>
      <point x="415" y="-226"/>
      <point x="443" y="-227"/>
    </contour>
  </outline>
</glyph>
<glyph name="r" format="2">
  <advance width="363"/>
  <unicode hex="0072"/>
  <outline>
    <contour>
      <point x="185" y="259" type="line"/>
      <point x="185" y="283"/>
      <point x="191" y="308"/>
      <point x="203" y="322" type="curve" smooth="yes"/>
      <point x="212" y="334"/>
      <point x="234" y="350"/>
      <point x="268" y="350" type="curve" smooth="yes"/>
      <point x="292" y="350"/>
      <point x="315" y="342"/>
      <point x="337" y="326" type="curve"/>
      <point x="355" y="332" type="line"/>
      <point x="357" y="429" type="line"/>
      <point x="349" y="433"/>
      <point x="338" y="436"/>
      <point x="323" y="436" type="curve" smooth="yes"/>
      <point x="267" y="436"/>
      <point x="226" y="397"/>
      <point x="177" y="327" type="curve"/>
    </contour>
    <contour>
      <point x="56" y="0" type="line"/>
      <point x="88" y="3"/>
      <point x="116" y="4"/>
      <point x="143" y="4" type="curve" smooth="yes"/>
      <point x="169" y="4"/>
      <point x="196" y="3"/>
      <point x="248" y="0" type="curve"/>
      <point x="248" y="31" type="line"/>
      <point x="194" y="39"/>
      <point x="181" y="46"/>
      <point x="181" y="68" type="curve" smooth="yes"/>
      <point x="185" y="259" type="line"/>
      <point x="185" y="327" type="line"/>
      <point x="199" y="355" type="line"/>
      <point x="183" y="360" type="line"/>
      <point x="176" y="440" type="line"/>
      <point x="145" y="440" type="line"/>
      <point x="119" y="407"/>
      <point x="91" y="387"/>
      <point x="37" y="373" type="curve"/>
      <point x="42" y="342" type="line"/>
      <point x="87" y="338"/>
      <point x="97" y="333"/>
      <point x="98" y="307" type="curve" smooth="yes"/>
      <point x="103" y="68" type="line" smooth="yes"/>
      <point x="103" y="46"/>
      <point x="90" y="39"/>
      <point x="56" y="31" type="curve"/>
    </contour>
  </outline>
</glyph>
<glyph name="s" format="2">
  <advance width="375"/>
  <unicode hex="0073"/>
  <outline>
    <contour>
      <point x="204" y="437" type="line"/>
      <point x="175" y="436" type="line"/>
      <point x="143" y="431" type="line"/>
      <point x="107" y="415" type="line"/>
      <point x="83" y="398" type="line"/>
      <point x="64" y="378" type="line"/>
      <point x="54" y="359" type="line"/>
      <point x="46" y="332" type="line"/>
      <point x="46" y="279" type="line"/>
      <point x="51" y="258" type="line"/>
      <point x="71" y="226" type="line"/>
      <point x="92" y="209" type="line"/>
      <point x="117" y="194" type="line"/>
      <point x="153" y="179" type="line"/>
      <point x="196" y="164" type="line"/>
      <point x="215" y="156" type="line"/>
      <point x="231" y="145" type="line"/>
      <point x="245" y="128" type="line"/>
      <point x="251" y="114" type="line"/>
      <point x="252" y="83" type="line"/>
      <point x="243" y="68" type="line"/>
      <point x="230" y="55" type="line"/>
      <point x="216" y="49" type="line"/>
      <point x="194" y="43" type="line"/>
      <point x="162" y="47" type="line"/>
      <point x="136" y="61" type="line"/>
      <point x="118" y="76" type="line"/>
      <point x="103" y="92" type="line"/>
      <point x="95" y="104" type="line"/>
      <point x="86" y="111" type="line"/>
      <point x="75" y="114" type="line"/>
      <point x="64" y="112" type="line"/>
      <point x="57" y="94" type="line"/>
      <point x="56" y="71" type="line"/>
      <point x="62" y="27" type="line"/>
      <point x="71" y="14" type="line"/>
      <point x="88" y="8" type="line"/>
      <point x="113" y="1" type="line"/>
      <point x="155" y="-4" type="line"/>
      <point x="185" y="-5" type="line"/>
      <point x="213" y="1" type="line"/>
      <point x="246" y="10" type="line"/>
      <point x="268" y="22" type="line"/>
      <point x="293" y="40" type="line"/>
      <point x="310" y="58" type="line"/>
      <point x="320" y="75" type="line"/>
      <point x="327" y="98" type="line"/>
      <point x="329" y="127" type="line"/>
      <point x="321" y="164" type="line"/>
      <point x="307" y="188" type="line"/>
      <point x="290" y="209" type="line"/>
      <point x="275" y="222" type="line"/>
      <point x="236" y="240" type="line"/>
      <point x="202" y="253" type="line"/>
      <point x="173" y="264" type="line"/>
      <point x="150" y="277" type="line"/>
      <point x="131" y="293" type="line"/>
      <point x="124" y="307" type="line"/>
      <point x="121" y="324" type="line"/>
      <point x="122" y="341" type="line"/>
      <point x="128" y="355" type="line"/>
      <point x="147" y="375" type="line"/>
      <point x="168" y="386" type="line"/>
      <point x="189" y="389" type="line"/>
      <point x="215" y="387" type="line"/>
      <point x="233" y="380" type="line"/>
      <point x="246" y="373" type="line"/>
      <point x="259" y="361" type="line"/>
      <point x="269" y="349" type="line"/>
      <point x="278" y="333" type="line"/>
      <point x="285" y="323" type="line"/>
      <point x="292" y="317" type="line"/>
      <point x="301" y="313" type="line"/>
      <point x="311" y="316" type="line"/>
      <point x="318" y="322" type="line"/>
      <point x="321" y="334" type="line"/>
      <point x="323" y="354" type="line"/>
      <point x="321" y="401" type="line"/>
      <point x="314" y="411" type="line"/>
      <point x="305" y="420" type="line"/>
      <point x="288" y="427" type="line"/>
      <point x="264" y="433" type="line"/>
      <point x="241" y="436" type="line"/>
    </contour>
  </outline>
</glyph>
<glyph name="t" format="2">
  <advance width="352"/>
  <unicode hex="0074"/>
  <outline>
    <contour>
      <point x="108" y="361" type="line"/>
      <point x="195" y="405" type="line"/>
      <point x="182" y="416" type="line"/>
      <point x="186" y="530" type="line"/>
      <point x="147" y="530" type="line"/>
      <point x="126" y="464"/>
      <point x="98" y="415"/>
      <point x="35" y="380" type="curve"/>
    </contour>
    <contour>
      <point x="35" y="344" type="line"/>
      <point x="321" y="347" type="line"/>
      <point x="331" y="357" type="line"/>
      <point x="334" y="397" type="line"/>
      <point x="324" y="407" type="line"/>
      <point x="195" y="405" type="line"/>
      <point x="35" y="380" type="line"/>
    </contour>
    <contour>
      <point x="69" y="352" type="line"/>
      <point x="89" y="331" type="line"/>
      <point x="91" y="139" type="line" smooth="yes"/>
      <point x="91" y="97"/>
      <point x="96" y="63"/>
      <point x="122" y="37" type="curve" smooth="yes"/>
      <point x="149" y="8"/>
      <point x="194" y="-4"/>
      <point x="239" y="-4" type="curve"/>
      <point x="341" y="53" type="line"/>
      <point x="333" y="74" type="line"/>
      <point x="311" y="67"/>
      <point x="288" y="64"/>
      <point x="272" y="64" type="curve" smooth="yes"/>
      <point x="212" y="64"/>
      <point x="178" y="108"/>
      <point x="176" y="156" type="curve" smooth="yes"/>
      <point x="173" y="210"/>
      <point x="173" y="271"/>
      <point x="174" y="331" type="curve"/>
      <point x="194" y="354" type="line"/>
    </contour>
  </outline>
</glyph>
<glyph name="u" format="2">
  <advance width="554"/>
  <unicode hex="0075"/>
  <outline>
    <contour>
      <point x="83" y="363" type="curve" smooth="yes"/>
      <point x="83" y="148" type="line" smooth="yes"/>
      <point x="83" y="115"/>
      <point x="86" y="79"/>
      <point x="103" y="52" type="curve" smooth="yes"/>
      <point x="123" y="19"/>
      <point x="162" y="-2"/>
      <point x="213" y="-2" type="curve" smooth="yes"/>
      <point x="268" y="-2"/>
      <point x="319" y="40"/>
      <point x="370" y="85" type="curve"/>
      <point x="361" y="116" type="line"/>
      <point x="336" y="90"/>
      <point x="304" y="63"/>
      <point x="261" y="63" type="curve" smooth="yes"/>
      <point x="180" y="63"/>
      <point x="162" y="143"/>
      <point x="164" y="200" type="curve" smooth="yes"/>
      <point x="169" y="363" type="line" smooth="yes"/>
      <point x="170" y="385"/>
      <point x="180" y="394"/>
      <point x="209" y="400" type="curve"/>
      <point x="209" y="431" type="line"/>
      <point x="184" y="428"/>
      <point x="157" y="427"/>
      <point x="127" y="427" type="curve" smooth="yes"/>
      <point x="96" y="427"/>
      <point x="68" y="428"/>
      <point x="36" y="431" type="curve"/>
      <point x="36" y="400" type="line"/>
      <point x="70" y="392"/>
      <point x="83.0" y="385.0"/>
    </contour>
    <contour>
      <point x="359" y="363" type="curve" smooth="yes"/>
      <point x="362.0" y="240"/>
      <point x="361" y="162"/>
      <point x="357" y="107" type="curve"/>
      <point x="337" y="58" type="line"/>
      <point x="358" y="58" type="line"/>
      <point x="376" y="27"/>
      <point x="404" y="-1"/>
      <point x="439" y="-1" type="curve"/>
      <point x="518" y="64" type="line"/>
      <point x="500" y="84" type="line"/>
      <point x="491" y="77"/>
      <point x="482" y="74"/>
      <point x="474" y="74" type="curve" smooth="yes"/>
      <point x="452" y="74"/>
      <point x="438" y="95"/>
      <point x="439" y="128" type="curve" smooth="yes"/>
      <point x="445" y="363" type="line" smooth="yes"/>
      <point x="446" y="385"/>
      <point x="458" y="392"/>
      <point x="492" y="400" type="curve"/>
      <point x="492" y="431" type="line"/>
      <point x="460" y="428"/>
      <point x="433" y="427"/>
      <point x="403" y="427" type="curve" smooth="yes"/>
      <point x="372" y="427"/>
      <point x="344" y="428"/>
      <point x="319" y="431" type="curve"/>
      <point x="319" y="400" type="line"/>
      <point x="348" y="394"/>
      <point x="358" y="385"/>
    </contour>
  </outline>
</glyph>
<glyph name="v" format="2">
  <advance width="460"/>
  <unicode hex="0076"/>
  <outline>
    <contour>
      <point x="335" y="343" type="curve" smooth="yes"/>
      <point x="314" y="279"/>
      <point x="289" y="214"/>
      <point x="254" y="142" type="curve"/>
      <point x="239" y="142" type="line"/>
      <point x="206" y="214"/>
      <point x="180" y="279"/>
      <point x="159" y="343" type="curve" smooth="yes"/>
      <point x="146" y="384"/>
      <point x="155" y="390"/>
      <point x="184" y="396" type="curve"/>
      <point x="184" y="431" type="line"/>
      <point x="159" y="428"/>
      <point x="132" y="427"/>
      <point x="102" y="427" type="curve" smooth="yes"/>
      <point x="71" y="427"/>
      <point x="43" y="428"/>
      <point x="11" y="431" type="curve"/>
      <point x="11" y="396" type="line"/>
      <point x="45" y="388"/>
      <point x="50" y="382"/>
      <point x="69" y="338" type="curve" smooth="yes"/>
      <point x="117" y="225"/>
      <point x="167" y="103"/>
      <point x="205" y="0" type="curve"/>
      <point x="239" y="0" type="line"/>
      <point x="281" y="103"/>
      <point x="336" y="225"/>
      <point x="387" y="338" type="curve" smooth="yes"/>
      <point x="405" y="378"/>
      <point x="419" y="390"/>
      <point x="448" y="396" type="curve"/>
      <point x="448" y="431" type="line"/>
      <point x="423" y="428"/>
      <point x="396" y="427"/>
      <point x="376" y="427.0" type="curve" smooth="yes"/>
      <point x="355" y="427"/>
      <point x="327" y="428"/>
      <point x="295" y="431" type="curve"/>
      <point x="295" y="396" type="line"/>
      <point x="329" y="388"/>
      <point x="347" y="379"/>
    </contour>
  </outline>
</glyph>
<glyph name="w" format="2">
  <advance width="684"/>
  <unicode hex="0077"/>
  <outline>
    <contour>
      <point x="561" y="341" type="curve" smooth="yes"/>
      <point x="546" y="277"/>
      <point x="526" y="214"/>
      <point x="498" y="142" type="curve"/>
      <point x="483" y="142" type="line"/>
      <point x="451" y="214"/>
      <point x="425" y="279"/>
      <point x="373" y="415" type="curve"/>
      <point x="338" y="415" type="line"/>
      <point x="322" y="344"/>
      <point x="279" y="217"/>
      <point x="249" y="142" type="curve"/>
      <point x="234" y="142" type="line"/>
      <point x="204" y="214"/>
      <point x="180" y="279"/>
      <point x="158" y="343" type="curve" smooth="yes"/>
      <point x="144" y="384"/>
      <point x="155" y="390"/>
      <point x="184" y="396" type="curve"/>
      <point x="184" y="431" type="line"/>
      <point x="159" y="428"/>
      <point x="132" y="427"/>
      <point x="102" y="427" type="curve" smooth="yes"/>
      <point x="71" y="427"/>
      <point x="43" y="428"/>
      <point x="11" y="431" type="curve"/>
      <point x="11" y="396" type="line"/>
      <point x="45" y="388"/>
      <point x="50" y="382"/>
      <point x="73" y="332" type="curve" smooth="yes"/>
      <point x="121" y="225"/>
      <point x="173" y="103"/>
      <point x="212" y="0" type="curve"/>
      <point x="243" y="0" type="line"/>
      <point x="276" y="103"/>
      <point x="304" y="177"/>
      <point x="337" y="258" type="curve"/>
      <point x="352" y="258" type="line"/>
      <point x="391" y="169"/>
      <point x="427" y="79"/>
      <point x="456" y="0" type="curve"/>
      <point x="491" y="0" type="line"/>
      <point x="526" y="103"/>
      <point x="567" y="225"/>
      <point x="613" y="338" type="curve" smooth="yes"/>
      <point x="629" y="378"/>
      <point x="645" y="390"/>
      <point x="674" y="396" type="curve"/>
      <point x="674" y="431" type="line"/>
      <point x="649" y="428"/>
      <point x="622" y="427"/>
      <point x="602" y="427" type="curve" smooth="yes"/>
      <point x="581" y="427"/>
      <point x="553" y="428"/>
      <point x="521" y="431" type="curve"/>
      <point x="521" y="396" type="line"/>
      <point x="555" y="388"/>
      <point x="569" y="377"/>
    </contour>
  </outline>
</glyph>
<glyph name="x" format="2">
  <advance width="468"/>
  <unicode hex="0078"/>
  <outline>
    <contour>
      <point x="271" y="1" type="line"/>
      <point x="298" y="3"/>
      <point x="336" y="4"/>
      <point x="366" y="4" type="curve" smooth="yes"/>
      <point x="398" y="4"/>
      <point x="432" y="3"/>
      <point x="453" y="0" type="curve"/>
      <point x="453" y="28" type="line"/>
      <point x="420" y="33"/>
      <point x="403" y="42"/>
      <point x="386" y="67" type="curve" smooth="yes"/>
      <point x="191" y="353" type="line" smooth="yes"/>
      <point x="169" y="385"/>
      <point x="177" y="399"/>
      <point x="206" y="409" type="curve"/>
      <point x="206" y="430" type="line"/>
      <point x="180" y="428"/>
      <point x="160" y="427"/>
      <point x="130" y="427" type="curve" smooth="yes"/>
      <point x="98" y="427"/>
      <point x="54" y="429"/>
      <point x="15" y="431" type="curve"/>
      <point x="15" y="408" type="line"/>
      <point x="58" y="398"/>
      <point x="72" y="384"/>
      <point x="89" y="360" type="curve" smooth="yes"/>
      <point x="289" y="79" type="line" smooth="yes"/>
      <point x="314" y="44"/>
      <point x="301" y="32"/>
      <point x="271" y="22" type="curve"/>
    </contour>
    <contour>
      <point x="25" y="0" type="line"/>
      <point x="47" y="3"/>
      <point x="69" y="4"/>
      <point x="102" y="4" type="curve" smooth="yes"/>
      <point x="132" y="4"/>
      <point x="153" y="3"/>
      <point x="180" y="1" type="curve"/>
      <point x="180" y="22" type="line"/>
      <point x="150" y="32"/>
      <point x="136" y="43"/>
      <point x="159" y="77" type="curve" smooth="yes"/>
      <point x="231" y="183" type="line"/>
      <point x="221" y="235" type="line"/>
      <point x="96" y="67" type="line" smooth="yes"/>
      <point x="78" y="43"/>
      <point x="58" y="33"/>
      <point x="25" y="26" type="curve"/>
    </contour>
    <contour>
      <point x="246" y="196" type="line"/>
      <point x="371" y="364" type="line" smooth="yes"/>
      <point x="389" y="388"/>
      <point x="409" y="398"/>
      <point x="442" y="405" type="curve"/>
      <point x="442" y="431" type="line"/>
      <point x="421" y="428"/>
      <point x="396" y="427"/>
      <point x="369" y="427" type="curve" smooth="yes"/>
      <point x="339" y="427"/>
      <point x="318" y="428"/>
      <point x="286" y="430" type="curve"/>
      <point x="286" y="407" type="line"/>
      <point x="321" y="399"/>
      <point x="330" y="380"/>
      <point x="312" y="354" type="curve" smooth="yes"/>
      <point x="238" y="248" type="line"/>
    </contour>
  </outline>
</glyph>
<glyph name="y" format="2">
  <advance width="495"/>
  <unicode hex="0079"/>
  <outline>
    <contour>
      <point x="238" y="39" type="line"/>
      <point x="198" y="-68"/>
      <point x="136" y="-127"/>
      <point x="57" y="-127" type="curve" smooth="yes"/>
      <point x="38" y="-127"/>
      <point x="30" y="-120"/>
      <point x="22" y="-111" type="curve"/>
      <point x="5" y="-111" type="line"/>
      <point x="5" y="-179" type="line"/>
      <point x="16" y="-189" type="line"/>
      <point x="164" y="-193"/>
      <point x="231" y="-83"/>
      <point x="270" y="0" type="curve" smooth="yes"/>
      <point x="319" y="103"/>
      <point x="368" y="225"/>
      <point x="419" y="338" type="curve" smooth="yes"/>
      <point x="437" y="378"/>
      <point x="451" y="390"/>
      <point x="480" y="396" type="curve"/>
      <point x="480" y="431" type="line"/>
      <point x="455" y="428"/>
      <point x="428" y="427"/>
      <point x="408" y="427" type="curve" smooth="yes"/>
      <point x="386" y="427"/>
      <point x="357" y="428"/>
      <point x="324" y="431" type="curve"/>
      <point x="324" y="399" type="line"/>
      <point x="358" y="393"/>
      <point x="376" y="379"/>
      <point x="364" y="343" type="curve" smooth="yes"/>
      <point x="342" y="279"/>
      <point x="317" y="214"/>
      <point x="282" y="132" type="curve"/>
      <point x="267" y="132" type="line"/>
      <point x="227" y="214"/>
      <point x="196" y="279"/>
      <point x="171" y="343" type="curve" smooth="yes"/>
      <point x="155" y="384"/>
      <point x="167" y="394"/>
      <point x="196" y="400" type="curve"/>
      <point x="196" y="431" type="line"/>
      <point x="171" y="428"/>
      <point x="144" y="427"/>
      <point x="114" y="427" type="curve" smooth="yes"/>
      <point x="83" y="427"/>
      <point x="45" y="428"/>
      <point x="13" y="431" type="curve"/>
      <point x="13" y="396" type="line"/>
      <point x="47" y="388"/>
      <point x="61" y="379"/>
      <point x="81" y="338" type="curve" smooth="yes"/>
      <point x="136" y="225"/>
      <point x="195" y="103"/>
      <point x="240" y="0" type="curve"/>
    </contour>
  </outline>
</glyph>
<glyph name="z" format="2">
  <advance width="460"/>
  <unicode hex="007A"/>
  <outline>
    <contour>
      <point x="275" y="328" type="line"/>
      <point x="32" y="26" type="line"/>
      <point x="47" y="-2" type="line"/>
      <point x="100" y="3"/>
      <point x="152" y="7"/>
      <point x="205" y="7" type="curve" smooth="yes"/>
      <point x="268" y="8"/>
      <point x="343" y="4"/>
      <point x="406" y="0" type="curve"/>
      <point x="434" y="126" type="line"/>
      <point x="403" y="132" type="line"/>
      <point x="378" y="94"/>
      <point x="348" y="82"/>
      <point x="307" y="82" type="curve" smooth="yes"/>
      <point x="180" y="82" type="line"/>
      <point x="166" y="106" type="line"/>
      <point x="414" y="409" type="line"/>
      <point x="398" y="432" type="line"/>
      <point x="336" y="428"/>
      <point x="275" y="427"/>
      <point x="213" y="426" type="curve" smooth="yes"/>
      <point x="158" y="426"/>
      <point x="90" y="427"/>
      <point x="35" y="431" type="curve"/>
      <point x="35" y="305" type="line"/>
      <point x="62" y="304" type="line"/>
      <point x="80" y="331"/>
      <point x="97" y="352"/>
      <point x="185" y="352" type="curve" smooth="yes"/>
      <point x="257" y="352" type="line"/>
    </contour>
  </outline>
</glyph>
<glyph name="exclamdown" format="2">
  <advance width="178"/>
  <unicode hex="00A1"/>
  <outline>
    <contour>
      <point x="88" y="323" type="curve" smooth="yes"/>
      <point x="122" y="323"/>
      <point x="146" y="347"/>
      <point x="146" y="381" type="curve" smooth="yes"/>
      <point x="146" y="415"/>
      <point x="122" y="439"/>
      <point x="88" y="439" type="curve" smooth="yes"/>
      <point x="54" y="439"/>
      <point x="30" y="415"/>
      <point x="30" y="381" type="curve" smooth="yes"/>
      <point x="30" y="347"/>
      <point x="54" y="323"/>
    </contour>
    <contour>
      <point x="47" y="-230" type="line"/>
      <point x="144" y="-193" type="line"/>
      <point x="121" y="4"/>
      <point x="106" y="147"/>
      <point x="122" y="220" type="curve"/>
      <point x="99" y="234" type="line"/>
      <point x="61" y="156" type="line"/>
      <point x="60" y="22"/>
      <point x="52" y="-111"/>
      <point x="35" y="-216" type="curve"/>
    </contour>
  </outline>
</glyph>
<glyph name="questiondown" format="2">
  <advance width="443"/>
  <unicode hex="00BF"/>
  <outline>
    <contour>
      <point x="253" y="320" type="curve" smooth="yes"/>
      <point x="286" y="320"/>
      <point x="312" y="345"/>
      <point x="312" y="380" type="curve" smooth="yes"/>
      <point x="312" y="415"/>
      <point x="286" y="440"/>
      <point x="253" y="440" type="curve" smooth="yes"/>
      <point x="220" y="440"/>
      <point x="194" y="415"/>
      <point x="194" y="380" type="curve" smooth="yes"/>
      <point x="194" y="345"/>
      <point x="220" y="320"/>
    </contour>
    <contour>
      <point x="239" y="-202" type="curve" smooth="yes"/>
      <point x="281" y="-202"/>
      <point x="315" y="-191"/>
      <point x="342" y="-170" type="curve"/>
      <point x="411" y="-67" type="line"/>
      <point x="383" y="-44" type="line"/>
      <point x="351" y="-90"/>
      <point x="311" y="-101"/>
      <point x="252" y="-101" type="curve" smooth="yes"/>
      <point x="189.0" y="-101.0"/>
      <point x="119.0" y="-63.434782608695656"/>
      <point x="119" y="19" type="curve" smooth="yes"/>
      <point x="119.0" y="126.30392156862744"/>
      <point x="217.26697491792848" y="179.08263509364454"/>
      <point x="343" y="218" type="curve"/>
      <point x="323" y="257" type="line"/>
      <point x="149.16270311208086" y="217.03740301427146"/>
      <point x="35.0" y="124.5375939849624"/>
      <point x="35" y="-4" type="curve" smooth="yes"/>
      <point x="35.0" y="-160.96373056994818"/>
      <point x="166.0" y="-202.0"/>
    </contour>
  </outline>
</glyph>
<glyph name="germandbls" format="2">
  <advance width="543"/>
  <unicode hex="00DF"/>
  <outline>
    <contour>
      <point x="328" y="710" type="line"/>
      <point x="286" y="706" type="line"/>
      <point x="242" y="693" type="line"/>
      <point x="202" y="665" type="line"/>
      <point x="180" y="644" type="line"/>
      <point x="156" y="612" type="line"/>
      <point x="132" y="570" type="line"/>
      <point x="117" y="527" type="line"/>
      <point x="108" y="484" type="line"/>
      <point x="98" y="446" type="line"/>
      <point x="86" y="417" type="line"/>
      <point x="70" y="399" type="line"/>
      <point x="52" y="383" type="line"/>
      <point x="37" y="370" type="line"/>
      <point x="36" y="363" type="line"/>
      <point x="36" y="351" type="line"/>
      <point x="46" y="347" type="line"/>
      <point x="62" y="344" type="line"/>
      <point x="81" y="342" type="line"/>
      <point x="90" y="337" type="line"/>
      <point x="95" y="329" type="line"/>
      <point x="97" y="320" type="line"/>
      <point x="103" y="210" type="line"/>
      <point x="106" y="104" type="line"/>
      <point x="105" y="70" type="line"/>
      <point x="99" y="52" type="line"/>
      <point x="86" y="40" type="line"/>
      <point x="74" y="34" type="line"/>
      <point x="62" y="28" type="line"/>
      <point x="56" y="22" type="line"/>
      <point x="55" y="8" type="line"/>
      <point x="64" y="-1" type="line"/>
      <point x="96" y="1" type="line"/>
      <point x="150" y="3" type="line"/>
      <point x="176" y="-1" type="line"/>
      <point x="200" y="-4" type="line"/>
      <point x="221" y="-1" type="line"/>
      <point x="227" y="5" type="line"/>
      <point x="226" y="16" type="line"/>
      <point x="221" y="23" type="line"/>
      <point x="206" y="30" type="line"/>
      <point x="191" y="39" type="line"/>
      <point x="183" y="51" type="line"/>
      <point x="179" y="66" type="line"/>
      <point x="180" y="345" type="line"/>
      <point x="185" y="492" type="line"/>
      <point x="193" y="548" type="line"/>
      <point x="202" y="574" type="line"/>
      <point x="223" y="613" type="line"/>
      <point x="243" y="635" type="line"/>
      <point x="263" y="650" type="line"/>
      <point x="283" y="659" type="line"/>
      <point x="301" y="664" type="line"/>
      <point x="325" y="662" type="line"/>
      <point x="345" y="655" type="line"/>
      <point x="363" y="647" type="line"/>
      <point x="378" y="636" type="line"/>
      <point x="394" y="611" type="line"/>
      <point x="405" y="588" type="line"/>
      <point x="409" y="564" type="line"/>
      <point x="410" y="541" type="line"/>
      <point x="405" y="511" type="line"/>
      <point x="396" y="486" type="line"/>
      <point x="381" y="462" type="line"/>
      <point x="364" y="437" type="line"/>
      <point x="345" y="410" type="line"/>
      <point x="336" y="392" type="line"/>
      <point x="328" y="365" type="line"/>
      <point x="324" y="325" type="line"/>
      <point x="329" y="293" type="line"/>
      <point x="337" y="276" type="line"/>
      <point x="347" y="264" type="line"/>
      <point x="376" y="230" type="line"/>
      <point x="396" y="211" type="line"/>
      <point x="414" y="196" type="line"/>
      <point x="429" y="180" type="line"/>
      <point x="441" y="164" type="line"/>
      <point x="449" y="137" type="line"/>
      <point x="452" y="123" type="line"/>
      <point x="450" y="100" type="line"/>
      <point x="445" y="77" type="line"/>
      <point x="435" y="60" type="line"/>
      <point x="424" y="50" type="line"/>
      <point x="408" y="41" type="line"/>
      <point x="392" y="38" type="line"/>
      <point x="367" y="39" type="line"/>
      <point x="351" y="45" type="line"/>
      <point x="339" y="53" type="line"/>
      <point x="326" y="65" type="line"/>
      <point x="316" y="71" type="line"/>
      <point x="307" y="73" type="line"/>
      <point x="300" y="69" type="line"/>
      <point x="293" y="57" type="line"/>
      <point x="282" y="37" type="line"/>
      <point x="277" y="22" type="line"/>
      <point x="279" y="13" type="line"/>
      <point x="284" y="6" type="line"/>
      <point x="296" y="-2" type="line"/>
      <point x="337" y="-14" type="line"/>
      <point x="367" y="-12" type="line"/>
      <point x="394" y="-6" type="line"/>
      <point x="412" y="0" type="line"/>
      <point x="432" y="9" type="line"/>
      <point x="450" y="25" type="line"/>
      <point x="470" y="46" type="line"/>
      <point x="482" y="67" type="line"/>
      <point x="493" y="91" type="line"/>
      <point x="500" y="114" type="line"/>
      <point x="503" y="134" type="line"/>
      <point x="503" y="197" type="line"/>
      <point x="496" y="229" type="line"/>
      <point x="481" y="258" type="line"/>
      <point x="462" y="279" type="line"/>
      <point x="438" y="304" type="line"/>
      <point x="416" y="328" type="line"/>
      <point x="399" y="346" type="line"/>
      <point x="385" y="371" type="line"/>
      <point x="384" y="394" type="line"/>
      <point x="394" y="416" type="line"/>
      <point x="408" y="435" type="line"/>
      <point x="428" y="455" type="line"/>
      <point x="444" y="476" type="line"/>
      <point x="455" y="494" type="line"/>
      <point x="460" y="506" type="line"/>
      <point x="466" y="523" type="line"/>
      <point x="474" y="567" type="line"/>
      <point x="473" y="596" type="line"/>
      <point x="464" y="624" type="line"/>
      <point x="441" y="660" type="line"/>
      <point x="420" y="679" type="line"/>
      <point x="402" y="692" type="line"/>
      <point x="371" y="705" type="line"/>
      <point x="346" y="709" type="line"/>
    </contour>
  </outline>
</glyph>
<glyph name="adieresis" format="2">
  <advance width="457"/>
  <unicode hex="00E4"/>
  <outline>
    <contour>
      <point x="298" y="610" type="line"/>
      <point x="292" y="607" type="line"/>
      <point x="275" y="591" type="line"/>
      <point x="262" y="566" type="line"/>
      <point x="262" y="551" type="line"/>
      <point x="263" y="535" type="line"/>
      <point x="272" y="516" type="line"/>
      <point x="298" y="501" type="line"/>
      <point x="314" y="500" type="line"/>
      <point x="334" y="501" type="line"/>
      <point x="361" y="527" type="line"/>
      <point x="362" y="554" type="line"/>
      <point x="361" y="568" type="line"/>
      <point x="360" y="582" type="line"/>
      <point x="345" y="605" type="line"/>
      <point x="324" y="614" type="line"/>
      <point x="304" y="614" type="line"/>
    </contour>
    <contour>
      <point x="135" y="604" type="line"/>
      <point x="122" y="597" type="line"/>
      <point x="110" y="576" type="line"/>
      <point x="105" y="552" type="line"/>
      <point x="113" y="522" type="line"/>
      <point x="133" y="501" type="line"/>
      <point x="157" y="495" type="line"/>
      <point x="181" y="501" type="line"/>
      <point x="200" y="517" type="line"/>
      <point x="211" y="542" type="line"/>
      <point x="211" y="575" type="line"/>
      <point x="198" y="594" type="line"/>
      <point x="180" y="609" type="line"/>
      <point x="149" y="611" type="line"/>
    </contour>
    <contour>
      <point x="131" y="429" type="line"/>
      <point x="100" y="425" type="line"/>
      <point x="85" y="419" type="line"/>
      <point x="76" y="408" type="line"/>
      <point x="76" y="323" type="line"/>
      <point x="90" y="312" type="line"/>
      <point x="107" y="312" type="line"/>
      <point x="117" y="325" type="line"/>
      <point x="135" y="357" type="line"/>
      <point x="158" y="372" type="line"/>
      <point x="198" y="383" type="line"/>
      <point x="226" y="379" type="line"/>
      <point x="259" y="362" type="line"/>
      <point x="272" y="342" type="line"/>
      <point x="282" y="296" type="line"/>
      <point x="281" y="281" type="line"/>
      <point x="279" y="266" type="line"/>
      <point x="270" y="256" type="line"/>
      <point x="234" y="248" type="line"/>
      <point x="146" y="223" type="line"/>
      <point x="111" y="206" type="line"/>
      <point x="68" y="170" type="line"/>
      <point x="50" y="145" type="line"/>
      <point x="40" y="109" type="line"/>
      <point x="41" y="87" type="line"/>
      <point x="43" y="65" type="line"/>
      <point x="60" y="35" type="line"/>
      <point x="77" y="13" type="line"/>
      <point x="115" y="-5" type="line"/>
      <point x="149" y="-5" type="line"/>
      <point x="182" y="3" type="line"/>
      <point x="222" y="18" type="line"/>
      <point x="265" y="43" type="line"/>
      <point x="284" y="43" type="line"/>
      <point x="322" y="6" type="line"/>
      <point x="341" y="-5" type="line"/>
      <point x="357" y="-5" type="line"/>
      <point x="380" y="10" type="line"/>
      <point x="437" y="63" type="line"/>
      <point x="437" y="82" type="line"/>
      <point x="429" y="89" type="line"/>
      <point x="400" y="77" type="line"/>
      <point x="386" y="77" type="line"/>
      <point x="365" y="91" type="line"/>
      <point x="358" y="127" type="line"/>
      <point x="361" y="211" type="line"/>
      <point x="364" y="295" type="line"/>
      <point x="361" y="325" type="line"/>
      <point x="358" y="356" type="line"/>
      <point x="349" y="383" type="line"/>
      <point x="337" y="402" type="line"/>
      <point x="304" y="421" type="line"/>
      <point x="268" y="431" type="line"/>
      <point x="161" y="433" type="line"/>
    </contour>
    <contour>
      <point x="275" y="214" type="line"/>
      <point x="279" y="212" type="line"/>
      <point x="283" y="185" type="line"/>
      <point x="283" y="152" type="line"/>
      <point x="283" y="118" type="line"/>
      <point x="272" y="96" type="line"/>
      <point x="240" y="65" type="line"/>
      <point x="205" y="53" type="line"/>
      <point x="185" y="53" type="line"/>
      <point x="164" y="59" type="line"/>
      <point x="150" y="72" type="line"/>
      <point x="137" y="100" type="line"/>
      <point x="137" y="150" type="line"/>
      <point x="148" y="166" type="line"/>
      <point x="170" y="191" type="line"/>
      <point x="209" y="208" type="line"/>
      <point x="243" y="217" type="line"/>
      <point x="271" y="217" type="line"/>
    </contour>
  </outline>
</glyph>
<glyph name="ae" format="2">
  <advance width="690"/>
  <unicode hex="00E6"/>
  <outline>
    <contour>
      <point x="459" y="387" type="curve" smooth="yes"/>
      <point x="506" y="387"/>
      <point x="541" y="353"/>
      <point x="541" y="319" type="curve" smooth="yes"/>
      <point x="541" y="306"/>
      <point x="533" y="295"/>
      <point x="516" y="295" type="curve" smooth="yes"/>
      <point x="371" y="295" type="line"/>
      <point x="375" y="344"/>
      <point x="407" y="387"/>
    </contour>
    <contour>
      <point x="639" y="64" type="line"/>
      <point x="615" y="92" type="line"/>
    </contour>
    <contour>
      <point x="504" y="-8" type="curve"/>
      <point x="551" y="9"/>
      <point x="595" y="31"/>
      <point x="639" y="64" type="curve"/>
      <point x="615" y="92" type="line"/>
      <point x="586" y="72"/>
      <point x="554" y="63"/>
      <point x="517" y="63" type="curve" smooth="yes"/>
      <point x="404" y="63"/>
      <point x="352" y="138"/>
      <point x="363" y="249" type="curve"/>
      <point x="633" y="249" type="line"/>
      <point x="650" y="267" type="line"/>
      <point x="642" y="348"/>
      <point x="581" y="436"/>
      <point x="476" y="436" type="curve" smooth="yes"/>
      <point x="357" y="436"/>
      <point x="279" y="341"/>
      <point x="279" y="214" type="curve" smooth="yes"/>
      <point x="279" y="87"/>
      <point x="355" y="-8"/>
    </contour>
    <contour>
      <point x="155" y="-5" type="curve" smooth="yes"/>
      <point x="207" y="-5"/>
      <point x="259" y="19"/>
      <point x="305" y="68" type="curve"/>
      <point x="326" y="68" type="line"/>
      <point x="302" y="123" type="line"/>
      <point x="261" y="64"/>
      <point x="227" y="53"/>
      <point x="198" y="53" type="curve" smooth="yes"/>
      <point x="153" y="53"/>
      <point x="132" y="81"/>
      <point x="132" y="115" type="curve" smooth="yes"/>
      <point x="132" y="173"/>
      <point x="191" y="216"/>
      <point x="282" y="219" type="curve"/>
      <point x="353" y="359" type="line"/>
      <point x="329" y="402"/>
      <point x="292" y="435"/>
      <point x="217" y="435" type="curve" smooth="yes"/>
      <point x="181" y="435"/>
      <point x="141" y="433"/>
      <point x="78" y="421" type="curve"/>
      <point x="78" y="315" type="line"/>
      <point x="111" y="315" type="line"/>
      <point x="136" y="364"/>
      <point x="157" y="379"/>
      <point x="198" y="379" type="curve" smooth="yes"/>
      <point x="254" y="379"/>
      <point x="282" y="352"/>
      <point x="282" y="269" type="curve" smooth="yes"/>
      <point x="282" y="256" type="line"/>
      <point x="198" y="246"/>
      <point x="153" y="226"/>
      <point x="120" y="208" type="curve" smooth="yes"/>
      <point x="77" y="186"/>
      <point x="40" y="145"/>
      <point x="40" y="93" type="curve" smooth="yes"/>
      <point x="40" y="39"/>
      <point x="81" y="-5"/>
    </contour>
  </outline>
</glyph>
<glyph name="odieresis" format="2">
  <advance width="515"/>
  <unicode hex="00F6"/>
  <outline>
    <contour>
      <point x="182" y="507" type="curve" smooth="yes"/>
      <point x="212" y="507"/>
      <point x="236" y="531"/>
      <point x="236" y="565" type="curve" smooth="yes"/>
      <point x="236" y="599"/>
      <point x="212" y="623"/>
      <point x="182" y="623" type="curve" smooth="yes"/>
      <point x="152" y="623"/>
      <point x="128" y="599"/>
      <point x="128" y="565" type="curve" smooth="yes"/>
      <point x="128" y="531"/>
      <point x="152" y="507"/>
    </contour>
    <contour>
      <point x="342" y="507" type="curve" smooth="yes"/>
      <point x="372" y="507"/>
      <point x="396" y="531"/>
      <point x="396" y="565" type="curve" smooth="yes"/>
      <point x="396" y="599"/>
      <point x="372" y="623"/>
      <point x="342" y="623" type="curve" smooth="yes"/>
      <point x="312" y="623"/>
      <point x="288" y="599"/>
      <point x="288" y="565" type="curve" smooth="yes"/>
      <point x="288" y="531"/>
      <point x="312" y="507"/>
    </contour>
    <contour>
      <point x="258" y="-9" type="curve" smooth="yes"/>
      <point x="384" y="-9"/>
      <point x="479" y="87"/>
      <point x="479" y="214" type="curve" smooth="yes"/>
      <point x="479" y="341"/>
      <point x="384" y="436"/>
      <point x="258" y="436" type="curve" smooth="yes"/>
      <point x="131" y="436"/>
      <point x="36" y="341"/>
      <point x="36" y="214" type="curve" smooth="yes"/>
      <point x="36" y="87"/>
      <point x="131" y="-9"/>
    </contour>
    <contour>
      <point x="259" y="39" type="curve" smooth="yes"/>
      <point x="178" y="38"/>
      <point x="128" y="112"/>
      <point x="128" y="214" type="curve" smooth="yes"/>
      <point x="128" y="271"/>
      <point x="144" y="386"/>
      <point x="253" y="386" type="curve" smooth="yes"/>
      <point x="316" y="386"/>
      <point x="381" y="344"/>
      <point x="381" y="211" type="curve" smooth="yes"/>
      <point x="381" y="74"/>
      <point x="312" y="39"/>
    </contour>
  </outline>
</glyph>
<glyph name="udieresis" format="2">
  <advance width="552"/>
  <unicode hex="00FC"/>
  <outline>
    <contour>
      <point x="332" y="618" type="line"/>
      <point x="322" y="611" type="line"/>
      <point x="309" y="591" type="line"/>
      <point x="302" y="558" type="line"/>
      <point x="313" y="530" type="line"/>
      <point x="341" y="514" type="line"/>
      <point x="368" y="514" type="line"/>
      <point x="389" y="526" type="line"/>
      <point x="403" y="547" type="line"/>
      <point x="403" y="567" type="line"/>
      <point x="403" y="588" type="line"/>
      <point x="392" y="610" type="line"/>
      <point x="371" y="624" type="line"/>
      <point x="342" y="624" type="line"/>
    </contour>
    <contour>
      <point x="172" y="614" type="line"/>
      <point x="161" y="606" type="line"/>
      <point x="147" y="585" type="line"/>
      <point x="147" y="552" type="line"/>
      <point x="160" y="524" type="line"/>
      <point x="183" y="508" type="line"/>
      <point x="212" y="508" type="line"/>
      <point x="233" y="523" type="line"/>
      <point x="247" y="548" type="line"/>
      <point x="249" y="564" type="line"/>
      <point x="250" y="579" type="line"/>
      <point x="235" y="607" type="line"/>
      <point x="215" y="621" type="line"/>
      <point x="182" y="621" type="line"/>
    </contour>
    <contour>
      <point x="319" y="398" type="line"/>
      <point x="348" y="388"/>
      <point x="356" y="373"/>
      <point x="358" y="335" type="curve" smooth="yes"/>
      <point x="363" y="240"/>
      <point x="365" y="162"/>
      <point x="356" y="108" type="curve"/>
      <point x="335" y="58" type="line"/>
      <point x="359" y="58" type="line"/>
      <point x="407" y="-2" type="line"/>
      <point x="439" y="-2" type="line"/>
      <point x="519" y="57" type="line"/>
      <point x="505" y="81" type="line"/>
      <point x="458" y="58"/>
      <point x="439" y="97"/>
      <point x="440" y="133" type="curve" smooth="yes"/>
      <point x="445" y="348" type="line" smooth="yes"/>
      <point x="446" y="378"/>
      <point x="456" y="390"/>
      <point x="487" y="400" type="curve"/>
      <point x="484" y="433" type="line"/>
      <point x="459" y="429"/>
      <point x="432" y="427"/>
      <point x="404" y="427" type="curve" smooth="yes"/>
      <point x="376" y="427"/>
      <point x="348" y="430"/>
      <point x="324" y="434" type="curve"/>
    </contour>
    <contour>
      <point x="36" y="400" type="line"/>
      <point x="68" y="391"/>
      <point x="82" y="374"/>
      <point x="82" y="331" type="curve" smooth="yes"/>
      <point x="81" y="148" type="line" smooth="yes"/>
      <point x="81" y="115"/>
      <point x="87" y="79"/>
      <point x="104" y="52" type="curve" smooth="yes"/>
      <point x="125" y="19"/>
      <point x="163" y="-2"/>
      <point x="214" y="-2" type="curve" smooth="yes"/>
      <point x="269" y="-2"/>
      <point x="314" y="42"/>
      <point x="372" y="82" type="curve"/>
      <point x="362" y="115" type="line"/>
      <point x="337" y="89"/>
      <point x="305" y="62"/>
      <point x="262" y="62" type="curve" smooth="yes"/>
      <point x="181" y="62"/>
      <point x="163" y="143"/>
      <point x="165" y="200" type="curve" smooth="yes"/>
      <point x="169" y="340" type="line" smooth="yes"/>
      <point x="170" y="368"/>
      <point x="179" y="388"/>
      <point x="209" y="399" type="curve"/>
      <point x="205" y="433" type="line"/>
      <point x="180" y="429"/>
      <point x="150" y="427"/>
      <point x="122" y="427" type="curve" smooth="yes"/>
      <point x="94" y="427"/>
      <point x="66" y="430"/>
      <point x="39" y="434" type="curve"/>
    </contour>
  </outline>
</glyph>
<glyph name="thorn" format="2">
  <advance width="537"/>
  <unicode hex="00FE"/>
  <outline>
    <contour>
      <point x="295" y="39" type="curve" smooth="yes"/>
      <point x="235" y="39"/>
      <point x="188" y="69"/>
      <point x="188" y="124" type="curve" smooth="yes"/>
      <point x="188" y="303" type="line" smooth="yes"/>
      <point x="188" y="346"/>
      <point x="229" y="364"/>
      <point x="278" y="364" type="curve" smooth="yes"/>
      <point x="361" y="364"/>
      <point x="418" y="291"/>
      <point x="418" y="202" type="curve" smooth="yes"/>
      <point x="418" y="122"/>
      <point x="375" y="39"/>
    </contour>
    <contour>
      <point x="55" y="-232" type="line"/>
      <point x="91" y="-229"/>
      <point x="119" y="-228"/>
      <point x="146" y="-228" type="curve" smooth="yes"/>
      <point x="172" y="-228"/>
      <point x="199" y="-229"/>
      <point x="235" y="-232" type="curve"/>
      <point x="235" y="-201" type="line"/>
      <point x="197" y="-193"/>
      <point x="184" y="-186"/>
      <point x="184" y="-164" type="curve" smooth="yes"/>
      <point x="183" y="6" type="line"/>
      <point x="196" y="15" type="line"/>
      <point x="230" y="3"/>
      <point x="257" y="-3"/>
      <point x="294" y="-3" type="curve" smooth="yes"/>
      <point x="419" y="-3"/>
      <point x="499" y="108"/>
      <point x="499" y="234" type="curve" smooth="yes"/>
      <point x="499" y="348"/>
      <point x="428" y="435"/>
      <point x="329" y="435" type="curve" smooth="yes"/>
      <point x="279" y="435"/>
      <point x="247" y="413"/>
      <point x="201" y="373" type="curve"/>
      <point x="185" y="378" type="line"/>
      <point x="186" y="481"/>
      <point x="194" y="641"/>
      <point x="202" y="731" type="curve"/>
      <point x="171" y="731" type="line"/>
      <point x="132" y="668"/>
      <point x="73" y="658"/>
      <point x="28" y="647" type="curve"/>
      <point x="30" y="617" type="line"/>
      <point x="84" y="613"/>
      <point x="97" y="609"/>
      <point x="98" y="560" type="curve" smooth="yes"/>
      <point x="100" y="483"/>
      <point x="101" y="388"/>
      <point x="102" y="305" type="curve" smooth="yes"/>
      <point x="106" y="-164" type="line" smooth="yes"/>
      <point x="106" y="-186"/>
      <point x="93" y="-193"/>
      <point x="55" y="-201" type="curve"/>
    </contour>
  </outline>
</glyph>
<glyph name="oe" format="2">
  <advance width="793"/>
  <unicode hex="0153"/>
  <outline>
    <contour>
      <point x="264" y="41" type="curve" smooth="yes"/>
      <point x="212" y="41"/>
      <point x="132" y="76"/>
      <point x="132" y="213" type="curve" smooth="yes"/>
      <point x="132" y="346"/>
      <point x="188" y="388"/>
      <point x="250" y="388" type="curve" smooth="yes"/>
      <point x="304" y="388"/>
      <point x="382" y="353"/>
      <point x="382" y="216" type="curve" smooth="yes"/>
      <point x="382" y="83"/>
      <point x="328" y="41"/>
    </contour>
    <contour>
      <point x="562" y="387" type="curve" smooth="yes"/>
      <point x="609" y="387"/>
      <point x="644" y="353"/>
      <point x="644" y="319" type="curve" smooth="yes"/>
      <point x="644" y="306"/>
      <point x="636" y="295"/>
      <point x="619" y="295" type="curve" smooth="yes"/>
      <point x="474" y="295" type="line"/>
      <point x="478" y="344"/>
      <point x="510" y="387"/>
    </contour>
    <contour>
      <point x="742" y="64" type="line"/>
      <point x="718" y="92" type="line"/>
    </contour>
    <contour>
      <point x="246" y="-9" type="curve" smooth="yes"/>
      <point x="327" y="-9"/>
      <point x="380" y="32"/>
      <point x="414" y="85" type="curve"/>
      <point x="425" y="85" type="line"/>
      <point x="460" y="22"/>
      <point x="524" y="-8"/>
      <point x="607" y="-8" type="curve"/>
      <point x="654" y="9"/>
      <point x="698" y="31"/>
      <point x="742" y="64" type="curve"/>
      <point x="718" y="92" type="line"/>
      <point x="689" y="72"/>
      <point x="657" y="63"/>
      <point x="620" y="63" type="curve" smooth="yes"/>
      <point x="507" y="63"/>
      <point x="455" y="138"/>
      <point x="466" y="249" type="curve"/>
      <point x="736" y="249" type="line"/>
      <point x="753" y="267" type="line"/>
      <point x="745" y="348"/>
      <point x="684" y="436"/>
      <point x="579" y="436" type="curve" smooth="yes"/>
      <point x="515" y="436"/>
      <point x="466" y="405"/>
      <point x="434" y="350" type="curve"/>
      <point x="422" y="350" type="line"/>
      <point x="388" y="405"/>
      <point x="325" y="436"/>
      <point x="258" y="436" type="curve" smooth="yes"/>
      <point x="131" y="436"/>
      <point x="36" y="340"/>
      <point x="36" y="213" type="curve" smooth="yes"/>
      <point x="36" y="86"/>
      <point x="119" y="-9"/>
    </contour>
  </outline>
</glyph>
<glyph name="endash" format="2">
  <advance width="713"/>
  <unicode hex="2013"/>
  <outline>
    <contour>
      <point x="128" y="277" type="line"/>
      <point x="117" y="276" type="line"/>
      <point x="100" y="261" type="line"/>
      <point x="100" y="233" type="line"/>
      <point x="107" y="229" type="line"/>
      <point x="106" y="224" type="line"/>
      <point x="106" y="219" type="line"/>
      <point x="113" y="202" type="line"/>
      <point x="138" y="195" type="line"/>
      <point x="198" y="199" type="line"/>
      <point x="254" y="202" type="line"/>
      <point x="353" y="205" type="line"/>
      <point x="359" y="205" type="line"/>
      <point x="502" y="201" type="line"/>
      <point x="603" y="202" type="line"/>
      <point x="609" y="213" type="line"/>
      <point x="613" y="260" type="line"/>
      <point x="592" y="271" type="line"/>
      <point x="521" y="274" type="line"/>
      <point x="493" y="273" type="line"/>
      <point x="406" y="266" type="line"/>
      <point x="374" y="274" type="line"/>
      <point x="330" y="268" type="line"/>
      <point x="257" y="274" type="line"/>
      <point x="234" y="266" type="line"/>
      <point x="215" y="274" type="line"/>
      <point x="161" y="275" type="line"/>
      <point x="139" y="279" type="line"/>
    </contour>
  </outline>
</glyph>
<glyph name="emdash" format="2">
  <advance width="887"/>
  <unicode hex="2014"/>
  <outline>
    <contour>
      <point x="29" y="199" type="line"/>
      <point x="292" y="201.0"/>
      <point x="557" y="201.0"/>
      <point x="820" y="199" type="curve"/>
      <point x="867" y="255" type="line"/>
      <point x="858" y="267" type="line"/>
      <point x="595" y="265.0"/>
      <point x="330" y="265.0"/>
      <point x="67" y="267" type="curve"/>
      <point x="20" y="211" type="line"/>
    </contour>
  </outline>
</glyph>
<glyph name="quoteleft" format="2">
  <advance width="224"/>
  <unicode hex="2018"/>
  <outline>
    <contour>
      <point x="45" y="485" type="line"/>
      <point x="126" y="482" type="line"/>
      <point x="142" y="569"/>
      <point x="164" y="660"/>
      <point x="184" y="729" type="curve"/>
      <point x="145" y="741" type="line"/>
      <point x="111" y="660"/>
      <point x="75" y="579"/>
      <point x="37" y="498" type="curve"/>
    </contour>
  </outline>
</glyph>
<glyph name="quotedblleft" format="2">
  <advance width="395"/>
  <unicode hex="201C"/>
  <outline>
    <contour>
      <point x="216" y="485" type="line"/>
      <point x="297" y="482" type="line"/>
      <point x="313" y="569"/>
      <point x="335" y="660"/>
      <point x="355" y="729" type="curve"/>
      <point x="316" y="741" type="line"/>
      <point x="282" y="660"/>
      <point x="246" y="579"/>
      <point x="208" y="498" type="curve"/>
    </contour>
    <contour>
      <point x="45" y="485" type="line"/>
      <point x="126" y="482" type="line"/>
      <point x="147" y="579"/>
      <point x="169" y="660"/>
      <point x="194" y="729" type="curve"/>
      <point x="155" y="741" type="line"/>
      <point x="117" y="660"/>
      <point x="77" y="579"/>
      <point x="37" y="498" type="curve"/>
    </contour>
  </outline>
</glyph>
<glyph name="quotedblright" format="2">
  <advance width="395"/>
  <unicode hex="201D"/>
  <outline>
    <contour>
      <point x="40" y="484" type="curve"/>
      <point x="79" y="472" type="line"/>
      <point x="113" y="553"/>
      <point x="149" y="634"/>
      <point x="187" y="715" type="curve"/>
      <point x="179" y="728" type="line"/>
      <point x="98" y="731" type="line"/>
      <point x="82" y="644"/>
      <point x="60" y="553"/>
    </contour>
    <contour>
      <point x="201" y="484" type="curve"/>
      <point x="240" y="472" type="line"/>
      <point x="278" y="553"/>
      <point x="318" y="634"/>
      <point x="358" y="715" type="curve"/>
      <point x="350" y="728" type="line"/>
      <point x="269" y="731" type="line"/>
      <point x="248" y="634"/>
      <point x="226" y="553"/>
    </contour>
  </outline>
</glyph>
<glyph name="quotedblbase" format="2">
  <advance width="404"/>
  <unicode hex="201E"/>
  <outline>
    <contour>
      <point x="28" y="-148" type="curve"/>
      <point x="67" y="-160" type="line"/>
      <point x="101" y="-79"/>
      <point x="137" y="2"/>
      <point x="175" y="83" type="curve"/>
      <point x="167" y="96.0" type="line"/>
      <point x="86" y="99.0" type="line"/>
      <point x="70" y="12"/>
      <point x="48" y="-79"/>
    </contour>
    <contour>
      <point x="189" y="-148" type="curve"/>
      <point x="228" y="-160" type="line"/>
      <point x="266" y="-79"/>
      <point x="306" y="2"/>
      <point x="346" y="83" type="curve"/>
      <point x="338" y="96.0" type="line"/>
      <point x="257" y="99.0" type="line"/>
      <point x="236" y="2"/>
      <point x="214" y="-79"/>
    </contour>
  </outline>
</glyph>
<glyph name="H.001" format="2">
  <advance width="846"/>
  <outline>
    <contour>
      <point x="567" y="0" type="line"/>
      <point x="641" y="11"/>
      <point x="693" y="11"/>
      <point x="767" y="0" type="curve"/>
      <point x="767" y="37" type="line"/>
      <point x="726" y="62" type="line"/>
      <point x="716" y="82" type="line"/>
      <point x="714" y="262"/>
      <point x="716" y="443"/>
      <point x="720" y="623" type="curve"/>
      <point x="730" y="643" type="line"/>
      <point x="776" y="665" type="line"/>
      <point x="776" y="703" type="line"/>
      <point x="696" y="694"/>
      <point x="638" y="694"/>
      <point x="558" y="703" type="curve"/>
      <point x="558" y="665" type="line"/>
      <point x="599" y="643" type="line"/>
      <point x="609" y="623" type="line"/>
      <point x="615" y="443"/>
      <point x="618" y="262"/>
      <point x="618" y="82" type="curve"/>
      <point x="608" y="62" type="line"/>
      <point x="567" y="37" type="line"/>
    </contour>
    <contour>
      <point x="79" y="0" type="line"/>
      <point x="153" y="11"/>
      <point x="205" y="11"/>
      <point x="279" y="0" type="curve"/>
      <point x="279" y="37" type="line"/>
      <point x="238" y="62" type="line"/>
      <point x="228" y="82" type="line"/>
      <point x="226" y="262"/>
      <point x="228" y="443"/>
      <point x="232" y="623" type="curve"/>
      <point x="242" y="643" type="line"/>
      <point x="288" y="665" type="line"/>
      <point x="288" y="703" type="line"/>
      <point x="208" y="694"/>
      <point x="150" y="694"/>
      <point x="70" y="703" type="curve"/>
      <point x="70" y="665" type="line"/>
      <point x="111" y="643" type="line"/>
      <point x="121" y="623" type="line"/>
      <point x="127" y="443"/>
      <point x="130" y="262"/>
      <point x="130" y="82" type="curve"/>
      <point x="120" y="62" type="line"/>
      <point x="79" y="37" type="line"/>
    </contour>
    <contour>
      <point x="217" y="338" type="line"/>
      <point x="247" y="358" type="line"/>
      <point x="595" y="358" type="line"/>
      <point x="625" y="338" type="line"/>
      <point x="625" y="423" type="line"/>
      <point x="595" y="403" type="line"/>
      <point x="247" y="403" type="line"/>
      <point x="217" y="423" type="line"/>
    </contour>
  </outline>
</glyph>
<glyph name="H.002" format="2">
  <advance width="846"/>
  <outline>
    <contour>
      <point x="567" y="-3" type="line"/>
      <point x="604" y="2"/>
      <point x="636" y="4"/>
      <point x="667" y="4" type="curve" smooth="yes"/>
      <point x="698" y="4"/>
      <point x="730" y="2"/>
      <point x="767" y="-3" type="curve"/>
      <point x="767" y="37" type="line"/>
      <point x="733" y="46"/>
      <point x="716" y="60"/>
      <point x="716" y="102" type="curve" smooth="yes"/>
      <point x="716" y="271"/>
      <point x="715" y="439"/>
      <point x="724" y="608" type="curve" smooth="yes"/>
      <point x="726" y="646"/>
      <point x="745" y="653"/>
      <point x="776" y="660" type="curve"/>
      <point x="776" y="700" type="line"/>
      <point x="736" y="696"/>
      <point x="701" y="694"/>
      <point x="667" y="694" type="curve" smooth="yes"/>
      <point x="633" y="694"/>
      <point x="598" y="696"/>
      <point x="558" y="700" type="curve"/>
      <point x="558" y="660" type="line"/>
      <point x="589" y="653"/>
      <point x="608" y="646"/>
      <point x="610" y="608" type="curve" smooth="yes"/>
      <point x="619" y="439"/>
      <point x="618" y="271"/>
      <point x="618" y="102" type="curve" smooth="yes"/>
      <point x="618" y="60"/>
      <point x="601" y="46"/>
      <point x="567" y="37" type="curve"/>
    </contour>
    <contour>
      <point x="79" y="0" type="line"/>
      <point x="116" y="5"/>
      <point x="148" y="7"/>
      <point x="179" y="7" type="curve" smooth="yes"/>
      <point x="210" y="7"/>
      <point x="242" y="5"/>
      <point x="279" y="0" type="curve"/>
      <point x="279" y="40" type="line"/>
      <point x="245" y="49"/>
      <point x="228" y="63"/>
      <point x="228" y="105" type="curve" smooth="yes"/>
      <point x="228" y="274"/>
      <point x="227" y="442"/>
      <point x="236" y="611" type="curve" smooth="yes"/>
      <point x="238" y="649"/>
      <point x="257" y="656"/>
      <point x="288" y="663" type="curve"/>
      <point x="288" y="703" type="line"/>
      <point x="248" y="699"/>
      <point x="213" y="697"/>
      <point x="179" y="697" type="curve" smooth="yes"/>
      <point x="145" y="697"/>
      <point x="110" y="699"/>
      <point x="70" y="703" type="curve"/>
      <point x="70" y="663" type="line"/>
      <point x="101" y="656"/>
      <point x="120" y="649"/>
      <point x="122" y="611" type="curve" smooth="yes"/>
      <point x="131" y="442"/>
      <point x="130" y="274"/>
      <point x="130" y="105" type="curve" smooth="yes"/>
      <point x="130" y="63"/>
      <point x="113" y="49"/>
      <point x="79" y="40" type="curve"/>
    </contour>
    <contour>
      <point x="228" y="328" type="line"/>
      <point x="229" y="345"/>
      <point x="230" y="358"/>
      <point x="252" y="358" type="curve" smooth="yes"/>
      <point x="594" y="358" type="line" smooth="yes"/>
      <point x="616" y="358"/>
      <point x="617" y="345"/>
      <point x="618" y="328" type="curve"/>
      <point x="627" y="382" type="line"/>
      <point x="617" y="433" type="line"/>
      <point x="617" y="416"/>
      <point x="616" y="403"/>
      <point x="594" y="403" type="curve" smooth="yes"/>
      <point x="252" y="403" type="line" smooth="yes"/>
      <point x="230" y="403"/>
      <point x="229" y="416"/>
      <point x="229" y="433" type="curve"/>
      <point x="219" y="382" type="line"/>
    </contour>
  </outline>
</glyph>
<glyph name="H.003" format="2">
  <advance width="846"/>
  <outline>
    <contour>
      <point x="79" y="0" type="line"/>
      <point x="116" y="5"/>
      <point x="148" y="7"/>
      <point x="179" y="7" type="curve" smooth="yes"/>
      <point x="210" y="7"/>
      <point x="242" y="5"/>
      <point x="279" y="0" type="curve"/>
      <point x="279" y="40" type="line"/>
      <point x="245" y="47"/>
      <point x="228" y="53"/>
      <point x="228" y="85" type="curve" smooth="yes"/>
      <point x="228" y="264"/>
      <point x="228" y="442"/>
      <point x="237" y="621" type="curve" smooth="yes"/>
      <point x="238" y="649"/>
      <point x="252" y="657"/>
      <point x="288" y="663" type="curve"/>
      <point x="288" y="703" type="line"/>
      <point x="248" y="699"/>
      <point x="213" y="697"/>
      <point x="179" y="697" type="curve" smooth="yes"/>
      <point x="145" y="697"/>
      <point x="110" y="699"/>
      <point x="70" y="703" type="curve"/>
      <point x="70" y="663" type="line"/>
      <point x="106" y="657"/>
      <point x="120" y="649"/>
      <point x="121" y="621" type="curve" smooth="yes"/>
      <point x="130" y="442"/>
      <point x="130" y="264"/>
      <point x="130" y="85" type="curve" smooth="yes"/>
      <point x="130" y="53"/>
      <point x="113" y="47"/>
      <point x="79" y="40" type="curve"/>
    </contour>
    <contour>
      <point x="217" y="358" type="line"/>
      <point x="625" y="358" type="line"/>
      <point x="625" y="403" type="line"/>
      <point x="217" y="403" type="line"/>
    </contour>
    <contour>
      <point x="567" y="-3" type="line"/>
      <point x="604" y="2"/>
      <point x="636" y="4"/>
      <point x="667" y="4" type="curve" smooth="yes"/>
      <point x="698" y="4"/>
      <point x="730" y="2"/>
      <point x="767" y="-3" type="curve"/>
      <point x="767" y="37" type="line"/>
      <point x="733" y="44"/>
      <point x="716" y="50"/>
      <point x="716" y="82" type="curve" smooth="yes"/>
      <point x="714" y="261"/>
      <point x="714" y="439"/>
      <point x="725" y="618" type="curve" smooth="yes"/>
      <point x="727" y="646"/>
      <point x="740" y="654"/>
      <point x="776" y="660" type="curve"/>
      <point x="776" y="700" type="line"/>
      <point x="736" y="696"/>
      <point x="701" y="694"/>
      <point x="667" y="694" type="curve" smooth="yes"/>
      <point x="633" y="694"/>
      <point x="598" y="696"/>
      <point x="558" y="700" type="curve"/>
      <point x="558" y="660" type="line"/>
      <point x="594" y="654"/>
      <point x="608" y="646"/>
      <point x="609" y="618" type="curve" smooth="yes"/>
      <point x="617" y="439"/>
      <point x="617" y="261"/>
      <point x="618" y="82" type="curve" smooth="yes"/>
      <point x="618" y="50"/>
      <point x="601" y="44"/>
      <point x="567" y="37" type="curve"/>
    </contour>
  </outline>
</glyph>
<glyph name="H.004" format="2">
  <advance width="832"/>
  <outline>
    <contour>
      <point x="210" y="358" type="line"/>
      <point x="618" y="358" type="line"/>
      <point x="618" y="403" type="line"/>
      <point x="210" y="403" type="line"/>
    </contour>
    <contour>
      <point x="223" y="617" type="line" smooth="yes"/>
      <point x="223" y="649"/>
      <point x="240" y="655"/>
      <point x="274" y="662" type="curve"/>
      <point x="274" y="702" type="line"/>
      <point x="237" y="697"/>
      <point x="205" y="695"/>
      <point x="172" y="695" type="curve" smooth="yes"/>
      <point x="139" y="695"/>
      <point x="107" y="697"/>
      <point x="70" y="702" type="curve"/>
      <point x="70" y="662" type="line"/>
      <point x="104" y="655"/>
      <point x="121" y="649"/>
      <point x="121" y="617" type="curve" smooth="yes"/>
      <point x="121" y="85" type="line" smooth="yes"/>
      <point x="121" y="53"/>
      <point x="104" y="47"/>
      <point x="70" y="40" type="curve"/>
      <point x="70" y="0" type="line"/>
      <point x="107" y="5"/>
      <point x="139" y="7"/>
      <point x="172" y="7" type="curve" smooth="yes"/>
      <point x="205" y="7"/>
      <point x="237" y="5"/>
      <point x="274" y="0" type="curve"/>
      <point x="274" y="40" type="line"/>
      <point x="240" y="47"/>
      <point x="223" y="53"/>
      <point x="223" y="85" type="curve" smooth="yes"/>
    </contour>
    <contour>
      <point x="711" y="614" type="line" smooth="yes"/>
      <point x="711" y="646"/>
      <point x="728" y="652"/>
      <point x="762" y="659" type="curve"/>
      <point x="762" y="699" type="line"/>
      <point x="725" y="694"/>
      <point x="693" y="692"/>
      <point x="660" y="692" type="curve" smooth="yes"/>
      <point x="627" y="692"/>
      <point x="595" y="694"/>
      <point x="558" y="699" type="curve"/>
      <point x="558" y="659" type="line"/>
      <point x="592" y="652"/>
      <point x="609" y="646"/>
      <point x="609" y="614" type="curve" smooth="yes"/>
      <point x="609" y="82" type="line" smooth="yes"/>
      <point x="609" y="50"/>
      <point x="592" y="44"/>
      <point x="558" y="37" type="curve"/>
      <point x="558" y="-3" type="line"/>
      <point x="595" y="2"/>
      <point x="627" y="4"/>
      <point x="660" y="4" type="curve" smooth="yes"/>
      <point x="693" y="4"/>
      <point x="725" y="2"/>
      <point x="762" y="-3" type="curve"/>
      <point x="762" y="37" type="line"/>
      <point x="728" y="44"/>
      <point x="711" y="50"/>
      <point x="711" y="82" type="curve" smooth="yes"/>
    </contour>
  </outline>
</glyph>
